<svg width="11" height="14" viewBox="0 0 11 14" fill="none" xmlns="http://www.w3.org/2000/svg">
<path d="M6.125 3.71875V0H0.65625C0.464844 0 0.300781 0.0820312 0.191406 0.191406C0.0546875 0.328125 0 0.492188 0 0.65625V13.3438C0 13.5352 0.0546875 13.6992 0.191406 13.8086C0.300781 13.9453 0.464844 14 0.65625 14H9.84375C10.0078 14 10.1719 13.9453 10.3086 13.8086C10.418 13.6992 10.5 13.5352 10.5 13.3438V4.375H6.78125C6.58984 4.375 6.42578 4.32031 6.31641 4.18359C6.17969 4.07422 6.125 3.91016 6.125 3.71875ZM7.875 10.1719C7.875 10.3906 7.76562 10.5 7.54688 10.5H2.95312C2.73438 10.5 2.625 10.3906 2.625 10.1719V9.95312C2.625 9.73438 2.73438 9.625 2.95312 9.625H7.54688C7.76562 9.625 7.875 9.73438 7.875 9.95312V10.1719ZM7.875 8.42188C7.875 8.64062 7.76562 8.75 7.54688 8.75H2.95312C2.73438 8.75 2.625 8.64062 2.625 8.42188V8.20312C2.625 7.98438 2.73438 7.875 2.95312 7.875H7.54688C7.76562 7.875 7.875 7.98438 7.875 8.20312V8.42188ZM7.875 6.45312V6.67188C7.875 6.89062 7.76562 7 7.54688 7H2.95312C2.73438 7 2.625 6.89062 2.625 6.67188V6.45312C2.625 6.23438 2.73438 6.125 2.95312 6.125H7.54688C7.76562 6.125 7.875 6.23438 7.875 6.45312ZM10.5 3.33594C10.5 3.17188 10.418 3.00781 10.3086 2.87109L7.62891 0.191406C7.49219 0.0820312 7.32812 0 7.16406 0H7V3.5H10.5V3.33594Z" fill="#4CC3E5"/>
</svg>
