<svg width="21" height="20" viewBox="0 0 21 20" fill="none" xmlns="http://www.w3.org/2000/svg">
<path fill-rule="evenodd" clip-rule="evenodd" d="M8.55288 2.13822C5.01016 2.13822 2.13822 5.01016 2.13822 8.55288C2.13822 12.0956 5.01016 14.9675 8.55288 14.9675C12.0956 14.9675 14.9675 12.0956 14.9675 8.55288C14.9675 5.01016 12.0956 2.13822 8.55288 2.13822ZM0 8.55288C0 3.82925 3.82925 0 8.55288 0C13.2765 0 17.1058 3.82925 17.1058 8.55288C17.1058 13.2765 13.2765 17.1058 8.55288 17.1058C3.82925 17.1058 0 13.2765 0 8.55288Z" fill="#A69895"/>
<path fill-rule="evenodd" clip-rule="evenodd" d="M18.1744 19.244L12.8289 13.8984L14.3408 12.3865L19.6864 17.732C20.1039 18.1495 20.1039 18.8265 19.6864 19.244C19.2688 19.6615 18.5919 19.6615 18.1744 19.244Z" fill="#A69895"/>
</svg>
