<svg width="19" height="19" viewBox="0 0 19 19" fill="none" xmlns="http://www.w3.org/2000/svg">
<path fill-rule="evenodd" clip-rule="evenodd" d="M7.53127 2.82099C4.41171 2.82099 1.88282 5.40588 1.88282 8.5945C1.88282 11.7831 4.41171 14.368 7.53127 14.368C10.6508 14.368 13.1797 11.7831 13.1797 8.5945C13.1797 5.40588 10.6508 2.82099 7.53127 2.82099ZM0 8.5945C0 4.343 3.37186 0.896484 7.53127 0.896484C11.6907 0.896484 15.0625 4.343 15.0625 8.5945C15.0625 12.846 11.6907 16.2925 7.53127 16.2925C3.37186 16.2925 0 12.846 0 8.5945Z" fill="white"/>
<path fill-rule="evenodd" clip-rule="evenodd" d="M16.0046 18.2166L11.2976 13.4053L12.6289 12.0445L17.3359 16.8558C17.7036 17.2316 17.7036 17.8408 17.3359 18.2166C16.9683 18.5924 16.3722 18.5924 16.0046 18.2166Z" fill="white"/>
</svg>
