<svg width="14" height="14" viewBox="0 0 14 14" fill="none" xmlns="http://www.w3.org/2000/svg">
<path fill-rule="evenodd" clip-rule="evenodd" d="M7 14C10.866 14 14 10.866 14 7C14 3.13401 10.866 0 7 0C3.13401 0 0 3.13401 0 7C0 10.866 3.13401 14 7 14ZM7.58333 3.11111C7.58333 2.78894 7.32217 2.52778 7 2.52778C6.67783 2.52778 6.41667 2.78894 6.41667 3.11111V5.55752C5.84659 5.78828 5.44444 6.34718 5.44444 7C5.44444 7.85911 6.14089 8.55556 7 8.55556C7.65282 8.55556 8.21172 8.15341 8.44248 7.58333H10.8889C11.2111 7.58333 11.4722 7.32217 11.4722 7C11.4722 6.67783 11.2111 6.41667 10.8889 6.41667H8.44248C8.28464 6.02673 7.97327 5.71536 7.58333 5.55752L7.58333 3.11111Z" fill="#A69895"/>
</svg>
