<svg width="61" height="38" fill="none" xmlns="http://www.w3.org/2000/svg"><path fill-rule="evenodd" clip-rule="evenodd" d="M17.987 11.401c.553-.664.927-1.587.826-2.507-.8.032-1.768.529-2.338 1.19-.516.588-.963 1.528-.84 2.43.89.068 1.798-.449 2.352-1.113zm2.299 5.838c-.018-1.99 1.64-2.947 1.717-2.994-.936-1.346-2.386-1.533-2.903-1.554-1.237-.12-2.415.72-3.04.72-.627 0-1.592-.7-2.62-.68-1.348.02-2.59.776-3.284 1.969-1.396 2.409-.354 5.966 1.009 7.915.668.954 1.461 2.025 2.507 1.987 1.007-.04 1.384-.645 2.6-.645 1.215-.001 1.558.643 2.618.625 1.082-.023 1.769-.974 2.432-1.933.763-1.104 1.079-2.177 1.095-2.23-.022-.015-2.107-.802-2.131-3.18zm12.88-5.839c-.404-.384-.924-.684-1.546-.89-.617-.203-1.358-.306-2.203-.306-.54-.002-1.08.025-1.618.083-.448.05-.895.112-1.34.186l-.13.023V24.48h1.29v-5.89a8.92 8.92 0 001.482.113c.73 0 1.414-.093 2.034-.275a4.561 4.561 0 001.63-.84 4.08 4.08 0 001.09-1.401c.264-.554.398-1.206.398-1.939 0-.606-.097-1.152-.286-1.621a3.703 3.703 0 00-.801-1.226zm-1.186 5.342c-.663.55-1.6.828-2.79.828-.328 0-.637-.014-.922-.04a4.374 4.374 0 01-.648-.108v-5.947c.17-.031.382-.06.63-.087.314-.033.693-.05 1.127-.05.498-.004.994.06 1.475.19.409.111.793.298 1.133.55.31.237.553.545.722.917.17.377.256.827.256 1.336 0 1.057-.332 1.868-.983 2.411zm9.988 6.43a31.45 31.45 0 01-.02-1.19v-3.887c0-.46-.048-.93-.14-1.398a3.525 3.525 0 00-.534-1.301 2.987 2.987 0 00-1.09-.957c-.459-.244-1.055-.368-1.775-.368a5.75 5.75 0 00-1.522.201 4.859 4.859 0 00-1.423.67l-.105.072.436 1.01.158-.106c.344-.228.72-.406 1.117-.525.4-.124.818-.188 1.238-.189.537 0 .967.097 1.273.287.312.192.546.43.697.709.158.287.261.593.307.91.049.33.072.626.072.879v.113c-1.913-.01-3.407.306-4.4.939-1.04.663-1.569 1.607-1.569 2.806 0 .345.063.692.186 1.036.125.348.314.659.562.925.25.269.573.488.958.652.385.165.837.248 1.342.248a3.787 3.787 0 002.027-.548 3.882 3.882 0 00.95-.813h.049l.118 1.135h1.244l-.034-.182a7.711 7.711 0 01-.122-1.128zm-1.311-1.992c0 .136-.033.323-.095.547a2.8 2.8 0 01-.347.683 2.65 2.65 0 01-1.352 1.01 3.192 3.192 0 01-1.035.156c-.231 0-.461-.039-.68-.115a1.642 1.642 0 01-.572-.339 1.687 1.687 0 01-.402-.575 2.134 2.134 0 01-.153-.854c0-.547.15-.991.441-1.316a2.91 2.91 0 011.151-.771 5.958 5.958 0 011.555-.351 14.32 14.32 0 011.489-.064v1.99zm10.07-6.881l-2.408 6.477c-.15.392-.29.786-.419 1.17-.062.191-.121.372-.18.545h-.045c-.06-.189-.122-.378-.184-.566a22.5 22.5 0 00-.397-1.108l-2.576-6.518H43.14l3.685 9.37c.096.226.11.33.11.372 0 .013-.004.09-.112.375a6.78 6.78 0 01-.782 1.437c-.295.398-.565.72-.806.959-.28.277-.57.504-.863.676-.3.175-.574.317-.816.424l-.14.061.45 1.08.142-.053c.117-.044.336-.143.669-.303.336-.164.708-.424 1.105-.775a5.69 5.69 0 00.93-1.037c.272-.386.544-.84.811-1.343.264-.503.528-1.074.786-1.7.258-.63.534-1.333.82-2.09l2.976-7.453h-1.379zM54.724.792h.61c.167.001.334.004.503.008a6.65 6.65 0 011.008.086c.32.057.59.145.851.276.53.265.959.691 1.227 1.214.133.259.22.526.278.843.062.338.08.693.087.997.005.164.007.33.008.497l.001.603v27.368l-.001.606c0 .165-.004.33-.008.495a6.68 6.68 0 01-.087.998 2.8 2.8 0 01-1.507 2.055 3.022 3.022 0 01-.85.277 6.973 6.973 0 01-1.005.085 82.365 82.365 0 01-1.116.008H5.464l-.604-.001c-.168 0-.336-.002-.5-.007a7.09 7.09 0 01-1.009-.085 2.988 2.988 0 01-.852-.277 2.759 2.759 0 01-.71-.511 2.748 2.748 0 01-.516-.703 2.942 2.942 0 01-.279-.843 6.566 6.566 0 01-.087-.996c-.004-.166-.007-.33-.007-.496l-.001-.483V4.713c.001-.166.004-.331.008-.497.008-.302.025-.657.087-.999.05-.293.144-.576.28-.841A2.78 2.78 0 012.5 1.162a3 3 0 01.85-.275A6.776 6.776 0 014.36.8c.167-.004.334-.006.5-.007l.612-.001h49.253zm0-.792H4.856c-.173.002-.346.004-.519.009A7.689 7.689 0 003.21.107a3.855 3.855 0 00-1.073.35 3.603 3.603 0 00-1.93 2.622 7.325 7.325 0 00-.1 1.116c-.004.17-.007.341-.008.512v28.587c.001.17.004.342.008.512.01.372.033.747.1 1.115.068.375.179.722.353 1.062a3.572 3.572 0 001.577 1.56 3.83 3.83 0 001.073.35c.372.066.751.088 1.128.098.173.005.345.008.519.008L5.47 38h49.253c.205 0 .41 0 .616-.002.173 0 .345-.003.518-.007.376-.01.756-.032 1.129-.098a3.85 3.85 0 001.072-.35 3.569 3.569 0 001.577-1.56 3.73 3.73 0 00.353-1.062c.067-.368.089-.743.1-1.115a21.4 21.4 0 00.007-.512c.002-.204.002-.406.002-.61V5.316c0-.204 0-.406-.002-.61 0-.17-.003-.341-.008-.512a7.368 7.368 0 00-.1-1.116 3.587 3.587 0 00-1.93-2.622 3.847 3.847 0 00-1.071-.35 7.716 7.716 0 00-1.129-.098C55.685.003 55.512.002 55.34 0h-.616z" fill="#fff"/></svg>