<svg xmlns="http://www.w3.org/2000/svg" viewBox="0 0 172 44"><path d="M0 44V12h19v6H6v7h12v6H6v7h13v6zm123 0V12h17v3.2h-12.66v9.6H140V28h-12.66v12.8H140V44z" fill="#fff"/><path class="cls-3" d="M25 4a2 2 0 10-2-2 2 2 0 002 2zm15 35a11 11 0 007-19.49l-4.81 8.77a1.9 1.9 0 01-.73.73l-.28.16a1.68 1.68 0 01-2.5-1.41 1.62 1.62 0 01.28-1l5.77-8.69A10.87 10.87 0 0040 17a11 11 0 000 22m0-27a16 16 0 017.52 1.87L51 8.59a.86.86 0 011.47.89l-3.07 5.59A16 16 0 1140 12zm2-10a2 2 0 11-2-2 2 2 0 012 2zm14 2a2 2 0 10-2-2 2 2 0 002 2zm24.44 11.83a12.42 12.42 0 017.33 4.51l2.83-2.21a16 16 0 10.06 19.66 16.16 16.16 0 003.19-7.58 15.9 15.9 0 00.13-3v-.2H79v4h11a12.42 12.42 0 11-9.61-15.17z" fill="#fff"/><path d="M148.5 44l2.5-7.5h13.5l3 7.5h4.5l-12-27-2.3-5-2.2 4.57L144 44zm3.5-11l5.5-13.12.5 1.12 5 12z" fill="#fff"/><path class="cls-3" d="M101.51 14.76a8.42 8.42 0 016.75-2.76 12 12 0 017.74 2.76l.77.63-2.35 2.86-.81-.72a7.4 7.4 0 00-5-2 5.25 5.25 0 00-4 1.39 5 5 0 00-1.31 3.46 3.78 3.78 0 001.07 2.94 10.14 10.14 0 003.55 1.89l1.52.46a27 27 0 015 1.87 16.91 16.91 0 012 1.38 6.35 6.35 0 011.48 1.6 8 8 0 011.08 4.31 8.32 8.32 0 01-3.12 6.7 11.47 11.47 0 01-7.44 2.47 13.7 13.7 0 01-9.71-4.12l-.73-.71 2.64-2.56.72.71a9.76 9.76 0 007 3.16 8 8 0 005-1.6 4.65 4.65 0 002-3.93 3.75 3.75 0 00-.54-2 5.11 5.11 0 00-1.16-1.48 7.4 7.4 0 00-1.91-1.16c-1.13-.45-2.59-.94-4.39-1.47a12.64 12.64 0 01-5.59-2.94 7.29 7.29 0 01-2.2-4.92 8.46 8.46 0 011.94-6.22z" fill="#fff"/></svg>