<svg xmlns="http://www.w3.org/2000/svg" viewBox="0 0 173.8 64.09"><g data-name="Layer 2"><path d="M19.65.1a96.4 96.4 0 00-18.18 3L0 3.54v45.55l.44.9c.62 1.25 1.32 1.92 3.64 3.44A94.06 94.06 0 0015 59.5c6.38 3.18 9.56 4.59 10.35 4.59 1.47 0 14.65-6.54 20.46-10.09 3-1.85 4.19-3.07 4.67-4.67.16-.52.21-5.5.21-23.2V3.54L48.84 3A99.64 99.64 0 0033.76.33 130.89 130.89 0 0019.65.1zm1.14 5.45C19.34 7 18.11 8.11 18.06 8.11a6.05 6.05 0 01-.6-1.24c-.28-.69-.63-1.51-.77-1.84l-.25-.6L17.76 4a22.74 22.74 0 014.94-1h.72zm9.15-2.33c.74.14 2 .47 2.9.73l1.56.48-.3.76a15.73 15.73 0 01-1.29 2.92c-.05 0-1.28-1.15-2.73-2.56L27.43 3H28a13.72 13.72 0 011.94.22zm-15.58.32a7.26 7.26 0 01-1.17.66A27.18 27.18 0 003.1 13.09c-.26.38-.28.21-.28-3.48V5.73l2.06-.49c2.1-.5 5.39-1.13 8-1.52l1.49-.24s-.01.01-.01.06zm14.27 2.84c1.68 1.61 3.05 3 3.05 3a4.2 4.2 0 01-1 .5l-3.13 1.35-2.12.93-3.05-1.33c-1.69-.74-3.09-1.38-3.13-1.44s6-5.94 6.19-5.94S27 4.78 28.63 6.38zM39.65 4a62.39 62.39 0 017.11 1.52 17.13 17.13 0 01-1.43 1.51L43.9 8.47l-1.34-1.09a27.37 27.37 0 00-4.68-3.11c-.68-.36-1.1-.65-.93-.65s1.39.18 2.7.38zM15.78 6.91a15 15 0 01.66 1.8c0 .15-.64.2-2.69.2-1.47 0-3.19 0-3.8.09l-1.13.09.61-.55c1.26-1.15 5.36-3.61 5.57-3.35a18.47 18.47 0 01.78 1.72zm22.43-.63a25.2 25.2 0 013.55 2.52c.14.17-.51.2-3.55.14-2.05 0-3.75-.09-3.79-.13a6.06 6.06 0 01.47-1.38c.3-.73.63-1.56.75-1.84.21-.51.21-.51.77-.28.3.13 1.12.57 1.8.97zm28.28 0v.82l-1 .09A5.23 5.23 0 0061.84 9a5.47 5.47 0 000 6.19A5 5 0 0065.56 17l.93.11V19h1.6v-1.9L69 17a4.83 4.83 0 003.34-1.43A4.39 4.39 0 0073.71 12a4.49 4.49 0 00-4.51-4.81l-1.11-.09V5.54h-1.6zM80 5.75c-2.86.81-4.36 3.42-4.11 7.14.11 2.51.89 4.11 2.37 5.11a6.05 6.05 0 004 1 5.06 5.06 0 002.55-.59c2-1 2.94-2.73 3.09-5.48.19-3.44-.93-5.78-3.28-6.86a5.37 5.37 0 00-2.43-.46 9.28 9.28 0 00-2.19.14zm10.92 6.53v6.58h1.6v-6.1h6.9v6.1H101V5.7h-1.6v5.62h-6.9V5.7h-1.6zm16.36-5a29.11 29.11 0 01-2.6 8.74c-.64 1.35-.68 1.4-1.2 1.4h-.53v4.82h1.44v-3.38h9.15v3.37h1.6v-4.82h-1.77V5.7h-5.89zm-23.69-.1a4.14 4.14 0 012.38 2.36 10.66 10.66 0 01.03 5.31 4.48 4.48 0 01-7.3 1.51 5.61 5.61 0 01-1.21-4.16c0-2.47.74-4 2.2-4.76a5.29 5.29 0 013.85-.27zm28.18 5.11v5.13h-3.06a17.82 17.82 0 01-3-.12 38.73 38.73 0 001.64-3.73 34.57 34.57 0 001.37-5.47c0-.9.08-.94 1.62-.94h1.43zm-63.92-3.1l-.05 1.57h-3.37L46 9.24a16 16 0 011.73-1.61 4.9 4.9 0 01.12 1.56zm18.64 2.92v3.68l-.6-.08a3.64 3.64 0 01-3.17-5.05 3.44 3.44 0 013.33-2.21h.44zm4-3.17c1.07.51 1.54 1.35 1.61 2.88A3.37 3.37 0 0170.87 15a5.1 5.1 0 01-2.65.75 53.74 53.74 0 010-7.18 3.91 3.91 0 012.25.37zm-53.9 1.54c0 .06-.56 1.52-1.24 3.24l-1.24 3.13-3.18 1.25c-1.75.69-3.21 1.24-3.23 1.21s0-2 0-4.38l.11-4.33 3.61-.09 4.37-.12c.47-.02.81.02.8.09zm22.61 0h2.5l-2.64 2.56a20.63 20.63 0 01-2.75 2.43c-.11-.11-2.06-5-2.06-5.13a4.65 4.65 0 011.22 0c.68.13 2.36.18 3.73.18zm-18.34 1.41c1.32.59 2.42 1.08 2.44 1.1s-5.88 2.53-6.89 2.91c-.2.07-.06-.43.6-2.12 1.12-2.84 1.16-2.94 1.32-2.94s1.21.47 2.53 1.05zm12.85 1.48c.54 1.38 1 2.54.94 2.56s-1.65-.62-3.59-1.43-3.54-1.5-3.51-1.5 4.87-2.14 5-2.15a14 14 0 011.16 2.52zm14.13.07v2.29h-8.5l2.35-2.32L44 11.16h3.88zm-41.64 2c0 2.73-.1 3.73-.24 3.73a13.91 13.91 0 01-1.67-.6L2.81 18v-.61c0-.71.36-1.48 1.48-3.16a15.94 15.94 0 011.94-2.54s0 1.71-.03 3.76zm23.48.2c2.34 1 4.35 1.81 4.47 1.88s-2.78 3-9.52 9.5c-5.34 5.15-9.79 9.39-9.88 9.42a28.43 28.43 0 01-1.89-4.1l-1.72-4.16 2-5c1.12-2.72 2.09-5 2.15-5.07S25.1 14 25.38 13.89c.02 0 1.96.79 4.3 1.76zm18.16 2.86v2.28H34.11l2.35-2.32 2.36-2.32h8.98zm-35.67 3c-.57 1.39-1.23 3-1.45 3.54a3.94 3.94 0 01-.47 1 49.75 49.75 0 01-2.1-5A38.19 38.19 0 0113 19a8.73 8.73 0 01-.83 2.54zm-6.93-.79a5.76 5.76 0 01-1.16 1.48l-1.26 1.4v-3.91l1.18.48a9.28 9.28 0 011.24.59zm42.6 2.72v2.28h-9.5c-9.23 0-9.5 0-9.19-.29l2.43-2.33 2.11-2h14zM8.1 25.17l1.31 3-1.32 3c-.73 1.67-1.38 3.07-1.44 3.11a13.64 13.64 0 01-2-1.89l-1.86-2v-4.6l1.88-2a12.21 12.21 0 012-1.87c.08.17.71 1.59 1.43 3.25zm104.09-.81c-2.86.81-4.36 3.42-4.11 7.14.17 2.51.94 4.14 2.42 5.12a6.11 6.11 0 004 1 5 5 0 002.55-.6c2-1 3-2.72 3.1-5.47.18-3.44-.94-5.78-3.29-6.86a5.37 5.37 0 00-2.43-.46 8.37 8.37 0 00-2.24.13zm-50.51 6.53v6.57h1.6V25.75H70v11.71h1.6V24.31h-9.92zm13.47 0v6.57h7.38v-1.28h-5.78v-5h5.46v-1.26h-5.46v-4.17h5.78v-1.44h-7.38zm10.26 0v6.59H87v-5.1l1.72-.09c2.23-.11 3.31-.5 4.19-1.5a4.13 4.13 0 00.52-4.53c-.72-1.41-1.82-1.8-5.35-1.91l-2.69-.08zm11.23 0v6.59l3.25-.05c3-.06 3.3-.09 4-.44a3.14 3.14 0 002-3.23c0-1.77-.55-2.45-2.54-3.12-.27-.09-.23-.14.3-.32a2.8 2.8 0 001.81-3.14c-.26-2.22-1.74-2.88-6.48-2.88h-2.34zm26.47 0v6.57h7.38v-1.28h-5.78v-5h5.46v-1.26h-5.46v-4.17h5.78v-1.44h-7.38zm-7.32-5.11a4.15 4.15 0 012.37 2.36 10.62 10.62 0 01.08 5.31 4.49 4.49 0 01-7.3 1.52 5.57 5.57 0 01-1.2-4.16c0-2.47.73-4 2.19-4.76a5.26 5.26 0 013.86-.27zm-25.22.16a2.45 2.45 0 011.67 2.79C92 30.2 91 30.84 88.53 31l-1.53.1v-5.55l1.5.1a12.13 12.13 0 012.07.29zm11.85 0a1.64 1.64 0 011.36 1.82c0 1.69-.76 2.13-3.65 2.15h-1.88v-4.36l1.77.1a13.77 13.77 0 012.4.29zm-54.58 2.58v2.29H36.73l-1.45-.62-1.46-.61-1.43.61-1.43.6-3.57.06a25.55 25.55 0 01-3.57-.07 30.35 30.35 0 012.29-2.33l2.28-2.2h19.5zm-36.07 5.32c.8 1.94 1.44 3.54 1.42 3.56a40.35 40.35 0 01-5.09-2.1c0-.18 2.12-5.07 2.17-5s.73 1.61 1.5 3.54zm17.74-2.53l-1.92.83c-1.72.73-1.78.77-2.17 1.55-.22.45-.52 1.11-.67 1.49l-.26.68h-6l2.4-2.32 2.41-2.31h3.21a27.57 27.57 0 013 .08zm8 1.3L40.86 34l1.44 3.5 1.43 3.5-1.39 3.39c-.77 1.86-1.48 3.47-1.58 3.57a56.54 56.54 0 01-7 2.82c-.33 0-6.78-2.59-7-2.8 0 0-.71-1.62-1.5-3.53L23.84 41l1.46-3.51L26.76 34l3.3-1.37a30.2 30.2 0 013.7-1.38 27.61 27.61 0 013.75 1.36zm10.33.88v2.29h-4.69l-.63-1.48-.62-1.48-1.9-.68-2-.83c-.09 0 2.09-.08 4.85-.09h5zm55.09-1.84a1.93 1.93 0 011.25 2 2.27 2.27 0 01-1.2 2.12 5.92 5.92 0 01-2.69.39l-2 .05v-5l2 .07a7.09 7.09 0 012.64.37zm-71.15 1.42a8.4 8.4 0 00-6 6.3 8.17 8.17 0 0011.68 8.89 8.31 8.31 0 004.35-5.73c.31-1.68.52-1.54-2.31-1.54H37v1.45h1.7c1.93 0 1.87-.09 1.1 1.53a6.84 6.84 0 01-7.27 3.66l-.5-.1v-5.09h3.69V41H32v-2.57h5V37h-6.44v5c0 5.67.13 5.31-1.42 3.92a6.42 6.42 0 01-1.43-2 4.59 4.59 0 01-.6-2.92 4.71 4.71 0 01.51-2.77 6.69 6.69 0 018-3.68 8.29 8.29 0 011.71.74 2.27 2.27 0 001.55.41c.53 0 1-.07 1-.15a8.14 8.14 0 00-8.08-2.48zM5.37 35.56A10 10 0 013 36.62c-.16.06-.2-.37-.2-1.82v-1.9l1.28 1.28a11.87 11.87 0 011.29 1.38zm18.92.74c0 .07-.42 1.1-.93 2.29l-.91 2.16h-9.14l2.41-2.32 2.41-2.32h3.08a20.75 20.75 0 013.08.19zm23.59 2.21v2.34l-1.38-.05h-1.37l-.8-1.92c-.45-1.06-.87-2.09-.95-2.29l-.14-.36h4.64zM11 38.28a4 4 0 011.29.64c0 .06-1 1.07-2.25 2.23l-2.26 2.12v-1.43c0-.79 0-2.21-.11-3.16L7.57 37l1 .39zm-4.82 2.27c0 1.88.05 3.59.1 3.81l.1.4-.38-.39a23.85 23.85 0 01-2.73-4 2.81 2.81 0 01-.38-1.44c.05-.56.08-.59 1.49-1.17a12 12 0 011.62-.6c.13-.01.18.77.18 3.39zm17.19 2.91c.51 1.23.93 2.26.93 2.29s-3.63 0-8.06 0H8.18l2.38-2.32L13 41.15h9.48zm24.47.06v2.29h-4.59l.88-2.13 1-2.33c.06-.15.44-.2 1.39-.16h1.3zM78.67 43c-2.87.81-4.37 3.41-4.11 7.14.17 2.5.94 4.13 2.41 5.12a6.05 6.05 0 004 1 4.94 4.94 0 002.55-.59c2-1 3-2.72 3.1-5.47.19-3.44-.93-5.79-3.29-6.86a5.46 5.46 0 00-2.43-.47 8.63 8.63 0 00-2.23.13zm25.82 0c-2.86.81-4.36 3.41-4.11 7.14.17 2.5.94 4.13 2.42 5.12a6.05 6.05 0 004 1 5 5 0 002.55-.59c2-1 3-2.72 3.1-5.47.18-3.44-.94-5.79-3.29-6.86a5.46 5.46 0 00-2.43-.47 8.71 8.71 0 00-2.24.13zM4.57 45.24a1.18 1.18 0 01.31.39c.13.23 0 .49-1 1.39l-1.11 1.1v-5.25L3.6 44a9.86 9.86 0 00.97 1.24zm57.11 4.25v6.58h1.6V44.36H70v11.71h1.6V42.92h-9.92zm27.91 0v6.58h1.59v-6.51l3 3.24 3 3.25h2l-1.54-1.68L94.62 51l-1.54-1.68L96 46.17 98.93 43h-.86l-.86-.05-1 1.09c-.58.6-1.93 2-3 3.18l-2 2.08v-6.38h-1.6zm28.16-6.37c0 .11-.18 1.14-.33 2.28a70.94 70.94 0 01-1.38 8c-.39 1.24-.8 1.59-1.76 1.46l-.65-.08.05.66v.67h1.15c1.05 0 1.19 0 1.64-.47.9-.86 1.32-2.46 2-7.55.23-1.68.45-3.21.5-3.41s.13-.36 2.24-.36h2.16v11.75h1.44V42.92h-3.53c-2.63 0-3.49.08-3.53.2zm10.65 6.37v6.58h7.38v-1.28H130v-5h5.45v-1.26H130v-4.17h5.77v-1.44h-7.37zm10.27 0v6.58h1.6V50h6.9v6.09h1.6V42.92h-1.6v5.61h-6.9v-5.61h-1.6zm13.63 0v6.59l.93-.05h.92l3.61-5.33c2-2.93 3.64-5.36 3.69-5.4s.05 2.38 0 5.37l-.06 5.44h1.47V42.92h-1.66l-3.69 5.43-3.68 5.43V42.92h-1.53zm14.12 0v6.58h7.38v-1.28H168v-5h5.46v-1.26H168v-4.17h5.78v-1.44h-7.38zm-84.16-5.1a4.09 4.09 0 012.38 2.35 10.66 10.66 0 01.07 5.32 4.48 4.48 0 01-7.29 1.52 5.64 5.64 0 01-1.21-4.17c0-2.46.74-4 2.19-4.75a5.22 5.22 0 013.86-.27zm25.83 0a4.1 4.1 0 012.37 2.35 10.66 10.66 0 01.08 5.32 3.94 3.94 0 01-4 2.8 3.89 3.89 0 01-3.27-1.28 5.55 5.55 0 01-1.27-4.17c0-2.46.73-4 2.19-4.75a5.22 5.22 0 013.9-.27zm-83 3.26l.6 1.44 1.95.82c1.07.45 2 .86 2.06.92s-5.34.11-12 .11H5.6l-.76-.48a2.32 2.32 0 01-.75-.62 18 18 0 011.85-1.93l1.84-1.79h8.36l8.36.05zm22.76-.77a3.68 3.68 0 01-2 3.56l-.77.5h-7.39l.65-.31c.35-.17 1.29-.58 2.08-.92l1.44-.6.57-1.29c.31-.71.62-1.37.69-1.48s.73-.19 2.41-.16l2.27.05zm-15.53 5l1.44.59 1.5-.6 1.49-.59h7.81l-2.07 1.23c-1.14.67-2.9 1.68-3.91 2.24l-1.85 1H25.45l-11.29.05-2.27-1.23c-2.37-1.29-5.71-3.26-5.71-3.37s5.56-.06 12.35-.06h12.35zm3.21 4.47a108.19 108.19 0 01-10.27 4.77c-.29 0-6.49-2.88-8.74-4l-1.6-.82h10.3c5.67-.07 10.31-.03 10.31.02z" fill="#fff" fill-rule="evenodd" data-name="Layer 1"/></g></svg>