<svg xmlns="http://www.w3.org/2000/svg" viewBox="0 0 116.67 62.06"><defs><style>.cls-1{fill:#fff}</style></defs><g id="Layer_2" data-name="Layer 2"><g id="Layer_1-2" data-name="Layer 1"><path class="cls-1" d="M25.92 48.88l4.44 6.38h.48l4.43-6.38V57h2.61V41.36h-.5l-6.78 9.79-6.77-9.79h-.53V57h2.64zm18.59 8.36a4.7 4.7 0 003.32-8A4.56 4.56 0 0044.51 48a4.68 4.68 0 00-3.32 7.94 4.43 4.43 0 003.32 1.3zm-2.15-4.66a2.15 2.15 0 112.15 2.29 2.16 2.16 0 01-2.15-2.29zm12.81 4.66a4.58 4.58 0 004-2.31L57 53.66a1.93 1.93 0 01-1.87 1.21 2.28 2.28 0 010-4.56A1.93 1.93 0 0157 51.52l2.18-1.27a4.56 4.56 0 00-4-2.29 4.68 4.68 0 00-3.32 7.94 4.43 4.43 0 003.31 1.34zm8.19-6.82h3.49V48.2h-6V57h2.51zm9 6.82a4.7 4.7 0 003.32-8 4.56 4.56 0 00-3.3-1.24 4.68 4.68 0 00-3.33 7.94 4.44 4.44 0 003.33 1.3zm-2.16-4.66a2.15 2.15 0 112.16 2.29 2.16 2.16 0 01-2.14-2.29zm11.1 9.48v-5.13a6 6 0 001.83.31 4.42 4.42 0 003.28-1.36 4.77 4.77 0 001.3-3.41 4.61 4.61 0 00-1.15-3.21A3.72 3.72 0 0083.67 48a3.49 3.49 0 00-2.37.83v-.63h-2.51v13.86zm0-11a2.23 2.23 0 011.7-.75 2.18 2.18 0 012.24 2.25 2.3 2.3 0 01-2.38 2.31 3.74 3.74 0 01-1.51-.33zm10.06 6h2.51v-6.64h2.79V48.2h-8.1v2.22h2.8zm6.17-4.42a4.4 4.4 0 001.39 3.32 4.65 4.65 0 003.43 1.34 4.78 4.78 0 004.09-2.09l-2-1.12a2.16 2.16 0 01-2 .92 2.52 2.52 0 01-2.49-1.6h6.67a3 3 0 00.09-.84 4.62 4.62 0 00-7.86-3.23 4.48 4.48 0 00-1.32 3.24zm4.6-2.33a2.14 2.14 0 012.07 1.45H100a2.19 2.19 0 012.13-1.51zm8.05 6.69l1.7-2.64 1.69 2.64h3.1l-3.25-4.47 3.14-4.33h-3.1l-1.58 2.49-1.59-2.49h-3.08l3.13 4.33L107.1 57z"/><path d="M0 49l21.55-12.35L43.1 24.3 21.65 12.15l-.1-.06L.19 0 .1 24.5zm21.55-36.8v24.45l-10.73-6.08L.1 24.5l10.72-6.15z" fill-rule="evenodd" fill="#fff"/><path class="cls-1" d="M21.55 24.43l-10.73-6.08v12.22z"/></g></g></svg>