<svg xmlns="http://www.w3.org/2000/svg" viewBox="0 0 74.62 65.4"><path class="cls-1" d="M3.86 34.1s12.22 6.75 23.39 2.25a85.88 85.88 0 0010.07-5.12c8.69-4.92 17.83-10.1 32.81-9.87l-.1 8c-12.8-.2-21 4.43-28.76 8.83a92.53 92.53 0 01-11 5.6C15.53 49.66 0 41.11 0 41.08zM21.6 53.64a17.23 17.23 0 016.27 11.65 16.89 16.89 0 01-12.61-3.7A17.23 17.23 0 019 49.94a16.88 16.88 0 0112.6 3.7zm24.34-5a17.06 17.06 0 018.45 10.14 17.1 17.1 0 01-21.57-11.24 17 17 0 0113.12 1.11zM64.35 39a17 17 0 0110.27 8.27 17.12 17.12 0 01-23.37-6.79A17 17 0 0164.35 39zM19.42 23.77a17.08 17.08 0 01-9.89 8.71 16.88 16.88 0 01.72-13.1 17.06 17.06 0 019.89-8.7 16.9 16.9 0 01-.72 13.09zm19.83-4.49A17.14 17.14 0 0129.37 28 16.6 16.6 0 0130 15a17.11 17.11 0 019.88-8.75 16.65 16.65 0 01-.63 13.03zm20.66-6.73a17.28 17.28 0 01-11.72 6.14A16.87 16.87 0 0152 6.13 17.22 17.22 0 0163.75 0a16.88 16.88 0 01-3.84 12.55z" fill="#fff"/></svg>