<svg width="30" height="30" fill="none" xmlns="http://www.w3.org/2000/svg"><path fill-rule="evenodd" clip-rule="evenodd" d="M15 29.25c7.87 0 14.25-6.38 14.25-14.25S22.87.75 15 .75.75 7.13.75 15 7.13 29.25 15 29.25zm0 .75c8.284 0 15-6.716 15-15 0-8.284-6.716-15-15-15C6.716 0 0 6.716 0 15c0 8.284 6.716 15 15 15z" fill="#A69895"/><path fill-rule="evenodd" clip-rule="evenodd" d="M21.5 6.75v4.84h-7.336a.408.408 0 00-.409.408v5.992c0 .225.183.408.409.408H21.5v4.852h-8.994a4.273 4.273 0 01-4.256-4.27v-7.971a4.255 4.255 0 014.26-4.259h8.99zM9 11.009v7.97a3.523 3.523 0 003.51 3.521h8.24v-3.352h-6.586c-.64 0-1.159-.519-1.159-1.158v-5.992c0-.64.52-1.158 1.159-1.158h6.586V7.5h-8.24A3.505 3.505 0 009 11.009z" fill="#A69895"/></svg>