<svg width="61" height="38" fill="none" xmlns="http://www.w3.org/2000/svg"><path d="M15.063 12.988c1.103 0 2.091.375 2.864 1.102l2.13-2.091c-1.293-1.19-2.979-1.929-4.994-1.929a7.476 7.476 0 00-6.667 4.057 7.24 7.24 0 000 6.612l.005-.003a7.441 7.441 0 006.662 4.06c2.015 0 3.714-.65 4.943-1.778 1.407-1.277 2.218-3.168 2.218-5.41a9.74 9.74 0 00-.127-1.502h-7.034v2.83h4.03a3.385 3.385 0 01-1.495 2.241c-.672.451-1.534.702-2.535.702-1.952 0-3.6-1.29-4.183-3.043h-.004a4.36 4.36 0 01-.224-1.403c0-.488.089-.964.228-1.415v-.036c.607-1.722 2.257-2.994 4.183-2.994z" fill="#fff"/><path fill-rule="evenodd" clip-rule="evenodd" d="M28.969 23.91v-5.184h2.75c1.141 0 2.092-.363 2.865-1.09.811-.726 1.204-1.627 1.204-2.717 0-1.064-.406-1.966-1.204-2.704-.786-.74-1.737-1.115-2.865-1.115h-4.423v12.81h1.673zm0-6.762v-4.47h2.788c.66 0 1.217.225 1.648.676.444.438.672.952.672 1.553 0 .614-.228 1.14-.672 1.578-.43.438-.989.663-1.648.663H28.97zm10.659-2.291c1.23 0 2.206.325 2.916.977.71.65 1.064 1.54 1.064 2.68v5.41h-1.597v-1.216h-.076c-.684 1.002-1.61 1.503-2.75 1.503-.976 0-1.8-.288-2.46-.864-.658-.576-.988-1.29-.988-2.154 0-.901.343-1.628 1.04-2.166.697-.539 1.622-.802 2.788-.802.989 0 1.813.176 2.446.539v-.376c0-.576-.228-1.064-.684-1.453a2.377 2.377 0 00-1.61-.6c-.925 0-1.673.388-2.218 1.164l-1.47-.914c.824-1.152 2.015-1.728 3.6-1.728zm-2.154 6.374c0 .425.19.789.557 1.077.368.288.799.425 1.293.425.697 0 1.331-.262 1.876-.763.545-.514.824-1.115.824-1.804-.52-.4-1.242-.613-2.18-.613-.672 0-1.242.162-1.699.488-.443.313-.671.714-.671 1.19z" fill="#fff"/><path d="M52.783 15.14l-5.577 12.635h-1.711l2.066-4.42-3.663-8.215h1.812l2.65 6.311h.037l2.573-6.311h1.813z" fill="#fff"/><path fill-rule="evenodd" clip-rule="evenodd" d="M.098 3.8C.098 1.701 1.82 0 3.944 0h52.308c2.124 0 3.846 1.701 3.846 3.8v30.4c0 2.099-1.722 3.8-3.846 3.8H3.944C1.82 38 .098 36.299.098 34.2V3.8zM3.944.76h52.308c1.699 0 3.076 1.361 3.076 3.04v30.4c0 1.679-1.377 3.04-3.077 3.04H3.944c-1.7 0-3.077-1.361-3.077-3.04V3.8C.867 2.121 2.244.76 3.944.76z" fill="#fff"/></svg>