<svg xmlns="http://www.w3.org/2000/svg" viewBox="0 0 256 198.67"><g data-name="Layer 2"><g data-name="Layer 1"><path fill="#6c6bbd" d="M162.61 141.31H93.39V16.91h69.22v124.4z"/><path d="M97.78 79.12A79 79 0 01128 16.92a79.11 79.11 0 100 124.4 79 79 0 01-30.22-62.2" fill="#d32011"/><path d="M256 79.12a79.12 79.12 0 01-128 62.2 79.12 79.12 0 000-124.4 79.11 79.11 0 01128 62.2" fill="#0099df"/><path d="M186 176.47a9.7 9.7 0 013.26.57l-1.41 4.31a7.37 7.37 0 00-2.86-.53c-3 0-4.48 1.93-4.48 5.4V198H176v-21h4.52v2.55a6.22 6.22 0 015.54-3.07zm-16.89 4.7h-7.47v9.49c0 2.11.75 3.52 3 3.52a8.39 8.39 0 004-1.19l1.32 3.91a10.73 10.73 0 01-5.71 1.63c-5.4 0-7.29-2.9-7.29-7.78v-9.58h-4.27V177h4.27v-6.37h4.61V177h7.47v4.18zm-58.49 4.48c.49-3 2.33-5.1 5.58-5.1 2.94 0 4.84 1.85 5.32 5.1zm15.65 1.85c0-6.55-4.09-11-10-11-6.15 0-10.46 4.48-10.46 11s4.48 11 10.77 11a12.78 12.78 0 008.61-2.94L123 192.2a10 10 0 01-6.11 2.19c-2.94 0-5.62-1.36-6.28-5.14h15.6c0-.57.09-1.14.09-1.75zm20.08-5.14a13.46 13.46 0 00-6.55-1.81c-2.5 0-4 .93-4 2.47s1.58 1.8 3.56 2.06l2.15.3c4.57.67 7.34 2.6 7.34 6.29 0 4-3.51 6.86-9.58 6.86a15.15 15.15 0 01-9.1-2.73l2.16-3.56a11.19 11.19 0 007 2.2c3.12 0 4.79-.92 4.79-2.55 0-1.18-1.19-1.85-3.69-2.19l-2.16-.31c-4.7-.67-7.25-2.77-7.25-6.2 0-4.17 3.43-6.72 8.75-6.72a15.74 15.74 0 018.56 2.19l-2 3.7zm56.36-1.55a6.86 6.86 0 00-2.62.49 6.31 6.31 0 00-2.1 1.39 6.42 6.42 0 00-1.38 2.14 7.62 7.62 0 000 5.48 6.17 6.17 0 003.48 3.53 7.25 7.25 0 005.24 0 6.28 6.28 0 003.5-3.53 7.62 7.62 0 000-5.48 6.28 6.28 0 00-3.5-3.53 6.86 6.86 0 00-2.62-.49zm0-4.34a11.74 11.74 0 014.52.85 11.05 11.05 0 013.61 2.33 10.67 10.67 0 012.37 3.51 11.71 11.71 0 010 8.81 10.71 10.71 0 01-2.37 3.52 11.05 11.05 0 01-3.61 2.33 12.47 12.47 0 01-9 0 10.86 10.86 0 01-3.59-2.33 11 11 0 01-2.37-3.52 11.71 11.71 0 010-8.81 11 11 0 012.37-3.51 10.86 10.86 0 013.59-2.33 11.82 11.82 0 014.53-.85zM84 187.5c0-3.69 2.42-6.73 6.37-6.73 3.78 0 6.33 2.9 6.33 6.73s-2.55 6.72-6.33 6.72c-3.95 0-6.37-3-6.37-6.72zm17 0V177h-4.61v2.55a8 8 0 00-6.64-3.07c-5.89 0-10.5 4.61-10.5 11s4.61 11 10.5 11a8 8 0 006.64-3.08v2.6H101zM75.21 198v-13.18c0-5-3.17-8.31-8.26-8.35a8.14 8.14 0 00-7.39 3.73 7.71 7.71 0 00-6.94-3.73 6.94 6.94 0 00-6.15 3.12V177H41.9v21h4.61v-11.64c0-3.65 2-5.59 5.14-5.59s4.57 2 4.57 5.54V198h4.62v-11.64c0-3.65 2.11-5.59 5.14-5.59s4.61 2 4.61 5.54V198z" fill="#fff"/></g></g></svg>