<svg xmlns="http://www.w3.org/2000/svg" viewBox="0 0 255.75 198.45"><g data-name="Layer 2"><g data-name="Layer 1"><path d="M46.54 198v-13.16c0-5.05-3.07-8.34-8.34-8.34a8.68 8.68 0 00-7.47 3.73 7.67 7.67 0 00-7-3.73 7.1 7.1 0 00-6.15 3.07v-2.63H13V198h4.61v-11.62c0-3.74 2-5.49 5.05-5.49s4.61 2 4.61 5.49V198h4.61v-11.62c0-3.74 2.2-5.49 5.05-5.49 3.07 0 4.61 2 4.61 5.49V198zm68.27-21.07h-7.46v-6.37h-4.61v6.37h-4.17v4.17h4.17v9.66c0 4.83 2 7.68 7.24 7.68a12.26 12.26 0 005.71-1.54l-1.32-3.9a7.19 7.19 0 01-4 1.1c-2.19 0-3.07-1.32-3.07-3.51v-9.44h7.46v-4.17zm39.08-.44a6.2 6.2 0 00-5.49 3.07v-2.63h-4.61V198h4.61v-11.84c0-3.52 1.54-5.49 4.39-5.49a12.79 12.79 0 012.85.44l1.32-4.39a14.48 14.48 0 00-3.07-.22zm-59.06 2.19a15.09 15.09 0 00-8.56-2.19c-5.27 0-8.78 2.63-8.78 6.8 0 3.52 2.64 5.49 7.25 6.15l2.19.22c2.42.44 3.73 1.1 3.73 2.19 0 1.54-1.75 2.64-4.83 2.64a12.1 12.1 0 01-7-2.2l-2.2 3.52a15.58 15.58 0 009 2.63c6.15 0 9.66-2.85 9.66-6.8 0-3.74-2.85-5.71-7.24-6.37l-2.2-.22c-2-.22-3.51-.66-3.51-2 0-1.53 1.54-2.41 4-2.41a15.81 15.81 0 016.59 1.76l2-3.74zm122.5-2.19a6.21 6.21 0 00-5.49 3.07v-2.63h-4.61V198h4.61v-11.84c0-3.52 1.54-5.49 4.39-5.49a12.88 12.88 0 012.86.44l1.31-4.39a14.43 14.43 0 00-3.07-.22zm-58.83 11c0 6.37 4.39 11 11.19 11a11 11 0 007.47-2.41L175 192.3a8.84 8.84 0 01-5.49 2c-3.73 0-6.36-2.63-6.36-6.81a6.47 6.47 0 016.36-6.8 8.89 8.89 0 015.49 2l2.2-3.73a11 11 0 00-7.47-2.41c-6.8 0-11.19 4.61-11.19 11zm42.58 0v-10.55h-4.61v2.63a7.93 7.93 0 00-6.58-3.07c-5.93 0-10.54 4.61-10.54 11s4.61 11 10.54 11c3.07 0 5.27-1.1 6.58-3.07V198h4.61zm-16.9 0c0-3.73 2.42-6.8 6.37-6.8 3.73 0 6.36 2.85 6.36 6.8 0 3.74-2.63 6.81-6.36 6.81a6.47 6.47 0 01-6.37-6.81zm-55.1-11c-6.15 0-10.54 4.39-10.54 11s4.39 11 10.76 11a13.45 13.45 0 008.56-2.85l-2.19-3.3a10.51 10.51 0 01-6.15 2.2c-2.85 0-5.71-1.32-6.37-5.05h15.59v-1.76c.22-6.8-3.73-11.19-9.66-11.19zm0 3.95c2.85 0 4.83 1.76 5.27 5.05h-11a5.56 5.56 0 015.71-5.05zm114.37 7V168.6h-4.61v11a7.93 7.93 0 00-6.58-3.07c-5.93 0-10.54 4.61-10.54 11s4.61 11 10.54 11c3.07 0 5.27-1.1 6.58-3.07V198h4.61zm-16.9 0c0-3.73 2.41-6.8 6.37-6.8 3.73 0 6.36 2.85 6.36 6.8 0 3.74-2.63 6.81-6.36 6.81a6.46 6.46 0 01-6.37-6.81zm-154.11 0v-10.5h-4.61v2.63a7.93 7.93 0 00-6.58-3.07c-5.93 0-10.54 4.61-10.54 11s4.61 11 10.54 11c3.07 0 5.27-1.1 6.58-3.07V198h4.61zm-17.12 0c0-3.73 2.42-6.8 6.37-6.8 3.73 0 6.36 2.85 6.36 6.8 0 3.74-2.63 6.81-6.36 6.81a6.47 6.47 0 01-6.37-6.78z" fill="#fff"/><path fill="#ff5f00" d="M93.3 16.9h69.15v124.25H93.3z"/><path d="M97.69 79a79.24 79.24 0 0130.07-62.1A79 79 0 1079 158.06a78.52 78.52 0 0048.73-16.91A78.89 78.89 0 0197.69 79z" fill="#eb001b"/><path d="M255.75 79A78.94 78.94 0 01128 141.15a79.19 79.19 0 000-124.25A79 79 0 01255.75 79z" fill="#f79e1b"/></g></g></svg>