<svg xmlns="http://www.w3.org/2000/svg" viewBox="0 0 285.17 80.44"><g data-name="Layer 2"><path d="M158.77 8.5l-18 39h-1.83V0h-25.6v80.43h21.72a14.59 14.59 0 0013.27-8.49l18-39h1.83v47.49h25.59V0h-21.7a14.65 14.65 0 00-13.28 8.5m-96.01 2.07l-10.66 37h-1.83l-10.66-37A14.62 14.62 0 0025.61 0H0v80.44h25.59V32.91h1.83L42 80.44h18.33L75 32.91h1.83v47.53h25.59V0H76.81a14.63 14.63 0 00-14.05 10.57m141.98 25.99v43.88h25.54V54.83h27.47a27.41 27.41 0 0025.83-18.29zM257.75 0h-56.67a40.23 40.23 0 0013.82 23.6 40.25 40.25 0 0025.72 9.31h44A27.43 27.43 0 00257.75 0" fill="#fff" data-name="Layer 1"/></g></svg>