<svg width="327" height="98" fill="none" xmlns="http://www.w3.org/2000/svg"><path d="M152.268 64.01l-3.784-.078-.053 8.023 3.784.078.053-8.023zm4.322.05l-3.783-.078-.053 8.023 3.784.079.052-8.024zm14.547.17l-3.783-.079-.053 8.024 3.784.078.052-8.023zm-4.322-.05l-3.784-.079-.052 8.023 3.783.079.053-8.024z" fill="#3D332D"/><path fill-rule="evenodd" clip-rule="evenodd" d="M190.036 62.903l2.771-2.647-30.911-31.288-1.657-1.673-1.595 1.524-35.615-.735-31.813 30.075 3.086.064-.162 32.911 37.2.768 56.05 1.156.003-8.657.157-24.008 2.486 2.51zm-80.392 9.158l-9.259-.19.058-8.768 9.258.19-.057 8.768zm14.596.302l-9.342-.193.058-8.768 9.258.191-.057 8.768.083.002zm32.95.106l-9.258-.191.057-8.768 9.258.191-.057 8.768zm5.396-8.657l9.258.19-.058 8.768-9.258-.19.058-8.768z" fill="#3D332D"/><path d="M104.796 64.039l-3.784-.079-.052 8.024 3.783.078.053-8.023zm18.869.22l-3.783-.079-.053 8.024 3.784.078.052-8.023zm-14.464-.169l-3.783-.079-.053 8.024 3.784.078.052-8.023zm10.142.118l-3.784-.078-.052 8.023 3.783.078.053-8.023z" fill="#3D332D"/><path fill-rule="evenodd" clip-rule="evenodd" d="M327 69.246l-4.771-7.713h1.645l-4.606-8.551 2.139-.168-3.619-6.706 1.974-.168-4.935-6.371 2.632-.336-4.935-8.215 1.645-.168-3.948-7.377 2.303-.168-4.442-6.203 2.632-.168-4.935-6.204 1.974-.167L301.996 0l-4.113 11.569 2.139-.336-3.948 6.875 2.632-.168-3.29 7.042 2.303-.335-2.468 7.88h1.645l-3.619 8.886 2.632-.167-3.783 7.041h1.974l-2.468 7.21 2.139-.168-2.961 9.054 1.645-.167L289 72.599l16.121-1.342.494 12.743 3.125-.335 3.126-.336-1.81-12.575L327 69.246z" fill="#3D332D"/><path d="M236.464 81.813c4.19-.53 8.388-1.028 12.578-1.558 1.156-.15 2.32-.27 3.45-.515 1.745-.362 3.452-.982 5.23-.986-.71-5.328-1.45-10.649-2.22-15.962-.025-.094-.021-.195-.098-.243-.086-.079-.216-.08-.346-.081-2.943.356-5.908.752-8.852 1.109.069 2.384.167 4.761.236 7.145-.014.07.012.164-.032.242-.043.077-.165.107-.256.13-2.494.579-5.044 1.073-7.653 1.114-2.609.04-5.246-.378-7.607-1.565-.411-.2-.838-.46-1.109-.861-.288-.463-.281-1.032-.305-1.593-.03-2.127-.259-4.271-.831-6.365-.111-.407-.221-.813-.527-1.105-.306-.291-1.565-.282-1.8.043l.429 7.264c-4.821.352-8.188.813-12.933 1.68-.676.132-1.36.234-1.984.554-.594.313-1.128.844-1.261 1.544l-1.564.551.736 4.121c.026.094.043.157.09.212.164.126.416-.136.58-.01.078.048.103.142.099.243.455 2.856.911 5.713 1.358 8.537 1.472-.295 2.983-.566 4.455-.861 3.317-.65 6.633-1.298 10.022-1.564 3.349-.29 6.741-.19 9.984-.987" fill="#3D332D"/><path d="M236.668 82.558c3.505-.429 6.98-.85 10.485-1.278 3.535-.435 7.039-1.463 10.578-1.766.35-.02.793-.295.734-.747-.353-2.714-.744-5.451-1.135-8.189-.353-2.48-.335-5.851-1.243-8.228-.098-.243-.266-.502-.534-.536-2.891-.523-6.703.681-9.584 1.023-.312.043-.569.406-.553.702.059 1.52.666 4.337.202 5.718-.748 2.117-4.048 1.995-5.86 2.107-1.843.12-3.707.044-5.535-.373-2.45-.565-3.488-1.643-4.062-4.102-.566-2.428-.039-8.558-4.216-6.798-.234.09-.378.393-.37.658.146 2.43.283 4.83.429 7.262.252-.262.482-.486.734-.748-4.18.328-8.316.811-12.415 1.552-1.23.236-2.415.394-3.392 1.2-.902.722-.883 1.15-2.091 1.581-.416.136-.581.476-.523.929.271 1.466.29 3.195.947 4.534.09.211.4.402.66.405.16-.006 1.203 7.371 1.355 8.167.081.414.56.63.932.571 4.303-.824 8.571-1.773 12.929-2.278 3.864-.416 7.735-.334 11.527-1.133.918-.192.517-1.66-.401-1.468-5.627 1.183-11.509.962-17.179 1.989-1.783.338-5.405 1.762-6.607.557-1.146-1.118-.638-6.01-1.345-7.537-.09-.21-.401-.401-.66-.404-.32.012-.502-2.077-.449-2.356-.181-.19-.362-.378-.504-.543.173-.076.355-.121.528-.197-.108.194 2.516-1.685 2.112-1.386 3.345-2.555 10.464-2.305 14.613-2.625.381-.027.762-.287.734-.747-.111-1.473-.183-2.922-.255-4.371-.033-.359-.376-2.208-.15-2.563.227-.356.993 1.622 1.129 2.122.397 1.336.395 2.87.481 4.25.278 4.931 5.696 5.466 9.792 5.426 2.028-.032 6.699.02 8.158-1.272 1.28-1.114.231-3.657.384-5.228.245-2.66 1.411-2.413 3.791-2.698.814-.1 1.714-.122 2.532-.323 1.758-.432 1.075-.564 1.622.968.621 1.681.581 4.025.838 5.795l1.159 8.516c.252-.262.482-.485.734-.747-3.219.29-6.358 1.23-9.582 1.622-3.938.5-7.915.978-11.862 1.448-.956.169-.517 1.66.388 1.539z" fill="#3D332D"/><path d="M210.659 80.108c-1.46.424-2.72 1.46-3.684 2.755-.277.399-.584.805-.714 1.267-.118.392-.158.832-.207 1.241-.153 1.79-.311 3.682.293 5.42.68 2.016 2.304 3.602 4.119 4.712.541.33 1.065.6 1.684.745.511.107 1.027.112 1.543.118.774.009 1.54-.013 2.314-.004.516.005 1.062.004 1.519-.207.556-.203.975-.67 1.466-.988.686-.433 1.491-.663 2.121-1.181.63-.519.994-1.302 1.328-2.079.807-1.984 1.366-4.172.789-6.28-.263-.96-.736-1.87-1.305-2.657-.309-.42-.608-.81-.99-1.147-.536-.43-1.18-.67-1.794-.916-1.366-.525-2.618-1.343-4.054-1.421-1.359-.031-2.586.303-4.428.622z" fill="#3D332D"/><path d="M210.283 79.44c-5.091 2.076-6.949 8.683-3.583 13.581 2.781 4.05 8.345 5.464 12.32 3.068 2.349-1.403 3.63-2.246 4.53-4.948.796-2.378.944-4.895-.247-7.25-2.489-4.98-8.259-5.385-12.847-4.526-.921.16-.514 1.648.398 1.458 3.306-.612 7.375-.782 10.083 2.06 3.427 3.593 1.565 9.011-1.79 11.322-2.893 2-7.104 2.006-9.886-.521-4.338-3.866-3.227-10.853 1.774-12.906.862-.376.088-1.675-.752-1.337zm27.509-7.15a26.924 26.924 0 00-1.095 7.738c.014.757.028 1.514.232 2.257.224.937.689 1.814 1.206 2.646 1.717 2.753 4.093 5.211 7.089 6.295a11.65 11.65 0 002.245.574c2.195.388 4.438.367 6.559-.22 2.083-.609 4.034-1.814 5.317-3.583.562-.766.977-1.595 1.355-2.448.585-1.267 1.054-2.605 1.287-3.984.501-2.866-.029-5.976-1.454-8.601-1.426-2.626-3.777-4.76-6.471-5.918a11.006 11.006 0 00-2.86-.82c-.966-.126-1.937-.153-2.9-.148-1.092.003-2.213.013-3.267.272-1.076.296-2.053.833-3.023 1.401-1.766 1.061-3.67 2.321-4.202 4.369" fill="#3D332D"/><path d="M237.087 72.065c-.964 3.641-1.983 8.254-.299 11.94 1.423 3.089 4.21 6.108 7.26 7.51 7.139 3.307 15.032.447 17.797-6.709 2.7-7.041-.302-15.429-7.592-18.468-5.879-2.46-14.713-.692-17.131 5.62-.339.876 1.099 1.317 1.438.44 2.214-5.765 11.089-6.915 16.133-4.218 6.292 3.384 8.115 10.87 5.359 17-2.736 6.09-10.543 7.971-16.414 4.485-2.337-1.378-4.408-3.78-5.49-6.324-1.418-3.42-.607-7.387.317-10.82.291-.931-1.117-1.38-1.378-.456zm-25.978 13.789a8.408 8.408 0 00-.332 2.428c-.001.232-.002.464.066.712.076.278.221.573.388.83.525.863 1.283 1.636 2.21 1.97.215.08.46.153.726.187a4.368 4.368 0 002.068-.078c.654-.193 1.257-.572 1.68-1.139a5.66 5.66 0 00.433-.767c.178-.407.325-.807.396-1.254.171-.901-.001-1.884-.45-2.7-.448-.815-1.18-1.495-2.047-1.845-.292-.127-.575-.222-.902-.242-.305-.057-.593-.053-.911-.04a3.82 3.82 0 00-1.036.088c-.331.081-.637.255-.943.43-.551.333-1.146.743-1.325 1.382" fill="#3D332D"/><path d="M210.383 85.668c-.685 2.548-.36 5.145 2.222 6.595 2.389 1.332 5.387.431 6.424-2.004 1.014-2.397.196-5.27-2.236-6.525-2.093-1.074-5.352-.54-6.302 1.743-.369.883.935 1.654 1.273.778.651-1.614 3.029-1.965 4.5-1.169 1.741.962 2.145 3.144 1.305 4.77-.905 1.743-3.385 1.954-4.863.663-1.439-1.267-1.3-2.755-.855-4.417.222-.947-1.216-1.388-1.468-.434z" fill="#3D332D"/><path d="M214.002 86.566c-.271.067-.479.25-.669.495l-.13.23-.039.208c-.036.34-.05.64.043.982.132.365.406.661.745.843.078.047.194.118.292.127.099.009.198.017.267.034.129.001.288-.005.417-.004.099.01.189-.013.28-.035.09-.022.164-.106.276-.167.112-.06.254-.128.396-.196a.884.884 0 00.225-.353c.126-.362.244-.754.142-1.126a1.391 1.391 0 00-.226-.474.546.546 0 00-.18-.188.707.707 0 00-.331-.15c-.253-.103-.485-.245-.712-.255-.245-.073-.486-.014-.796.03z" fill="#3D332D"/><path d="M213.604 85.937c-1.124.474-1.538 1.898-.975 3.016.547 1.057 1.899 1.651 2.954 1.161 1.085-.497 1.748-1.718 1.25-2.951-.516-1.296-1.895-1.52-3.057-1.302-.92.16-.513 1.647.399 1.457.37-.058.8-.13 1.126.12.459.384.108 1.099-.336 1.24-.977.306-1.548-1.075-.596-1.474.878-.314.096-1.644-.765-1.267zm18.098-15.117c.774-.82 1.423-1.74 1.995-2.708.572-.968 1.441-1.678 1.944-2.662.447-.838-.868-1.642-1.276-.78-.438.869-1.255 1.532-1.77 2.354-.572.968-1.161 1.874-1.935 2.693-.671.728.393 1.792 1.042 1.103zm14.974 3.055c-.947.299-1.792.97-2.406 1.781-.19.245-.372.521-.477.844-.091.254-.113.525-.136.795-.095 1.18-.211 2.4.202 3.556.455 1.31 1.517 2.373 2.706 3.074.347.213.717.387 1.099.492.344.081.662.07 1.019.08.516.007.994-.011 1.51-.005.348-.02.675 0 .998-.113.345-.15.655-.425.953-.63.44-.273.973-.437 1.396-.772.423-.335.666-.858.857-1.335.517-1.284.892-2.732.519-4.096-.17-.62-.49-1.203-.862-1.74-.206-.281-.403-.53-.651-.734-.335-.282-.764-.442-1.164-.608-.897-.343-1.717-.87-2.667-.934-.89-.08-1.703.12-2.896.345z" fill="#3D332D"/><path d="M246.271 73.216c-3.472 1.413-4.676 5.942-2.426 9.228 1.886 2.78 5.684 3.734 8.421 2.104 1.574-.948 2.466-1.564 3.088-3.403.553-1.624.632-3.33-.196-4.947-1.69-3.356-5.568-3.663-8.693-3.096-.921.16-.514 1.648.399 1.457 2.143-.393 4.561-.49 6.364 1.285 2.194 2.142.869 5.642-1.132 7.025-1.785 1.232-4.409 1.28-6.162-.309-2.726-2.441-2.017-6.783 1.141-8.053.84-.338.066-1.637-.804-1.291z" fill="#3D332D"/><path d="M247.355 77.877c-.14.431-.18.87-.182 1.334.004.131.008.263.042.387.042.155.115.302.217.442.287.459.693.888 1.23 1.087.137.033.245.073.382.105.374.074.76.078 1.113-.041a1.61 1.61 0 00.923-.623 1.77 1.77 0 00.238-.422c.099-.223.169-.438.23-.685a2.2 2.2 0 00-.239-1.462 2.45 2.45 0 00-1.114-1.016 2.033 2.033 0 00-.49-.145c-.167-.025-.326-.019-.485-.013-.189.014-.387-.004-.568.04-.18.044-.344.15-.516.226-.366.189-.694.401-.781.786z" fill="#3D332D"/><path d="M246.651 77.654c-.418 1.524-.175 3.117 1.382 3.991 1.44.804 3.32.277 3.945-1.198.624-1.475.141-3.24-1.36-4.03-1.278-.678-3.308-.346-3.889 1.052-.368.884.935 1.655 1.274.779.694-1.69 3.511-.2 2.563 1.62-.402.76-1.468.855-2.137.292-.698-.556-.583-1.312-.37-2.058.261-.923-1.177-1.364-1.408-.448zm-14.794-14.342c1.825 1.63 3.757 3.07 5.69 4.51.774.602 1.477-.692.712-1.264-1.825-1.4-3.672-2.76-5.373-4.29-.714-.617-1.751.396-1.029 1.044zm21.288-1.385c-.401-1.475-3.116-12.18-.709-12.414.924-.097.926-1.606.002-1.509-1.817.187-2.251 1.508-2.284 3.253-.054 3.653.667 7.474 1.625 11.008.191.936 1.616.584 1.366-.338z" fill="#3D332D"/><path d="M250.848 54.061c-.558.17-.888.712-.984 1.294-.096.582.033 1.174.125 1.743.121.562.204 1.1.325 1.661.125.692.343 1.492.946 1.837.421.258.953.225 1.4.115.209-.051.418-.103.533-.262.137-.198.168-.436.161-.697a16.992 16.992 0 00-.575-4.326c-.142-.524-.361-1.094-.833-1.306-.327-.15-.685-.062-1.043.026" fill="#3D332D"/><path d="M250.443 53.4c-1.932.87-1.331 3.188-.988 4.913.368 1.817 1.066 3.553 3.192 3.162 2.119-.422 1.421-3.21 1.142-4.819-.317-1.862-.899-3.759-3.09-3.253-.905.19-.501 1.669.396 1.448 1.234-.27 1.314 2.243 1.371 2.92.087.669.427 2.032-.312 2.247-1.068.295-1.206-1.611-1.344-2.235-.201-.97-.758-2.544.379-3.053.876-.413.109-1.705-.746-1.33zm-33.955 23.189c.462-1.233.681-2.538.635-3.876-.043-.977-1.492-1.016-1.487-.063a8.753 8.753 0 01-.586 3.469c-.32.934 1.101 1.342 1.438.47zm3.121-.448c.437-1.554.64-3.15.57-4.81-.043-.976-1.52-1.008-1.485-.063.067 1.53-.11 2.987-.551 4.411-.221.942 1.198 1.35 1.466.462zm2.818.183a13.23 13.23 0 00.496-4.725c-.073-.969-1.518-1.008-1.484-.063.088 1.49-.058 2.94-.439 4.35-.26.918 1.159 1.326 1.427.438z" fill="#3D332D"/><ellipse opacity=".1" cx="40.357" cy="86.079" rx="40.106" ry="5.311" transform="rotate(3.535 40.357 86.079)" fill="#3D332D"/><path d="M63.222 61.421c-.407 6.342-.748 13.129-1.157 19.486-.064 1.034-.127 2.068-.254 3.098-.09.686-.212 1.401-.593 1.975-.38.574-1.082 1.003-1.764.85-.557-.128-.968-.594-1.17-1.125-.203-.532-.23-1.1-.243-1.666-.066-3.761.293-7.528.666-11.279-.575 1.16-2.056 1.509-3.347 1.57a17.57 17.57 0 01-3.74-.2c.194 1.946-.038 3.913-.268 5.864-.158 1.28-.3 2.576-.458 3.855-.124.998-.386 2.177-1.317 2.513-.819.295-1.74-.296-2.131-1.075-.392-.78-.383-1.69-.36-2.57l.187-9.122c-4.114-.239-5.506-.325-9.62-.563-.563-.035-1.126-.07-1.648-.26-.154-.056-.338-.13-.483-.06-.195.098-.227.363-.225.583a94.813 94.813 0 01-.418 10.335c-.036.328-.073.671-.247.944-.416.634-1.311.642-2.06.564-.25-.015-.5-.046-.712-.17-.424-.246-.595-.791-.643-1.281-.264-3.35-.22-6.617.31-10.09.055-.39.175-.807.024-1.162l-1.06-.38-2.658-.164c-.094-.006-.188-.012-.27.046-.05.044-.085.105-.12.15-.123.228-.247.456-.37.669.405.04.904.103 1.269.298.516.284.606.604.548.789-.076.2-.343.466-.842.404-.25-.032-.811-.082-1.415-.465-.282.234-.3.28-.582.514-.05.044-.282.25-.286.313-.005.078.038.143.081.209.246.345.488.753.556 1.166.025.112-.065.295-.131.354-.05.044-.234-.03-.312-.035-.564-.02-1.046-.6-.965-1.16a2.808 2.808 0 01-1.348.215c.04.38.006.928-.111 1.298-.172.493-.704.46-.97.192-.296-.286-.084-.917-.106-1.327-.012-.064-.023-.143-.067-.193-.044-.034-.107-.038-.169-.058-.203-.012-.405-.04-.609-.053l-.804 7.685c-.037.344-.092.718-.328.986-.135.149-.33.247-.537.313a3.289 3.289 0 01-1.236.175 1.748 1.748 0 01-.787-.222c-.649-.417-.687-1.331-.67-2.1l.13-3.64c.03-.737.06-1.49.137-2.224.071-.64.188-1.262.275-1.9.222-1.56.335-3.14.323-4.729 0 0 .795-10.83 1.139-16.39.343-5.56 2.163-6.297 2.163-6.297-3.036-.675-6.363.079-8.821 2.002-2.458 1.924-4.012 4.956-4.11 8.079-.016.77.044 1.575.409 2.273.28.536.71.956 1.023 1.478.897 1.486.531 3.602-.808 4.698-.215.176-.476.333-.741.3-.25-.015-.46-.185-.639-.338-.956-.782-2.012-1.728-2.045-2.972-.043-1.087.723-2.046.899-3.12.146-.84-.068-1.702-.173-2.542-.501-4.59 2.843-8.911 6.971-10.936 4.129-2.024 8.914-2.232 13.527-2.183 7.97.084 15.934.765 23.815 2.038a10.861 10.861 0 01-4.604-3.995c-.272-.426-.715-1.13-.699-1.647.015-1.005 1.22-1.45 2.165-1.753 2.37-.75 5.111-.14 6.939 1.53.466-.176.947-.335 1.413-.51a5.78 5.78 0 01-.788-3.508c.115.935.952 1.615 1.787 2.075 4.125 2.346 9.586 2.133 13.505-.564-.113 1.313-.71 2.581-1.675 3.48.901.402 1.904-.07 2.848-.358 2.56-.77 5.509.026 7.336 1.963 0 0 .647 4.269-6.368 4.464-.188.004-.388-.055-.566.028-.195.098-.301.296-.392.495l-3.4 9.05c.557.883.794 2.376.39 3.341-.406.966-1.422 1.406-2.441 1.642-.574.137-1.154.117-1.733.097-2.914-.102-5.827-.219-8.697-.773-.404-.072-.837-.178-1.116-.478-.25-.267-.533-.52-.717-.846-.156-.277-.182-.624-.322-.9a1.871 1.871 0 01-.003-1.73c.196-.365.496-.661.615-1.047.118-.386.019-.816-.082-1.215-.745-2.94-1.76-5.832-2.044-8.852" fill="#3D332D"/><path d="M63.785 61.456c-.312 5.059-.594 10.135-.891 15.195-.151 2.443-.135 4.975-.52 7.389-.152.95-.306 1.914-1.025 2.625-1.272 1.273-2.982.743-3.621-.853-.694-1.725-.262-4.15-.168-5.922.117-2.398.359-4.788.6-7.163.338.115.692.231 1.03.346-.69.996-1.535 1.462-2.711 1.704-.684.13-1.391.15-2.082.154-1.727.004-1.882-.54-2.131 1.205-.312 2.245-.391 4.55-.687 6.796-.144 1.06-.165 2.663-1.031 3.474-1.614 1.473-3.497-.059-3.924-1.799-.45-1.851-.064-4.044-.025-5.944.014-.738.498-3.491.078-4.051-.61-.808-1.819-.553-2.726-.61-2.111-.13-4.261-.137-6.35-.376-.157-.01-1.741-.28-1.741-.28-.278.171-.023 3.677-.036 4.132-.063 2.04.238 4.794-.46 6.685-.248.708-.412 1.075-1.171 1.421-3.05 1.337-3.58-1.777-3.667-3.92-.092-2.318-.099-4.755.295-7.057.225-1.354.619-1.377-.35-1.956-.863-.525-2.523-.329-2.931.432-.14-.291-.294-.584-.433-.875 1.043.143 3.477 1.158 1.828 2.424-.741.567-1.892-.369-2.37-.005-.379.29.058-.17.164.654.108.793.326.57.047 1.261-.091.215-.324.42-.572.373-1.06-.128-1.627-.603-1.782-1.65.227.14.453.295.664.434-1.183.351-.769 1.006-1.648 1.769a.55.55 0 01-.556.107c-1.075-.381-.36-.793-1.055-1.229.152.088.084.43.09 1.106.016 1.26-.27 2.594-.41 3.843-.196 1.89-.194 3.635-2.549 3.631-2.323-.002-2.308-2.03-2.259-3.834.114-3.876.633-7.712.841-11.582.223-4.373.635-8.75.937-13.133.174-2.552-.283-8.633 2.677-10.038.072.35.144.717.216 1.067-5.264-.938-10.475 1.852-11.967 7.184-.645 2.319-.162 3.638.92 5.686.155.292.34.602.446.923.31 1.088.235 2.294-.299 3.315-1.335 2.559-3.464 1.688-4.777-.437-.557-.899-.667-1.66-.477-2.702.174-.524.362-1.031.582-1.536.22-1.024.235-2.03.046-3.032-.002-.723-.07-1.419.023-2.152.922-7.553 8.806-10.901 15.451-11.481 9.72-.8 19.867.394 29.428 1.912-.115.339-.231.693-.346 1.032-1.827-.93-7.44-4.862-4.91-7.441.972-.993 2.858-1.285 4.162-1.3 1.947-.005 4.4 1.97 6.038 1.38-.078.247-.173.508-.251.755-.628-1.265-.872-2.397-.848-3.81.011-.691.935-.65 1.12-.088.833 2.535 5.03 3.204 7.257 3.247 2.617.083 5.02-.696 7.21-2.086.342-.215.886.133.814.538-.238 1.557-.812 2.716-1.872 3.862-.12-.338-.226-.659-.346-.997 2.083.334 3.995-.885 6.154-.515 1.212.2 3.83 1.022 4.426 2.317.4.89-.003 2.075-.506 2.846-.555.846-1.423 1.437-2.343 1.836-1.145.495-3.07.156-3.985.728-1.423.919-2.074 4.604-2.675 6.202-.3.768-1.05 1.995-1.07 2.827-.015.754.736 1.806.498 2.86-.769 3.553-5.587 2.768-8.183 2.608-2.925-.18-7.14.188-8.085-3.314-.486-1.79.615-3.09.291-4.965-.462-2.67-1.47-5.17-1.79-7.877-.08-.713 1.018-.96 1.114-.23.215 1.852.623 3.638 1.109 5.43.346 1.263 1.095 2.85 1.06 4.184-.037 1.365-1.19 2.489-.368 3.923.993 1.712 4.925 1.594 6.74 1.706 2.971.183 6.862.99 6.734-3.546-.014-.535-.258-.66-.195-1.16.165-1.405 1.146-3.058 1.65-4.363.528-1.414.926-3.04 1.652-4.363.886-1.643 2.096-.892 3.897-1.331 1.225-.27 4.038-1.574 3.504-3.352-.378-1.25-3.275-1.885-4.464-1.943-1.848-.083-3.385.923-5.22.637-.513-.08-.684-.624-.347-.996a4.859 4.859 0 001.494-3.084c.271.174.542.364.814.538-2.942 1.877-6.412 2.654-9.875 2.03-2.39-.43-5.391-1.417-6.209-3.936.378-.024.741-.048 1.12-.088a5.088 5.088 0 00.727 3.22c.127.245.038.663-.25.756-.562.2-1.246.599-1.855.546-.312-.035-1.114-.777-1.434-.938-.941-.514-1.787-.802-2.914-.856-2.004-.093-4.307.598-3.306 2.94.698 1.662 2.817 2.941 4.354 3.728.503.25.182 1.127-.346 1.032-8.193-1.308-16.498-2.057-24.804-2.052-7.41.014-18.968 2.083-18.955 11.784.01 1.353.408 2.556.074 3.888-.352 1.377-1.209 3.808.534 4.576.873 1.108 1.645.558 2.299-1.634-.295-.82-.575-1.624-.87-2.444-1.092-2.394-1.321-4.279-.359-6.892 1.976-5.302 7.377-8.097 12.843-7.13.512.094.782.803.217 1.066-2.28 1.07-1.883 6.33-2.01 8.382-.234 3.538-.485 7.092-.75 10.628-.195 2.645-.234 5.3-.568 7.92-.18 1.388-.342 2.73-.412 4.125-.032.769-.499 2.988-.13 3.64 1.87 1.483 2.708 1.393 2.53-.3l.23-2.202.46-4.39c.034-.296.285-.564.597-.529.672.057.714.139 1.203.358.29.127.251 2.027.232.313.004-.33.314-.516.598-.53l1.19-.209c.287-.076.619.148.664.434-.18.115-.27.062-.29-.143-.067-.178-.1-.4.035-.564.288-.344.62-.638.968-.931.134-.133.373-.197.556-.107l.232.061c-.451-.059-.644-.495-.433-.875 1.011-1.872 3.354-1.177 5.137-.548.169.058.347.226.366.416.318 2.991-1.324 6.443-.456 9.42-.233 1.48.655 2.1 2.648 1.862.037-.344.058-.688.095-1.032.243-.88.167-2.19.207-3.1.102-1.896 0-3.805.116-5.684.106-1.723.573-1.647 2.192-1.421 3.41.462 6.925.475 10.366.688.313.019.53.3.528.598-.042 1.696-.067 3.376-.11 5.072-.014 1.005-.046 2.025-.062 3.046l-.016 1.02c-.445 1.608.014 2.061 1.378 1.328 1.734-.365 1.34-.61 1.533-2.2l.291-2.42c.206-1.81.33-3.564.207-5.38-.014-.283.317-.562.598-.529 1.977.264 5.224.826 6.584-1.118.31-.452 1.098-.23 1.03.347-.288 2.89-.578 5.797-.648 8.717-.018.549-.204 1.528-.017 2.058-.154.714.248 1.069 1.189 1.08.887.888 1.328.868 1.321-.044.594-1.221.37-3.436.452-4.767.38-6.14.712-12.282 1.091-18.422.11-.779 1.237-.71 1.192.011z" fill="#3D332D"/><path d="M18.107 69.986c-.72-.045-.666-1.174.07-1.129.72.045.65 1.173-.07 1.129zm46.234-14.989c.888.118 1.966.97 2.174 1.91.21.941.048 1.765-.693 2.332-.757.566-1.966.822-2.89.78a36.076 36.076 0 01-5.778-.75c-.372-.085-.759-.172-1.075-.38-.333-.21-.407-.529-.413-.938-.01-.362-.017-.755.099-1.094.116-.355.155-.745.348-1.063.406-.73 1.311-.894 2.099-.94a33.264 33.264 0 016.13.143z" fill="#3D332D"/><path d="M64.516 54.458c1.901.479 3.401 2.631 2.265 4.51-1.612 2.7-6.574 1.45-8.933 1.005-.946-.184-2.195-.293-2.651-1.296-.387-.857-.07-2.441.417-3.197.556-.862 1.496-1.087 2.46-1.184 2.084-.202 4.211-.07 6.287.136.717.076.663 1.205-.07 1.128a37.63 37.63 0 00-4.603-.206c-.692.02-2.065-.112-2.657.308-.886.621-1.06 2.182-.259 2.924.787.74 4.192.762 5.367.803.799.034 1.654.165 2.398-.198 2.022-.96 1.64-3.153-.385-3.671-.712-.17-.331-1.247.364-1.062zm.162-8.213c.094.51.096.997.048 1.513-.038.359-.033.784-.361 1.015a.696.696 0 01-.98-.14c-.262-.346-.187-.797-.177-1.205.007-.377-.07-.916.172-1.263a.743.743 0 01.94-.225c.745.392.75 1.572.443 2.229-.322.64-1.384.291-1.076-.366.054-.106.3-.799.068-.844.19-.036.365-.072.556-.108.074-.184.088-.151.057.098-.007.11-.014.22-.005.33-.007.11-.101.623-.043.69-.136-.072-.259-.127-.395-.198l.109.007c-.145.054-.273.093-.417.147-.017.015.003-.566.007-.629a3.652 3.652 0 00-.059-.82c-.128-.716.97-.963 1.113-.23zm-4.358-.363c.673.545.836 1.467.66 2.29-.218.976-1.283 1.193-1.793.297-.381-.684-.41-2.006.387-2.444.358-.198.786-.014.969.327.268.488.197 1.128.056 1.638-.12.417-.69.492-.954.193-.191-.216-.318-.444-.332-.728-.058-.585.8-1.02 1.06-.375.135.339.224.675.297 1.025.128.715-.985.945-1.113.23a4.032 4.032 0 00-.19-.75c.353-.12.707-.256 1.06-.376-.021.093.006.158.08.225-.317.06-.636.134-.954.193.08-.262.113-.559-.027-.82.103.102.208.187.327.288-.03-.017-.076-.036-.107-.053.142-.007.3-.013.442-.036-.08.042-.092.482-.082.561a1 1 0 00.105.337c-.263.203-.358.213-.267-.001-.088-.352.16-.792-.185-1.065-.646-.464-.023-1.4.562-.956zm-8.135-.455c.797.316 1.797 1.148 2.407 1.705.386.354.772.708 1.044 1.133.315.491.437 1.065.512 1.62.084.681.105 1.358.047 2.03-.048.532-.144 1.077-.394 1.564-.266.487-.716.915-1.292 1.084-.112.04-.254.047-.328-.02-.06-.051-.072-.115-.084-.178a277.074 277.074 0 00-.695-3.486c-.082-.446-.181-.876-.376-1.281-.125-.26-.315-.492-.44-.766-.53-1.07-.14-2.289-.401-3.405z" fill="#3D332D"/><path d="M52.36 44.887c2.317 1.118 4.217 2.886 4.399 5.538.129 1.722-.266 4.81-2.628 4.665a.572.572 0 01-.467-.312c-.707-1.522-.465-3.41-1.154-4.961-.22-.485-.54-.898-.68-1.441-.225-.926-.054-1.922-.2-2.858-.113-.715 1.001-.96 1.113-.23.21 1.428.163 2.698.788 4.01.512 1.117.385 2.414.85 3.527-.095.513.076.807.543.867.191-.302.384-.62.575-.923.34-.938.307-2.434.02-3.363-.47-1.554-2.105-2.788-3.507-3.472-.658-.276-.309-1.355.348-1.047zm-4.328 4.229c.734.06 1.47.106 2.16.369.69.263 1.302.772 1.526 1.462a1.92 1.92 0 01-.48 1.92c-.6.576-1.486.678-2.32.706-1.368.04-2.741-.091-4.115-.223-.468-.045-.966-.107-1.34-.398-.553-.458-.56-1.355-.179-1.944.383-.605 1.064-.956 1.737-1.182a6.915 6.915 0 013.405-.23" fill="#3D332D"/><path d="M48.067 48.552c1.843.146 4.58.834 4.288 3.268-.319 2.622-3.617 2.386-5.525 2.269-1.705-.106-5.032-.123-4.254-2.81.66-2.286 4.002-2.52 5.9-2.245.716.107.647 1.234-.069 1.127-1.183-.167-2.64-.21-3.715.415-2.721 1.609.598 2.27 1.91 2.367 1.001.061 2.23.247 3.204-.007 1.107-.136 1.483-.632 1.13-1.518.139-.73-.177-1.206-.935-1.394-.61-.274-1.348-.288-2.004-.344-.718-.06-.664-1.189.07-1.128zm.741 16.459c1.504.062 3.023.124 4.516.342.623.086 1.274.22 1.82.537.56.318 1.016.833 1.118 1.469.124.778-.347 1.55-.987 1.998-.64.448-1.436.619-2.21.712-1.029.126-2.08.123-3.11.028-.64-.07-1.293-.174-1.908-.385-.154-.056-.307-.113-.426-.215-.164-.151-.212-.39-.245-.612a5.503 5.503 0 01.475-3.115c.252-.52.788-1.068 1.307-.831" fill="#3D332D"/><path d="M48.843 64.448c2.193.088 6.629-.314 7.793 2.195 1.066 2.314-1.58 3.722-3.448 3.969-1.615.214-5.72.605-6.314-1.475-.438-1.552.185-5.035 2.321-4.793.718.075.663 1.204-.07 1.127-.92-.104-1.197 1.844-1.229 2.361-.058 1.191.526 1.4 1.767 1.65 1.21.232 2.657.18 3.865-.06.336-.09.656-.195.991-.285 1.14-.4 1.272-1.022.413-1.86-.643-1.282-.99-1.257-2.282-1.43-1.276-.174-2.577-.207-3.877-.256-.72-.045-.65-1.172.07-1.143zm-22.098 1.165c.807.145 1.21-.286 1.906.15.695.436 1.249 1.13 1.435 1.928.187.797-.106 1.722-.778 2.184-.542.375-1.251.426-1.912.448-1.461.02-2.93-.102-4.373-.365-.203-.028-.419-.088-.534-.253-.131-.165-.101-.399-.072-.617.12-.936.277-1.933.931-2.615.837-.845 2.189-.871 3.397-.86z" fill="#3D332D"/><path d="M26.78 65.05c1.079.066 1.737-.16 2.633.587.73.626 1.271 1.525 1.29 2.5.038 2.675-2.703 2.82-4.706 2.728-1.05-.049-2.83.077-3.7-.59-.69-.53-.443-1.474-.271-2.218.545-2.481 2.447-3.024 4.754-3.008.721.014.651 1.141-.07 1.128-1.475-.012-2.956.069-3.497 1.718-.253.786-.472 1.291.388 1.596.553.207 1.324.176 1.918.213 1.125.085 3.41.462 3.97-.981.263-.707-.075-1.593-.61-2.066-.744-.675-1.34-.429-2.153-.479-.735-.045-.666-1.173.054-1.129zm9.026-19.802c-1.975-.06-3.95-.103-5.909-.161-.909-.025-1.898-.023-2.623.53-.808.626-1.02 1.776-.91 2.79.031.253.076.538.252.738.278.331.56.349.983.36a13.25 13.25 0 013.307.597c.384.134.782.3 1.061.616.438.53.403 1.093.33 1.78-.059.437-.148 1.123-.494 1.385-.182.146-.436.193-.659.242-1.367.278-2.774.442-4.116.815-1.086.295-2.252.867-2.616 1.93-.171.492-.127 1.045-.08 1.567.095 1.248.26 2.626 1.215 3.44.687.576 1.62.728 2.49.86 1.354.194 2.707.404 4.077.598 1.975.295 3.952.575 5.949.525.754-.016 1.496-.08 2.249-.065.956.027 1.887.195 2.845.191.943-.005 1.944-.21 2.673-.825.646-.542.995-1.37 1.126-2.21.13-.841.04-1.68-.08-2.52-.09-.588-.207-1.224-.62-1.658-.369-.385-.91-.528-1.42-.654a30.032 30.032 0 00-5.259-.765c-1.25-.077-2.705-.167-3.41-1.217-.518-.755-.439-1.788-.196-2.67.203-.741.598-1.55 1.335-1.788.288-.092.602-.088.916-.084.69.01 1.398-.008 2.027-.284.628-.26 1.587-.782 1.617-1.52.03-.752-.759-1.445-1.395-1.815a4.996 4.996 0 00-2.191-.623l-2.471-.152-.003.047zm28.387 11.391c.08.744-.056 1.411-.486 2.014-.413.587-1.363-.037-.934-.624.24-.347.373-.716.322-1.16-.097-.713 1.016-.943 1.098-.23zm-5.201 1.848c-.368-.651-.436-1.331-.28-2.06.153-.715 1.213-.335 1.076.364-.089.42.013.803.21 1.177.369.636-.651 1.139-1.006.52zm-6.467-17.033a6.151 6.151 0 00-1.491-.265c-.125-.008-1.326-.145-1.364-.037.018-.03.81.6.886.652a6.93 6.93 0 001.307.694c.674.278.31 1.34-.364 1.078-.966-.39-3.287-1.445-2.839-2.848.216-.694.94-.728 1.55-.706.91.025 1.816.097 2.694.371.678.2.314 1.277-.38 1.061zm19.186 2.758c.854-.09 1.925-.149 2.474-.901.05-.06.203-.49.289-.36-.029-.048-.6.042-.647.055-.505.047-.996.111-1.503.19-.714.113-.959-1.002-.23-1.115 1-.158 3.807-.88 3.39 1.043-.353 1.645-2.121 2.054-3.543 2.202-.71.066-.956-1.05-.23-1.114z" fill="#3D332D"/></svg>