<svg width="1274" height="220" fill="none" xmlns="http://www.w3.org/2000/svg"><path fill-rule="evenodd" clip-rule="evenodd" d="M61.374 28.913C57.738 13.26 49.207 4.73 41.002 3.868c-8.205-.861-18.36 6.091-25.127 20.271C3.738 49.973 2.927 97.23 27.518 103.629L23.975 133.8l3.73.392 4.475.469 2.424-30.289c24.383-2.405 33.32-48.046 26.77-75.459zm372.984 65.186c1.359-9.378-4.986-18.237-14.234-20.434-9.225-2.483-18.474 2.51-21.811 10.862-9.612-1.364-18.662 4.794-21.192 14.076-2.576 9.853 3.675 19.855 13.778 22.409 4.319 1.217 8.803.435 12.772-1.252l-14.485 36.48 16.741 4.249 4.92-38.415c2.423 2.787 5.771 5.075 9.822 5.982 10.103 2.555 20.324-3.508 22.9-13.361 1.851-8.187-1.883-16.544-9.211-20.596z" fill="#3D332D"/><ellipse opacity=".1" cx="212.141" cy="139.15" rx="93.555" ry="12.39" transform="rotate(3.535 212.141 139.15)" fill="#3D332D"/><path d="M265.479 81.632c-.951 14.794-1.746 30.625-2.699 45.455-.149 2.412-.298 4.823-.593 7.225-.208 1.601-.495 3.27-1.383 4.609-.889 1.339-2.525 2.338-4.114 1.983-1.3-.3-2.259-1.387-2.731-2.626-.473-1.239-.538-2.564-.566-3.886-.154-8.774.682-17.561 1.552-26.309-1.339 2.704-4.795 3.518-7.807 3.662-2.902.15-5.823.007-8.723-.466.452 4.539-.088 9.127-.626 13.678-.367 2.984-.701 6.007-1.068 8.992-.29 2.329-.9 5.079-3.072 5.861-1.91.689-4.059-.69-4.972-2.507-.913-1.817-.892-3.943-.839-5.993l.436-21.281c-9.597-.556-12.844-.757-22.441-1.313-1.313-.081-2.627-.162-3.845-.604-.358-.132-.786-.306-1.126-.143-.454.229-.528.847-.524 1.361.126 8.039-.224 16.086-.976 24.108-.084.765-.17 1.566-.576 2.201-.97 1.481-3.059 1.498-4.805 1.317-.584-.036-1.166-.108-1.66-.396-.99-.574-1.388-1.846-1.5-2.99-.616-7.813-.512-15.434.721-23.536.13-.909.41-1.882.058-2.711l-2.472-.886-6.202-.383c-.219-.014-.438-.027-.629.108-.117.103-.199.244-.278.349-.29.533-.579 1.065-.866 1.56.946.096 2.109.241 2.96.697 1.204.661 1.415 1.407 1.278 1.839-.175.466-.8 1.088-1.962.942-.582-.072-1.893-.19-3.303-1.084-.656.546-.699.654-1.356 1.2-.116.103-.658.583-.667.729-.011.183.089.335.189.488.573.806 1.137 1.758 1.297 2.721.057.26-.152.687-.307.825-.116.102-.545-.071-.728-.082-1.315-.045-2.44-1.398-2.249-2.706a6.55 6.55 0 01-3.144.502c.092.886.013 2.165-.261 3.028-.4 1.149-1.641 1.072-2.261.447-.691-.666-.198-2.139-.248-3.096-.028-.148-.053-.333-.156-.449-.105-.08-.25-.089-.394-.135-.474-.029-.946-.095-1.421-.124l-1.876 17.927c-.087.802-.214 1.674-.765 2.3-.314.348-.768.576-1.254.73-.934.309-1.896.469-2.881.408-.657-.04-1.27-.188-1.836-.516-1.515-.974-1.603-3.107-1.565-4.901l.305-8.49c.069-1.719.141-3.475.32-5.188.166-1.493.438-2.943.64-4.434a74.38 74.38 0 00.755-11.029s1.854-25.264 2.655-38.234c.801-12.97 5.046-14.688 5.046-14.688-7.081-1.574-14.843.183-20.577 4.67-5.734 4.487-9.357 11.56-9.587 18.845-.038 1.794.102 3.674.954 5.303.655 1.25 1.656 2.23 2.387 3.448 2.093 3.467 1.239 8.402-1.886 10.96-.501.408-1.11.774-1.728.7-.583-.037-1.071-.433-1.489-.79-2.231-1.824-4.695-4.03-4.772-6.932-.1-2.537 1.687-4.774 2.098-7.279.341-1.96-.158-3.97-.403-5.93-1.17-10.707 6.631-20.787 16.261-25.51 9.631-4.722 20.794-5.206 31.553-5.092a373.024 373.024 0 0155.555 4.753c-4.381-1.995-8.134-5.27-10.74-9.319-.635-.993-1.669-2.633-1.631-3.841.035-2.345 2.846-3.382 5.05-4.09 5.528-1.748 11.923-.326 16.186 3.568 1.088-.41 2.209-.78 3.297-1.19-1.461-2.437-2.122-5.375-1.839-8.182.268 2.18 2.221 3.768 4.169 4.842 9.623 5.472 22.362 4.976 31.503-1.318-.263 3.065-1.654 6.023-3.908 8.12 2.103.937 4.442-.165 6.644-.836 5.97-1.795 12.851.06 17.113 4.578 0 0 1.508 9.959-14.853 10.415-.44.01-.908-.13-1.323.065-.453.228-.701.69-.913 1.154l-7.933 21.11c1.301 2.061 1.855 5.543.91 7.795s-3.315 3.279-5.693 3.829c-1.338.32-2.69.274-4.043.227-6.797-.237-13.591-.51-20.286-1.804-.942-.168-1.952-.414-2.605-1.114-.584-.623-1.243-1.214-1.672-1.974-.363-.646-.423-1.456-.75-2.1-.655-1.25-.669-2.792-.007-4.034.456-.852 1.158-1.543 1.433-2.442.275-.9.044-1.905-.191-2.836-1.737-6.855-4.104-13.603-4.767-20.649" fill="#3D332D"/><path d="M266.792 81.713c-.729 11.8-1.387 23.642-2.08 35.445-.352 5.699-.314 11.606-1.211 17.235-.357 2.215-.716 4.467-2.393 6.124-2.967 2.97-6.955 1.734-8.446-1.989-1.62-4.024-.611-9.683-.392-13.814.272-5.594.836-11.17 1.398-16.71.79.269 1.615.54 2.404.809-1.608 2.321-3.58 3.409-6.325 3.973-1.593.305-3.244.35-4.856.36-4.029.008-4.39-1.261-4.971 2.81-.726 5.237-.912 10.616-1.602 15.855-.336 2.473-.384 6.211-2.405 8.103-3.765 3.435-8.158-.138-9.153-4.196-1.051-4.32-.149-9.435-.058-13.867.033-1.722 1.162-8.143.181-9.451-1.422-1.884-4.242-1.289-6.358-1.419-4.925-.305-9.941-.321-14.814-.879-.365-.022-4.061-.654-4.061-.654-.648.4-.054 8.578-.083 9.64-.148 4.758.554 11.183-1.074 15.593-.578 1.652-.96 2.508-2.731 3.316-7.114 3.118-8.35-4.147-8.554-9.147-.215-5.405-.23-11.09.687-16.461.525-3.158 1.444-3.211-.816-4.561-2.012-1.225-5.886-.767-6.838 1.008-.324-.681-.685-1.363-1.009-2.043 2.433.334 8.11 2.701 4.265 5.654-1.73 1.324-4.415-.859-5.529-.011-.884.679.134-.395.382 1.527.252 1.849.76 1.331.111 2.941-.214.5-.756.98-1.336.871-2.471-.3-3.794-1.408-4.156-3.851.529.326 1.056.689 1.549 1.013-2.761.819-1.793 2.346-3.844 4.126-.349.309-.869.423-1.298.25-2.508-.888-.837-1.849-2.459-2.866.353.206.194 1.003.207 2.58.038 2.937-.631 6.049-.957 8.963-.456 4.409-.451 8.481-5.943 8.471-5.42-.005-5.384-4.733-5.271-8.944.266-9.042 1.478-17.989 1.962-27.017.521-10.2 1.481-20.41 2.186-30.635.405-5.953-.66-20.138 6.244-23.415.169.817.336 1.67.506 2.488-12.28-2.189-24.438 4.321-27.916 16.759-1.506 5.408-.378 8.485 2.147 13.262.361.682.792 1.406 1.039 2.155.722 2.538.548 5.351-.698 7.731-3.115 5.97-8.08 3.939-11.143-1.018-1.299-2.097-1.555-3.874-1.112-6.303a42.095 42.095 0 011.357-3.584c.513-2.389.548-4.734.107-7.072-.006-1.687-.162-3.31.054-5.02 2.15-17.618 20.541-25.43 36.042-26.783 22.674-1.863 46.343.92 68.647 4.461-.269.79-.54 1.617-.808 2.408-4.261-2.17-17.354-11.341-11.452-17.358 2.267-2.317 6.667-2.999 9.708-3.03 4.542-.014 10.264 4.594 14.084 3.216-.182.576-.403 1.186-.585 1.761-1.465-2.95-2.035-5.59-1.977-8.887.026-1.612 2.181-1.515 2.612-.205 1.942 5.914 11.734 7.473 16.928 7.573 6.104.194 11.709-1.623 16.817-4.865.8-.5 2.068.311 1.9 1.254-.554 3.633-1.893 6.338-4.365 9.01-.281-.788-.528-1.537-.809-2.325 4.859.777 9.32-2.064 14.357-1.203 2.827.468 8.935 2.386 10.323 5.405.934 2.075-.006 4.84-1.179 6.639-1.294 1.974-3.32 3.352-5.465 4.283-2.672 1.155-7.164.364-9.297 1.7-3.319 2.142-4.839 10.74-6.241 14.467-.697 1.79-2.448 4.653-2.495 6.594-.035 1.758 1.717 4.213 1.163 6.673-1.794 8.287-13.034 6.456-19.09 6.082-6.822-.422-16.653.438-18.859-7.73-1.133-4.177 1.435-7.21.68-11.584-1.081-6.228-3.43-12.057-4.175-18.374-.191-1.663 2.372-2.238 2.596-.537.502 4.322 1.453 8.488 2.587 12.666.807 2.947 2.556 6.649 2.473 9.761-.087 3.186-2.776 5.807-.858 9.152 2.316 3.994 11.489 3.718 15.721 3.979 6.932.428 16.007 2.31 15.709-8.271-.033-1.25-.601-1.541-.455-2.706.385-3.276 2.674-7.133 3.851-10.177 1.229-3.298 2.159-7.091 3.852-10.178 2.067-3.833 4.889-2.081 9.091-3.105 2.858-.63 9.419-3.673 8.173-7.82-.882-2.915-7.638-4.396-10.413-4.531-4.31-.193-7.897 2.153-12.177 1.485-1.197-.184-1.595-1.456-.809-2.324 2.065-2 3.203-4.423 3.484-7.193.634.406 1.266.848 1.9 1.254-6.862 4.38-14.958 6.19-23.035 4.738-5.577-1.004-12.576-3.307-14.484-9.183a63.211 63.211 0 002.613-.205c-.276 2.697.302 5.19 1.697 7.513.294.568.087 1.546-.585 1.76-1.311.47-2.907 1.398-4.327 1.274-.728-.082-2.598-1.811-3.344-2.187-2.197-1.2-4.169-1.872-6.798-1.997-4.674-.216-10.048 1.396-7.712 6.858 1.628 3.878 6.571 6.86 10.157 8.696 1.172.586.423 2.63-.808 2.407-19.111-3.051-38.486-4.798-57.86-4.785-17.287.032-44.246 4.858-44.216 27.488.025 3.155.95 5.963.172 9.069-.821 3.213-2.819 8.884 1.245 10.675 2.037 2.584 3.838 1.301 5.362-3.812-.687-1.913-1.34-3.787-2.028-5.7-2.548-5.585-3.082-9.982-.838-16.078 4.61-12.368 17.208-18.888 29.959-16.633 1.195.22 1.825 1.873.506 2.488-5.318 2.496-4.392 14.765-4.687 19.551a2815.435 2815.435 0 01-1.752 24.794c-.454 6.17-.544 12.362-1.324 18.475-.42 3.238-.797 6.369-.961 9.623-.074 1.792-1.163 6.969-.305 8.489 4.364 3.46 6.318 3.251 5.903-.699l.537-5.138 1.072-10.239c.079-.692.667-1.316 1.395-1.234 1.566.134 1.664.323 2.805.834.677.298.586 4.73.54.73.011-.77.734-1.202 1.395-1.234l2.777-.489c.67-.179 1.443.346 1.549 1.013-.42.267-.632.144-.675-.336-.158-.413-.236-.931.081-1.315.672-.802 1.447-1.487 2.258-2.171.312-.31.871-.459 1.297-.25l.541.144c-1.054-.139-1.504-1.157-1.009-2.043 2.357-4.365 7.823-2.744 11.981-1.277.394.135.809.527.855.97.741 6.977-3.089 15.029-1.064 21.975-.543 3.451 1.528 4.899 6.177 4.343.086-.802.135-1.606.222-2.407.566-2.056.389-5.11.483-7.232.237-4.423-.001-8.875.27-13.259.248-4.019 1.336-3.842 5.112-3.315 7.954 1.078 16.155 1.108 24.181 1.604.73.045 1.239.7 1.232 1.396-.098 3.955-.157 7.876-.255 11.83-.035 2.345-.108 4.725-.146 7.106l-.037 2.382c-1.037 3.75.033 4.806 3.215 3.095 4.044-.85 3.127-1.42 3.576-5.133.227-1.893.452-3.749.678-5.643.481-4.224.77-8.314.483-12.549-.033-.662.74-1.311 1.394-1.234 4.613.615 12.186 1.926 15.36-2.608.724-1.056 2.56-.539 2.403.808-.673 6.743-1.348 13.523-1.512 20.334-.043 1.281-.477 3.565-.041 4.802-.359 1.665.579 2.493 2.774 2.518 2.07 2.072 3.098 2.026 3.083-.102 1.385-2.849.861-8.016 1.053-11.121.885-14.322 1.66-28.65 2.545-42.971.259-1.818 2.886-1.656 2.782.025z" fill="#3D332D"/><path d="M160.239 101.609c-1.678-.104-1.552-2.737.162-2.63 1.678.103 1.516 2.733-.162 2.63zm107.85-34.962c2.07.274 4.584 2.263 5.071 4.457.487 2.194.112 4.115-1.617 5.438-1.767 1.321-4.587 1.917-6.742 1.82-4.528-.206-9.031-.814-13.478-1.749-.867-.2-1.77-.403-2.509-.888-.775-.488-.949-1.233-.963-2.187-.021-.845-.038-1.763.231-2.553.271-.827.363-1.738.812-2.48.948-1.702 3.059-2.085 4.896-2.192a77.6 77.6 0 0114.299.334z" fill="#3D332D"/><path d="M268.496 65.388c4.436 1.118 7.934 6.138 5.283 10.522-3.758 6.296-15.334 3.38-20.836 2.343-2.208-.43-5.122-.683-6.186-3.022-.902-2-.161-5.695.974-7.458 1.296-2.01 3.489-2.535 5.737-2.763 4.863-.47 9.825-.163 14.666.32 1.673.176 1.547 2.809-.163 2.63-3.566-.367-7.144-.552-10.737-.48-1.614.047-4.818-.261-6.197.717-2.067 1.45-2.475 5.091-.604 6.82 1.834 1.728 9.778 1.778 12.518 1.874 1.863.079 3.859.385 5.595-.46 4.716-2.24 3.824-7.356-.899-8.565-1.66-.396-.772-2.908.849-2.478zm.378-19.157c.22 1.188.223 2.325.112 3.528-.088.838-.076 1.829-.842 2.368a1.624 1.624 0 01-2.287-.324c-.609-.808-.435-1.86-.412-2.813.017-.879-.161-2.137.401-2.946.52-.701 1.411-.903 2.194-.524 1.738.914 1.751 3.665 1.033 5.198-.751 1.494-3.228.68-2.511-.852.126-.249.702-1.864.159-1.97.444-.083.852-.168 1.297-.25.173-.43.205-.355.132.228-.015.255-.031.511-.01.77-.016.255-.237 1.452-.1 1.607-.319-.167-.604-.294-.924-.46l.256.015c-.338.126-.636.217-.974.343-.038.035.009-1.32.018-1.466.04-.657-.033-1.249-.138-1.915-.3-1.67 2.263-2.244 2.596-.537zm-10.165-.848c1.57 1.27 1.95 3.421 1.538 5.34-.507 2.279-2.992 2.785-4.181.695-.89-1.596-.956-4.68.902-5.702.834-.462 1.833-.034 2.26.763.625 1.139.46 2.632.13 3.822-.28.973-1.609 1.147-2.225.45-.445-.505-.742-1.037-.774-1.699-.136-1.365 1.868-2.378 2.471-.874.317.79.525 1.573.694 2.39.3 1.669-2.297 2.205-2.596.536-.11-.593-.22-1.187-.441-1.75.823-.28 1.648-.596 2.471-.875-.05.217.014.368.187.525-.741.138-1.484.312-2.225.45.184-.613.264-1.305-.065-1.912.242.235.486.434.764.671-.071-.041-.178-.084-.249-.125.331-.017.698-.03 1.031-.083-.189.098-.216 1.123-.191 1.308.021.258.115.52.245.785-.616.476-.837.499-.623-.002-.205-.819.371-1.847-.432-2.483-1.508-1.084-.055-3.268 1.309-2.23zm-18.977-1.062c1.858.738 4.192 2.68 5.613 3.978.902.825 1.803 1.651 2.437 2.644.735 1.146 1.019 2.483 1.195 3.778.195 1.589.244 3.169.11 4.738-.113 1.24-.338 2.51-.921 3.647-.619 1.135-1.67 2.134-3.013 2.527-.262.094-.592.11-.766-.047-.139-.118-.166-.267-.194-.415-.528-2.71-1.057-5.42-1.622-8.132-.192-1.039-.423-2.043-.877-2.988-.292-.605-.735-1.146-1.025-1.787-1.237-2.497-.329-5.338-.937-7.943z" fill="#3D332D"/><path d="M240.139 43.062c5.405 2.608 9.838 6.733 10.261 12.92.302 4.016-.62 11.22-6.128 10.88-.438-.027-.897-.312-1.091-.727-1.648-3.55-1.083-7.952-2.691-11.572-.516-1.132-1.262-2.095-1.586-3.362-.526-2.16-.126-4.482-.467-6.667-.264-1.667 2.335-2.24 2.596-.536.49 3.33.38 6.294 1.839 9.355 1.194 2.604.898 5.63 1.982 8.227-.22 1.197.177 1.882 1.267 2.023.446-.706.895-1.449 1.342-2.155.794-2.188.717-5.677.045-7.845-1.095-3.625-4.909-6.501-8.179-8.097-1.535-.645-.72-3.162.81-2.444zm-10.094 9.865c1.712.143 3.427.249 5.037.862 1.61.612 3.038 1.801 3.561 3.41.491 1.534.05 3.34-1.119 4.479-1.401 1.343-3.467 1.583-5.412 1.646-3.192.096-6.396-.212-9.599-.52-1.092-.104-2.255-.25-3.129-.927-1.289-1.07-1.306-3.161-.416-4.536.893-1.412 2.482-2.23 4.053-2.757a16.13 16.13 0 017.943-.536" fill="#3D332D"/><path d="M230.125 51.612c4.301.34 10.684 1.944 10.003 7.623-.744 6.115-8.437 5.567-12.888 5.292-3.976-.246-11.738-.285-9.922-6.555 1.538-5.332 9.335-5.877 13.764-5.237 1.669.25 1.506 2.88-.163 2.63-2.759-.39-6.159-.49-8.666.969-6.348 3.752 1.394 5.293 4.457 5.52 2.334.144 5.201.577 7.471-.016 2.583-.317 3.46-1.473 2.636-3.541.325-1.704-.412-2.813-2.179-3.252-1.426-.638-3.145-.671-4.675-.802-1.676-.14-1.55-2.773.162-2.63zm1.73 38.395c3.507.143 7.05.289 10.534.797 1.453.2 2.972.514 4.244 1.253 1.31.74 2.371 1.943 2.609 3.425.29 1.815-.81 3.617-2.303 4.662-1.492 1.045-3.348 1.443-5.156 1.662-2.398.292-4.852.287-7.255.065-1.491-.166-3.015-.406-4.449-.898-.358-.133-.716-.265-.995-.502-.381-.354-.493-.91-.57-1.429-.36-2.48.053-5.02 1.108-7.266.587-1.21 1.838-2.49 3.049-1.939" fill="#3D332D"/><path d="M231.937 88.692c5.114.206 15.463-.732 18.177 5.12 2.487 5.398-3.686 8.684-8.043 9.258-3.766.501-13.344 1.413-14.729-3.44-1.021-3.62.433-11.746 5.415-11.181 1.674.177 1.548 2.81-.162 2.63-2.146-.242-2.793 4.302-2.867 5.508-.135 2.778 1.226 3.266 4.12 3.848 2.823.541 6.2.42 9.017-.139.782-.209 1.53-.456 2.312-.664 2.658-.936 2.967-2.384.964-4.342-1.5-2.99-2.309-2.93-5.324-3.336-2.978-.404-6.013-.481-9.045-.595-1.678-.104-1.516-2.735.165-2.667zm-51.549 2.719c1.883.337 2.824-.669 4.446.348 1.622 1.017 2.913 2.637 3.348 4.498.434 1.86-.248 4.019-1.817 5.095-1.262.876-2.917.994-4.459 1.045a53.2 53.2 0 01-10.201-.85c-.472-.066-.976-.207-1.246-.591-.305-.385-.235-.931-.167-1.44.281-2.183.645-4.508 2.171-6.1 1.953-1.97 5.107-2.032 7.925-2.005z" fill="#3D332D"/><path d="M180.469 90.096c2.518.155 4.052-.373 6.141 1.37 1.704 1.462 2.967 3.557 3.009 5.833.091 6.24-6.302 6.579-10.977 6.364-2.446-.115-6.603.178-8.631-1.377-1.608-1.236-1.032-3.438-.632-5.174 1.273-5.789 5.709-7.055 11.09-7.016 1.683.03 1.52 2.661-.162 2.63-3.441-.029-6.895.161-8.158 4.007-.589 1.834-1.102 3.013.905 3.724 1.289.483 3.088.41 4.474.496 2.624.199 7.953 1.078 9.26-2.288.615-1.65-.173-3.715-1.423-4.82-1.734-1.573-3.125-1-5.022-1.116-1.714-.106-1.552-2.737.126-2.633zm21.055-46.192c-4.605-.138-9.213-.24-13.783-.375-2.12-.058-4.428-.054-6.119 1.236-1.884 1.46-2.38 4.143-2.123 6.506.073.592.179 1.258.589 1.724.648.773 1.305.814 2.292.838 2.447.115 5.382.626 7.715 1.394.896.312 1.824.7 2.474 1.436 1.023 1.237.941 2.552.769 4.155-.136 1.019-.345 2.62-1.151 3.23-.424.34-1.017.45-1.537.565-3.189.646-6.472 1.03-9.602 1.9-2.533.688-5.252 2.023-6.101 4.501-.401 1.149-.297 2.439-.19 3.656.223 2.91.611 6.126 2.837 8.023 1.602 1.346 3.777 1.7 5.809 2.01 3.158.451 6.314.94 9.509 1.394 4.608.688 9.219 1.34 13.877 1.224 1.76-.038 3.491-.188 5.246-.153 2.23.065 4.403.456 6.638.447 2.198-.01 4.535-.49 6.235-1.925 1.506-1.264 2.321-3.194 2.625-5.156.305-1.961.096-3.918-.186-5.879-.208-1.37-.483-2.854-1.445-3.867-.861-.896-2.122-1.231-3.312-1.525-4.043-.946-8.143-1.566-12.268-1.784-2.919-.18-6.311-.39-7.955-2.839-1.209-1.762-1.024-4.17-.457-6.226.473-1.731 1.395-3.618 3.114-4.172.672-.215 1.404-.207 2.136-.198 1.61.026 3.261-.019 4.729-.661 1.465-.607 3.701-1.826 3.771-3.545.072-1.756-1.769-3.373-3.254-4.235-1.521-.864-3.394-1.383-5.111-1.453l-5.764-.356-.007.11zm66.219 26.572c.185 1.735-.13 3.293-1.133 4.698-.963 1.37-3.181-.087-2.18-1.455.562-.809.872-1.67.753-2.704-.227-1.665 2.369-2.2 2.56-.539zm-12.132 4.312c-.858-1.52-1.017-3.107-.655-4.808.359-1.665 2.831-.78 2.511.851-.207.978.031 1.873.489 2.745.861 1.483-1.519 2.656-2.345 1.212zm-15.087-39.733c-1.15-.365-2.311-.547-3.478-.619-.292-.018-3.092-.337-3.181-.086.041-.07 1.891 1.4 2.067 1.521a16.272 16.272 0 003.049 1.619c1.572.647.723 3.125-.851 2.514-2.251-.909-7.665-3.37-6.621-6.643.503-1.62 2.193-1.698 3.618-1.647 2.12.058 4.234.225 6.282.865 1.583.464.731 2.979-.885 2.476zm44.757 6.432c1.991-.207 4.489-.346 5.77-2.1.118-.14.473-1.145.674-.84-.066-.113-1.398.098-1.509.128-1.179.11-2.323.26-3.507.443-1.664.264-2.236-2.338-.535-2.6 2.33-.37 8.88-2.055 7.907 2.432-.823 3.837-4.947 4.792-8.265 5.137-1.657.155-2.229-2.448-.535-2.6zm361.115 100.92l-8.092-.093-.204 17.432 8.092.093.204-17.432zm9.349.109l-8.092-.093-.204 17.432 8.092.093.204-17.432zm31.464.366l-8.092-.093-.204 17.433 8.092.093.204-17.433zm-9.35-.108l-8.092-.094-.204 17.433 8.092.093.204-17.432z" fill="#3D332D"/><path fill-rule="evenodd" clip-rule="evenodd" d="M727.702 139.209l6.002-5.864-66.271-68-3.553-3.636-3.456 3.376-76.767-.885-68.928 66.623 6.652.076-.729 72.197 80.183.924 120.814 1.391.106-18.989.617-52.668 5.33 5.455zm-173.409 21.733l-19.955-.23.225-19.234 19.956.23-.226 19.234zm31.462.362l-20.135-.232.225-19.233 19.956.23-.225 19.233.179.002zm71.029-.44l-19.956-.23.226-19.233 19.956.23-.226 19.233zm11.732-19.101l19.955.23-.225 19.234-19.956-.23.226-19.234z" fill="#3D332D"/><path d="M543.721 142.469l-8.092-.093-.204 17.432 8.092.094.204-17.433zm40.813.476l-8.093-.093-.204 17.432 8.092.093.205-17.432zm-31.284-.365l-8.092-.093-.204 17.433 8.092.093.204-17.433zm21.935.256l-8.092-.093-.205 17.432 8.093.093.204-17.432zm508.615 14.483c9.56-1.244 19.14-2.418 28.71-3.662 2.64-.353 5.3-.636 7.88-1.2 4-.836 7.92-2.249 11.96-2.28a2828.36 2828.36 0 00-3.98-35.791c-.05-.21-.03-.437-.2-.543-.2-.176-.49-.177-.79-.179-6.71.839-13.49 1.766-20.2 2.605-.01 5.349.06 10.682.05 16.032-.03.157.02.367-.08.541-.11.175-.39.243-.6.294-5.71 1.334-11.54 2.475-17.48 2.602-5.93.126-11.91-.779-17.2-3.412-.92-.442-1.87-1.024-2.46-1.918-.63-1.035-.57-2.311-.59-3.57.07-4.772-.3-9.582-1.46-14.273-.23-.911-.45-1.821-1.13-2.471-.68-.651-3.54-.613-4.1.118l.49 16.297c-10.98.851-18.68 1.93-29.53 3.937-1.54.306-3.1.543-4.55 1.27-1.37.709-2.62 1.909-2.97 3.481l-3.59 1.257c.47 3.08.93 6.159 1.4 9.239.05.21.08.35.19.473.36.281.95-.31 1.32-.029.17.106.22.316.21.544.84 6.403 1.69 12.806 2.51 19.139 3.37-.682 6.83-1.311 10.2-1.992 7.58-1.499 15.17-2.998 22.9-3.64 7.63-.694 15.34-.514 22.77-2.346" fill="#3D332D"/><path d="M1084.21 158.989c8.01-1.007 15.94-1.997 23.95-3.004 8.07-1.025 16.11-3.377 24.18-4.104.8-.049 1.83-.673 1.72-1.687-.62-6.085-1.32-12.223-2.03-18.361-.64-5.561-.37-13.128-2.28-18.451-.21-.542-.57-1.121-1.18-1.194-6.54-1.135-15.3 1.616-21.88 2.421-.71.101-1.32.919-1.3 1.584.03 3.408 1.23 9.723.08 12.828-1.85 4.762-9.35 4.531-13.48 4.807-4.2.292-8.44.148-12.57-.765-5.53-1.234-7.82-3.64-8.97-9.152-1.12-5.441.49-19.205-9.13-15.2-.54.207-.89.887-.89 1.481.17 5.454.32 10.838.49 16.292.59-.592 1.13-1.096 1.72-1.687-9.53.79-18.98 1.929-28.35 3.646-2.82.545-5.53.915-7.8 2.739-2.1 1.631-2.09 2.593-4.86 3.575-.96.309-1.36 1.076-1.26 2.09.52 3.289.45 7.168 1.85 10.164.19.473.89.896 1.48.899.36-.015 2.24 16.528 2.54 18.312.15.927 1.23 1.404 2.08 1.269 9.85-1.906 19.62-4.093 29.57-5.282 8.82-.986 17.62-.853 26.31-2.695 2.1-.444 1.28-3.734-.82-3.29-12.88 2.729-26.25 2.311-39.22 4.69-4.08.783-12.42 4.026-15.07 1.338-2.53-2.495-1.05-13.48-2.56-16.896-.19-.473-.88-.896-1.47-.899-.73.031-1.01-4.654-.87-5.283-.4-.421-.8-.843-1.11-1.212.4-.172.82-.275 1.22-.448-.26.436 5.83-3.814 4.9-3.138 7.78-5.779 23.96-5.311 33.42-6.083.87-.066 1.75-.656 1.72-1.687-.15-3.304-.22-6.555-.29-9.806-.05-.804-.71-4.95-.17-5.751.54-.801 2.15 3.629 2.43 4.749.81 2.993.71 6.435.81 9.529.3 11.065 12.59 12.195 21.92 12.051 4.62-.099 15.24-.044 18.65-2.962 2.98-2.519.77-8.211 1.22-11.739.73-5.973 3.37-5.435 8.81-6.106 1.85-.235 3.9-.294 5.78-.757 4.03-.992 2.48-1.28 3.63 2.151 1.3 3.765 1.05 9.024 1.51 12.994l2.07 19.095c.59-.591 1.13-1.095 1.72-1.686-7.34.696-14.55 2.843-21.91 3.767-8.99 1.176-18.07 2.3-27.09 3.407-2.18.391-1.28 3.734.78 3.447z" fill="#3D332D"/><path d="M1026.49 153.785c-3.38.974-6.35 3.325-8.64 6.252-.67.9-1.4 1.818-1.73 2.86-.3.885-.42 1.875-.56 2.796-.47 4.031-.95 8.288.32 12.188 1.43 4.527 5.05 8.073 9.15 10.544 1.22.736 2.4 1.333 3.81 1.653 1.17.231 2.35.237 3.54.243 1.78.008 3.54-.053 5.31-.045 1.19.006 2.44-.005 3.51-.487 1.29-.463 2.28-1.519 3.43-2.244 1.6-.983 3.47-1.513 4.95-2.688 1.48-1.175 2.37-2.944 3.18-4.696 1.99-4.476 3.42-9.406 2.23-14.14-.54-2.159-1.56-4.198-2.82-5.959-.68-.942-1.34-1.815-2.2-2.566-1.2-.962-2.66-1.491-4.06-2.036-3.1-1.163-5.92-2.984-9.21-3.139-3.12-.05-5.96.719-10.21 1.464z" fill="#3D332D"/><path d="M1025.67 152.288c-11.83 4.742-16.54 19.635-9.13 30.606 6.12 9.069 18.8 12.172 28.09 6.723 5.49-3.19 8.48-5.105 10.73-11.197 1.99-5.362 2.49-11.027-.09-16.307-5.38-11.17-18.61-11.998-29.2-9.997-2.13.372-1.29 3.714.82 3.272 7.63-1.424 16.99-1.866 23.02 4.491 7.63 8.034 2.99 20.251-4.86 25.498-6.78 4.54-16.45 4.616-22.67-1.03-9.71-8.634-6.7-24.371 4.93-29.061 2-.86.31-3.771-1.64-2.998zm61.71-16.07a60.315 60.315 0 00-3.03 17.433c-.02 1.702-.03 3.405.38 5.076.46 2.104 1.47 4.073 2.6 5.938 3.77 6.169 9.07 11.668 15.88 14.064 1.71.617 3.44 1.007 5.13 1.259 5.02.84 10.18.761 15.1-.588 4.83-1.402 9.39-4.143 12.46-8.143 1.34-1.731 2.35-3.603 3.28-5.527 1.43-2.861 2.59-5.879 3.22-8.986 1.34-6.458.33-13.449-2.77-19.337-3.11-5.888-8.37-10.658-14.49-13.224-2.07-.896-4.22-1.48-6.52-1.804-2.21-.271-4.45-.316-6.66-.292-2.51.023-5.09.062-7.53.659-2.49.683-4.78 1.906-7.04 3.198-4.13 2.413-8.6 5.276-9.96 9.892" fill="#3D332D"/><path d="M1085.78 135.724c-2.46 8.208-5.11 18.604-1.48 26.876 3.07 6.931 9.28 13.686 16.2 16.795 16.19 7.341 34.53.791 41.36-15.355 6.68-15.886.33-34.719-16.23-41.454-13.36-5.451-33.79-1.343-39.76 12.895-.84 1.977 2.44 2.949 3.27.972 5.48-13.007 25.96-15.724 37.38-9.726 14.24 7.523 17.94 24.344 11.19 38.179-6.69 13.749-24.77 18.093-38.03 10.331-5.29-3.066-9.89-8.44-12.21-14.151-3.03-7.678-.91-16.617 1.45-24.356.73-2.1-2.48-3.088-3.14-1.006zm-58.65 30.981c-.59 1.77-.87 3.611-.93 5.47-.01.521-.03 1.043.11 1.599.16.627.47 1.289.84 1.864 1.15 1.934 2.84 3.663 4.95 4.403.49.176 1.04.335 1.65.407 1.56.286 3.18.259 4.76-.203 1.52-.444 2.93-1.306 3.94-2.587.39-.537.75-1.144 1.05-1.733.43-.919.8-1.821.99-2.828.45-2.031.12-4.24-.85-6.069-.98-1.83-2.62-3.349-4.59-4.123-.66-.282-1.31-.493-2.06-.532-.69-.125-1.36-.11-2.09-.079-.82-.021-1.62.027-2.39.214-.76.188-1.48.584-2.19.98-1.29.759-2.69 1.691-3.14 3.131" fill="#3D332D"/><path d="M1025.47 166.298c-1.74 5.743-1.16 11.585 4.68 14.81 5.4 2.963 12.36.893 14.9-4.603 2.49-5.41.8-11.865-4.71-14.654-4.74-2.386-12.27-1.136-14.61 4.014-.9 1.994 2.04 3.711 2.88 1.734 1.6-3.642 7.1-4.467 10.43-2.696 3.94 2.139 4.72 7.043 2.68 10.717-2.2 3.934-7.91 4.445-11.23 1.562-3.22-2.83-2.8-6.182-1.67-9.93.57-2.134-2.7-3.106-3.35-.954z" fill="#3D332D"/><path d="M1033.74 168.267c-.63.153-1.12.568-1.57 1.122-.11.173-.21.347-.32.52-.03.156-.06.313-.1.469-.1.764-.16 1.442.04 2.208.27.818.88 1.482 1.65 1.885.18.106.44.263.66.282.23.018.46.037.61.072.3.002.67-.014.96-.013.23.019.44-.032.65-.083.2-.052.38-.242.64-.38s.59-.293.92-.447c.25-.208.46-.555.54-.798.32-.815.61-1.7.4-2.536-.1-.417-.26-.749-.48-1.063-.13-.191-.23-.314-.4-.419-.2-.174-.44-.263-.75-.334-.58-.228-1.1-.544-1.62-.564-.56-.159-1.12-.022-1.83.079z" fill="#3D332D"/><path d="M1032.87 166.855c-2.62 1.083-3.66 4.293-2.44 6.802 1.18 2.37 4.25 3.688 6.71 2.57 2.52-1.135 4.13-3.891 3.06-6.66-1.1-2.908-4.25-3.392-6.93-2.884-2.13.373-1.29 3.714.82 3.272.85-.135 1.84-.304 2.57.256 1.03.856.18 2.469-.85 2.794-2.26.702-3.48-2.398-1.27-3.309 2.04-.72.33-3.7-1.67-2.841zm40.52-34.188c1.83-1.853 3.38-3.933 4.76-6.119 1.37-2.185 3.41-3.793 4.63-6.014 1.08-1.892-1.88-3.68-2.88-1.737-1.06 1.961-2.97 3.466-4.21 5.321-1.37 2.186-2.78 4.232-4.61 6.085-1.59 1.645.78 4.022 2.31 2.464zm34.32 6.996c-2.19.685-4.18 2.206-5.64 4.041-.46.554-.89 1.178-1.15 1.907-.23.573-.3 1.181-.37 1.789-.29 2.658-.64 5.404.23 7.998.96 2.943 3.33 5.318 6.01 6.878.78.474 1.62.86 2.49 1.09.79.178 1.52.146 2.34.168 1.18.005 2.28-.041 3.46-.036.81-.048 1.56-.01 2.3-.267.81-.344 1.54-.966 2.23-1.432 1.03-.621 2.27-.998 3.26-1.758 1-.76 1.59-1.939 2.06-3.015 1.27-2.897 2.23-6.161 1.46-9.224-.35-1.393-1.04-2.7-1.86-3.903-.46-.628-.89-1.187-1.45-1.641-.75-.63-1.73-.982-2.63-1.352-2.04-.757-3.89-1.931-6.07-2.063-2.03-.166-3.92.295-6.67.82z" fill="#3D332D"/><path d="M1106.82 138.184c-8.06 3.23-11.13 13.437-6.18 20.797 4.15 6.226 12.81 8.319 19.2 4.612 3.68-2.156 5.77-3.554 7.32-7.701 1.37-3.662 1.67-7.502-.13-11.127-3.66-7.528-12.54-8.161-19.75-6.84-2.13.373-1.29 3.714.81 3.272 4.95-.915 10.51-1.166 14.54 2.799 4.89 4.787 1.62 12.682-3.07 15.823-4.18 2.796-10.21 2.941-14.13-.606-6.1-5.454-4.18-15.232 3.15-18.135 1.95-.773.26-3.684-1.76-2.894z" fill="#3D332D"/><path d="M1109 148.657c-.35.972-.47 1.962-.51 3.004 0 .296 0 .591.07.87.09.348.25.679.47.992.63 1.029 1.54 1.989 2.76 2.429.31.071.56.159.87.23.85.161 1.74.165 2.56-.109a3.838 3.838 0 002.16-1.415c.23-.277.44-.623.58-.953.24-.503.42-.988.57-1.544.25-1.093.09-2.311-.45-3.286a5.296 5.296 0 00-2.49-2.272c-.33-.14-.73-.264-1.12-.318-.38-.054-.75-.038-1.11-.022-.44.032-.89-.005-1.31.098-.42.102-.8.343-1.2.515-.86.431-1.62.914-1.85 1.781z" fill="#3D332D"/><path d="M1107.39 148.164c-1.06 3.435-.6 7.017 2.92 8.963 3.26 1.788 7.62.575 9.15-2.754 1.53-3.329.54-7.296-2.86-9.05-2.89-1.508-7.58-.731-9.01 2.425-.91 1.994 2.04 3.711 2.87 1.734 1.71-3.815 8.09-.5 5.79 3.607-.97 1.716-3.43 1.947-4.93.689-1.57-1.241-1.26-2.943-.72-4.626.66-2.082-2.61-3.053-3.21-.988zm-33.44-32.388c4.11 3.648 8.47 6.864 12.84 10.079 1.74 1.345 3.45-1.58 1.73-2.856-4.13-3.127-8.3-6.168-12.12-9.589-1.61-1.379-4.07.918-2.45 2.366zm47.73-3.194c-.84-3.326-6.49-27.473-.77-28.025 2.19-.229 2.3-3.635.11-3.407-4.32.44-5.44 3.425-5.64 7.367-.4 8.248 1.03 16.871 3.05 24.84.38 2.112 3.78 1.304 3.25-.775z" fill="#3D332D"/><path d="M1117.06 94.843c-1.31.39-2.12 1.616-2.39 2.93-.27 1.315 0 2.65.17 3.932.25 1.266.4 2.479.65 3.745.24 1.559.7 3.363 2.08 4.133.97.577 2.22.497 3.27.243.49-.118.99-.237 1.27-.599.33-.448.42-.985.42-1.573.08-3.256-.24-6.565-1.04-9.756-.3-1.179-.77-2.463-1.86-2.937-.76-.333-1.6-.13-2.44.073" fill="#3D332D"/><path d="M1116.17 93.36c-4.56 1.987-3.32 7.209-2.64 11.094.74 4.094 2.24 8.001 7.22 7.091 4.96-.979 3.53-7.259 2.99-10.884-.61-4.196-1.84-8.466-6.97-7.297-2.12.44-1.29 3.77.82 3.262 2.89-.626 2.91 5.041 2.99 6.566.16 1.508.86 4.579-.88 5.073-2.51.679-2.7-3.619-2.98-5.024-.4-2.186-1.59-5.727 1.1-6.891 2.07-.942.37-3.845-1.65-2.99zm-77 52.333a22.267 22.267 0 001.74-8.746c-.03-2.202-3.4-2.271-3.45-.122.02 2.722-.53 5.285-1.6 7.829-.8 2.111 2.47 3.012 3.31 1.039zm7.02-1.01c1.13-3.512 1.71-7.113 1.66-10.856-.03-2.201-3.47-2.254-3.45-.122.05 3.448-.46 6.738-1.59 9.955-.58 2.128 2.7 3.029 3.38 1.023zm6.37.413a29.208 29.208 0 001.49-10.665c-.11-2.183-3.48-2.253-3.46-.122.1 3.362-.34 6.634-1.32 9.817-.67 2.075 2.61 2.976 3.29.97z" fill="#3D332D"/><path fill-rule="evenodd" clip-rule="evenodd" d="M934.206 91.63c-8.381-17.967-25.627-28.51-41.078-30.07-15.45-1.56-34.256 5.743-45.876 21.431-21.204 28.861-17.978 83.836 31.966 90.911l-3.598 33.535 4.192.599 5.03.48 2.521-33.894c48.508 1.805 62.05-50.772 46.843-82.992zM1274 159.1l-11.05-17.721h3.81l-10.66-19.646 4.95-.386-8.38-15.409 4.57-.385-11.43-14.639 6.09-.77-11.42-18.877 3.81-.385-9.15-16.95 5.34-.385-10.29-14.254 6.1-.385-11.43-14.253 4.57-.386L1216.1 0l-9.53 26.58 4.95-.77-9.14 15.795 6.1-.385-7.62 16.18 5.33-.771-5.71 18.105h3.81l-8.39 20.418 6.1-.386-8.76 16.18h4.57l-5.71 16.565 4.95-.385-6.86 20.802 3.81-.385-8 19.261 37.33-3.081 1.15 29.277 7.23-.77 7.24-.771-4.19-28.892L1274 159.1z" fill="#3D332D"/></svg>