<?xml version="1.0" encoding="utf-8"?>
<!-- Generator: Adobe Illustrator 25.0.0, SVG Export Plug-In . SVG Version: 6.00 Build 0)  -->
<svg version="1.1" id="Слой_1" xmlns="http://www.w3.org/2000/svg" xmlns:xlink="http://www.w3.org/1999/xlink" x="0px" y="0px"
	 viewBox="0 0 1600 402" style="enable-background:new 0 0 1600 402;" xml:space="preserve">
<style type="text/css">
	.st0{fill:#EAD300;}
	.st1{fill:#7DBF29;}
	.st2{fill:#FF7A2C;}
	.st3{font-family:'CenturyGothic';}
	.st4{font-size:197.4627px;}
</style>
<g>
	<path class="st0" d="M167.14,233.58c4.16,1.63,3.47,3.36,7.3,4.36c3.73,0.97,5.38-0.4,9.1,1.28c1.65,0.75,2.21,1.42,3.59,1.41
		c0.52,0,0.96-0.11,1.35-0.28l-75.91-30.07l42.37,23.28c0.06-0.03,0.1-0.07,0.16-0.1C160.02,230.79,166.19,233.21,167.14,233.58z"/>
	<path class="st0" d="M99.35,243.69l1.77,0.7c0.28-0.01,0.56-0.02,0.83-0.03L99.35,243.69z"/>
	<path class="st0" d="M228.51,236.53c1.06,0.24,3.4,1.14,8.07,2.95c4.14,1.6,4.91,2.03,5.64,2.95c1.7,2.14,0.79,3.92,2.69,5.72
		c0.11,0.1,2.07,1.91,4.44,1.62c1.82-0.22,2.45-1.49,3.95-3.09l-123.42-67.89l83.69,60.77c1.84-1.24,2.15-2.13,3.92-3.03
		C220.84,234.83,224.44,235.63,228.51,236.53z"/>
	<path class="st0" d="M630.36,210.28l-37.88,15.01c1.43,1.21,2.55,2.5,4.27,3.46L630.36,210.28z"/>
	<path class="st0" d="M263.62,242.51c1.77,0.87,1.28,2.58,3.59,4.01c1.53,0.95,3.22,1.12,4.87,1.28c2.58,0.26,3.85-0.21,4.87,0.77
		c0.81,0.78,0.36,1.42,1.02,2.05c1.72,1.64,5.56-1.82,8.2-0.38c2.14,1.17,0.94,4.16,3.2,5.64c2.12,1.38,3.88-0.76,7.94,0
		c3.26,0.61,3.1,2.17,6.53,3.07c4.5,1.18,8.56-0.51,9.48-0.9c3.95-1.65,3.29-3.3,7.3-5.25c5.11-2.49,10.28-1.79,11.15-1.67
		c3.4,0.5,3.54,1.53,6.66,1.67c4.58,0.2,5.56-1.94,8.07-1.15c3.16,0.99,2.7,4.74,6.66,9.48c1.48,1.77,4.33,5.17,8.46,6.15
		c6.95,1.64,11.05-5.12,16.78-2.82c2.97,1.19,2.43,3.23,6.02,4.74c4.79,2.02,9.84,0.11,11.15-0.38c6.79-2.57,5.87-6.73,12.04-9.35
		c6.03-2.56,8.36,0.81,14.22-2.05c5.19-2.53,4.28-5.63,9.22-8.07c5.64-2.79,11.88-1.24,16.91,0c9.68,2.39,9.94,5.96,15.37,5.64
		c7.85-0.47,8.67-7.99,16.4-7.82c4.25,0.1,8.85,2.48,13.37,4.83c2.64,1.37,3.01,2.29,4.44,2.56c4.59,0.86,6.54-5.74,14.35-11.62
		c1.68-1.27,11.67-8.79,20.67-5.81c0.03,0.01,0.06,0.02,0.1,0.03l80.38-58.37l-125.84,69.22l104.72-98.29l-116.18,84.45
		l91.58-110.64l-104.67,98.34l76.99-121.25l-91.52,110.69l61.19-129.94l-76.93,121.29L476.8,66.07l-61.12,129.97l26.95-141.08
		l-44.35,136.61l9.05-143.34l-26.88,141.09l-8.98-143.35l-8.98,143.35L335.61,48.24l9.05,143.34L300.31,54.97l26.95,141.08
		L266.14,66.07l44.42,136.59L233.63,81.37l61.19,129.94l-91.52-110.69l76.99,121.25L175.6,123.53l91.58,110.64L151,149.72
		l102.78,96.47c0.51-0.5,1.12-1.02,1.89-1.55C256.64,243.98,260.81,241.12,263.62,242.51z"/>
	<path class="st0" d="M153.02,257.48c-6.96-0.24-13.63-0.38-19.75-0.37l16.18,6.4c12.39,0.47,25.56,1.29,37.57,2.71L153.02,257.48z"
		/>
	<path class="st0" d="M247.47,323.52c-15.26,7.71-22.29,9.78-22.04,13.71c0.11,1.76,4.07,0.53,11.1-1.2
		c3.75-1.38,9.16-3.35,15.72-5.64c10.63-3.71,18.72-6.34,23.4-7.86c29.7-9.62,44.55-14.43,57.4-18.36
		c16.7-5.11,44.57-13.62,81.23-23.06c14.36-3.7,43.84-11.09,81.74-18.88c0.99-0.2,1.97-0.4,2.95-0.6l33.7-24.47
		c-0.03-0.01-0.06-0.02-0.1-0.03c-9-2.98-18.99,4.54-20.67,5.81c-7.81,5.88-9.76,12.47-14.35,11.62c-1.44-0.27-1.81-1.2-4.44-2.56
		c-4.52-2.34-9.12-4.73-13.37-4.83c-7.73-0.18-8.55,7.34-16.4,7.82c-5.44,0.33-5.69-3.24-15.37-5.64c-5.03-1.24-11.27-2.79-16.91,0
		c-4.94,2.44-4.03,5.54-9.22,8.07c-5.86,2.86-8.19-0.51-14.22,2.05c-6.17,2.62-5.25,6.78-12.04,9.35c-1.31,0.5-6.36,2.4-11.15,0.38
		c-3.59-1.51-3.05-3.55-6.02-4.74c-5.74-2.3-9.84,4.46-16.78,2.82c-4.13-0.98-6.98-4.38-8.46-6.15c-3.96-4.74-3.5-8.49-6.66-9.48
		c-2.51-0.79-3.49,1.36-8.07,1.15c-3.13-0.14-3.26-1.17-6.66-1.67c-0.87-0.13-6.04-0.82-11.15,1.67c-4.01,1.95-3.35,3.61-7.3,5.25
		c-0.92,0.39-4.98,2.08-9.48,0.9c-3.44-0.9-3.27-2.46-6.53-3.07c-4.06-0.76-5.83,1.38-7.94,0c-2.26-1.48-1.07-4.47-3.2-5.64
		c-2.64-1.44-6.48,2.02-8.2,0.38c-0.66-0.63-0.22-1.27-1.02-2.05c-1.01-0.98-2.28-0.51-4.87-0.77c-1.65-0.16-3.34-0.33-4.87-1.28
		c-2.31-1.43-1.82-3.14-3.59-4.01c-2.81-1.39-6.98,1.47-7.94,2.14c-0.77,0.53-1.37,1.05-1.89,1.55l1.94,1.82l-2.42-1.33
		c-1.5,1.6-2.14,2.87-3.95,3.09c-2.37,0.28-4.33-1.52-4.44-1.62c-1.9-1.8-0.99-3.58-2.69-5.72c-0.73-0.92-1.49-1.34-5.64-2.95
		c-4.67-1.81-7.01-2.71-8.07-2.95c-4.07-0.9-7.67-1.7-11.02,0c-1.77,0.9-2.08,1.79-3.92,3.03l19.29,14.01
		c7.09,0.68,14.03,1.49,22.12,2.69c5.56,0.82,21.73,3.32,41.85,8.2c4.25,1.03,13.45,3.32,24.94,7c9.38,3,14.32,5.02,18.06,6.7
		c5.35,2.4,9.69,4.74,12.81,6.53c-5.21,1.75-10.42,3.5-15.63,5.25c-2.69-1.07-6.52-2.57-11.15-4.31
		c-12.49-4.69-21.9-8.26-34.51-11.79c-6.13-1.71-18.63-5.01-34.85-7.69c-6.64-1.1-11.6-1.71-14.35-2.05
		c-6.03-0.75-20.59-2.2-38.14-3.59l19.23,10.57c6.38,0.91,11.2,1.65,16.52,2.59c12.89,2.26,22.03,4.43,33.05,7.05
		c19.73,4.68,26.63,7.13,32.67,9.74c4.44,1.92,8.54,3.95,12.3,6.02c-5.34,2.09-10.68,4.19-16.01,6.28
		c-5.67-2.4-13.82-5.62-23.83-8.84c-12.59-4.05-22.2-6.19-33.57-8.71c-8.82-1.96-18.91-4.18-32.54-6.15
		c-11.07-1.6-19.11-2.39-27.54-2.95c-1.21-0.08-2.39-0.15-3.55-0.22l28.85,11.42c3.47,0.61,7.84,1.44,12.87,2.51
		c8.86,1.9,24.86,5.37,44.71,12.56c6,2.17,11.73,4.45,17.17,6.79c-7,2.69-14.01,5.38-21.01,8.07c-11.86-5.4-21.95-8.29-29.98-10.68
		c-8.99-2.67-15.7-3.95-26.05-5.3c-7.94-1.04-16.48-1.88-28.95-2.05c-2.53-0.03-4.64-0.01-6.19,0.24l57.34,14.71l-4.66,0
		c3.65,1.1,7.26,2.38,11.2,3.97C240.98,320.12,244.88,322.11,247.47,323.52z"/>
	<path class="st0" d="M555.14,251.61l41.61-22.86c-1.73-0.95-2.84-2.25-4.27-3.46l-89.89,35.61
		C524.66,256.46,541.29,253.61,555.14,251.61z"/>
	<path class="st0" d="M632.62,246.51c1.18,0.04,2.35,0.09,3.5,0.14l7.47-2.96L632.62,246.51z"/>
	<path class="st0" d="M120.93,249.23l-18.98-4.88c-0.28,0.01-0.56,0.02-0.83,0.03l12.31,4.87
		C115.97,249.26,118.47,249.25,120.93,249.23z"/>
	<path class="st0" d="M211.26,251.82c2.66,0.2,5.18,0.39,7.61,0.57l-30.38-12.04c-0.39,0.17-0.83,0.27-1.35,0.28
		c-1.38,0.01-1.94-0.66-3.59-1.41c-3.71-1.69-5.37-0.31-9.1-1.28c-3.83-1-3.15-2.72-7.3-4.36c-0.95-0.37-7.12-2.8-12.04-0.13
		c-0.06,0.03-0.1,0.07-0.16,0.1l30.3,16.65C193.95,250.63,202.2,251.14,211.26,251.82z"/>
	<path class="st1" d="M513.7,326.55c-6.57-1.67-20.25-2.13-27.03-2.18c-17.51-0.12-36.16,2.7-46.25,3.97
		c-10.48,1.32-7.27,1.35-26.9,4.36c0,0-47.71,7.31-57.78,17.55c-0.74,0.75-2.75,2.8-2.18,4.23c0.65,1.6,4.19,1.54,4.36,1.54
		c1.96-0.05,3.47-0.83,4.09-1.15c0.16-0.08,0.32-0.15,0.49-0.2c1.82-0.53,14.43-4.15,25.4-6.85c10.11-2.49,30.28-6.59,53.3-5.64
		c31.09,1.28,40.15,4.66,59.45-1.79c6.6-2.21,11.96-4.93,15.89-7.24c1.6-0.94,1.86-3.18,0.49-4.42
		C516.11,327.91,515.1,326.91,513.7,326.55z"/>
	<path class="st1" d="M594.58,297c-2.8-1.47-5.32-1.8-5.98-1.88c-10.19-1.23-13.67-1.2-13.67-1.2c-10.55,0.09-15.82,0.14-16.4,0.17
		c-24.08,1.37-36.12,2.06-44.58,2.9c-32.28,3.22-62.51,8.77-76.36,11.45c-52.23,9.27-104.8,24-120.89,33.51
		c-1,0.59-8.97,4.15-8.89,9.32c0.02,1.2,4.25,0.42,6.41,0.13c1.75-0.23,3.05-0.64,5-1.28c3.78-1.25,5.61-2.04,8.71-3.07
		c0,0,6.16-2.12,12.3-4.1c19.93-6.41,43.73-12.3,43.73-12.3c14.12-3.49,29.71-7.33,50.73-10.93c21.92-3.75,51.63-8.84,78.24-6.83
		c21.84,1.65,23.91,1.88,23.91,1.88c11.34,1.28,16.08,2.37,24.94,1.88c5.27-0.29,10.9-1.04,16.91-2.9
		c6.98-2.17,10.44-4.53,15.54-8.03c2.32-1.59,4.51-3.3,4.27-5.12C598.3,298.96,596.23,297.87,594.58,297z"/>
	<path class="st1" d="M645.82,263.75c-9.89-0.95-23.29-1.86-36.89-2.11c-12.09-0.22-33.33-0.11-69.52,4.27
		c-7.04,0.85-38.59,4.76-83.87,14.52c-60.94,13.13-104.91,27.84-118.64,32.54c-27.51,9.42-53.3,19.99-53.3,19.99
		c-6.41,2.69-7.36,3.03-8.2,3.42c-3.73,1.72-8.57,4.12-7,7.26c1.37,2.73,8.15,0.74,9.31,0.43c4.14-1.11,6.47-1.89,7.56-2.26
		c8.51-2.91,17.06-5.78,25.37-9.22c15.63-6.48,45.84-15.25,60.51-19.52c46.92-13.63,84.54-20.84,98.56-23.4
		c29.88-5.47,51.12-7.89,58.76-8.71c18.53-2.01,33.94-3.63,53.64-3.42c17.66,0.19,37.77,1.84,40.31,2.05
		c3.27,0.27,6.15,0.54,8.52,0.77c1.66,0.16,3.29-0.38,4.53-1.49l11.81-10.61C648.96,266.74,648.06,263.96,645.82,263.75z"/>
	<path class="st1" d="M244.91,248.15c0.11,0.1,2.07,1.91,4.44,1.62c2.55-0.31,2.76-2.68,6.32-5.12c0.96-0.66,5.14-3.53,7.94-2.14
		c1.77,0.87,1.28,2.58,3.59,4.01c1.53,0.95,3.22,1.12,4.87,1.28c2.58,0.26,3.85-0.21,4.87,0.77c0.81,0.78,0.36,1.42,1.02,2.05
		c1.72,1.64,5.56-1.82,8.2-0.38c2.14,1.17,0.94,4.16,3.2,5.64c2.12,1.38,3.88-0.76,7.94,0c3.26,0.61,3.1,2.17,6.53,3.07
		c4.5,1.18,8.56-0.51,9.48-0.9c3.95-1.65,3.29-3.3,7.3-5.25c5.11-2.49,10.28-1.79,11.15-1.67c3.4,0.5,3.54,1.53,6.66,1.67
		c4.58,0.2,5.56-1.94,8.07-1.15c3.16,0.99,2.7,4.74,6.66,9.48c1.48,1.77,4.33,5.17,8.46,6.15c6.95,1.64,11.04-5.12,16.78-2.82
		c2.97,1.19,2.43,3.23,6.02,4.74c4.79,2.02,9.84,0.11,11.15-0.38c6.79-2.57,5.87-6.73,12.04-9.35c6.03-2.56,8.36,0.81,14.22-2.05
		c5.19-2.53,4.28-5.63,9.22-8.07c5.64-2.79,11.88-1.24,16.91,0c9.68,2.39,9.94,5.96,15.37,5.64c7.85-0.47,8.67-7.99,16.4-7.82
		c4.25,0.1,8.85,2.48,13.37,4.83c2.64,1.37,3.01,2.29,4.44,2.56c4.59,0.86,6.54-5.74,14.35-11.62c1.68-1.27,11.67-8.79,20.67-5.81
		c1.7,0.56,2.49,1.21,3.42,1.71c8.16,4.38,15.97-6.88,33.31-12.98c7.76-2.73,15.38-5.41,21.35-1.88c3.32,1.96,4.36,4.79,8.88,5.81
		c3.99,0.9,6.55-0.55,9.91,1.54c2.05,1.27,1.74,2.21,3.76,3.42c1.07,0.64,3.34,1.68,9.4,0.85c8.11-1.11,8.74-3.62,12.81-2.9
		c2.95,0.52,3.27,1.96,8.71,4.95c3.68,2.03,6.91,3.23,9.05,3.93c6.74,1.29,10.08,1.62,10.08,3.67c0,3.63-2.22,3.03-7.35,2.82
		c-10.86-1.08-25.59-2.05-43.05-1.71c-12.31,0.24-23.62,1.11-38.09,2.73c-18.84,2.12-41.39,5.48-78.75,13.15
		c-37.9,7.78-67.38,15.18-81.74,18.88c-36.66,9.44-64.53,17.95-81.23,23.06c-12.84,3.93-27.69,8.74-57.4,18.36
		c-4.69,1.52-12.78,4.14-23.4,7.86c-6.55,2.29-11.97,4.26-15.72,5.64c-7.03,1.72-10.99,2.95-11.1,1.2c-0.26-3.93,6.78-6,22.04-13.71
		c-2.6-1.41-6.5-3.4-11.4-5.38c-10.18-4.1-18.21-6.15-30.19-8.41c-6.76-1.28-12.9-2.04-18.7-2.9c-3.98-0.59-7.5-1.1-10.3-1.47
		c-1.47-0.2-2.92-0.53-4.33-1c-1.91-0.64-3.22-1.29-3.22-2.73c0-2.28,3.56-2.47,9.05-2.39c12.47,0.17,21.02,1.01,28.95,2.05
		c10.35,1.35,17.06,2.63,26.05,5.3c8.03,2.38,18.12,5.27,29.98,10.68c7-2.69,14.01-5.38,21.01-8.07
		c-5.44-2.34-11.16-4.62-17.17-6.79c-19.86-7.19-35.85-10.66-44.71-12.56c-9.99-2.14-17.4-3.29-20.24-3.72
		c-8.82-1.32-15.62-1.96-18.06-2.18c-7.72-0.69-13.17-0.86-23.19-1.15c-6.3-0.19-14.76-0.37-24.85-0.38
		c-3.61-0.04-7.78,0.16-7.82-2.56c-0.03-2.69,8.12-3.44,11.56-3.72c14.1-1.11,26.79-1.15,44.42,0c8.44,0.55,16.47,1.35,27.54,2.95
		c13.63,1.97,23.72,4.19,32.54,6.15c11.36,2.53,20.97,4.66,33.57,8.71c10.01,3.22,18.15,6.44,23.83,8.84
		c5.34-2.09,10.68-4.19,16.01-6.28c-3.76-2.07-7.86-4.1-12.3-6.02c-6.04-2.61-12.94-5.06-32.67-9.74
		c-11.02-2.61-20.16-4.78-33.05-7.05c-8.51-1.49-15.71-2.49-30.11-4.48c-9.44-1.31-17.96-2.41-21.27-2.82
		c-23.03-2.83-50.79-3.4-68.93-3.46c-1.96-0.04-4.65-0.96-4.74-2.82c-0.12-2.52,4.68-2.8,13.07-2.95
		c36.63-0.65,99.91,5.16,114.36,6.96c2.75,0.34,7.71,0.95,14.35,2.05c16.22,2.68,28.72,5.97,34.85,7.69
		c12.61,3.52,22.02,7.09,34.51,11.79c4.62,1.74,8.46,3.24,11.15,4.31c5.21-1.75,10.42-3.5,15.63-5.25
		c-3.12-1.8-7.47-4.14-12.81-6.53c-3.75-1.68-8.69-3.7-18.06-6.7c-11.49-3.68-20.69-5.97-24.94-7c-20.13-4.88-36.29-7.37-41.85-8.2
		c-15.73-2.33-27.08-3.2-43.73-4.44c-17.68-1.32-32.3-2.04-53.21-2.61c-17.07-0.46-37.97,0.38-61.92-0.13
		c-3-0.06-3.91-1.58-3.76-2.22c0.75-3.1,6.53-2.13,11.62-2.65c15.9-1.61,19.23,0.48,25.62-2.05c3.37-1.33,5.46-1.94,9.65-3.16
		c2.1-0.61,2.96-0.8,4.1-0.85c2.97-0.14,3.7,0.28,5.38,0c3.13-0.52,3.18-2.97,6.36-4.7c4.92-2.67,11.09-0.25,12.04,0.13
		c4.16,1.63,3.47,3.36,7.3,4.36c3.73,0.97,5.38-0.4,9.1,1.28c1.65,0.75,2.21,1.42,3.59,1.41c2.15-0.02,2.81-1.66,5.12-2.95
		c3.6-2,9.05-1.94,11.53,0.51c1.47,1.45,1.04,2.89,2.56,3.59c1.67,0.76,3.69-0.27,5.64-1.28c3.37-1.76,3.33-2.86,5.51-3.97
		c3.34-1.7,6.95-0.9,11.02,0c1.06,0.24,3.4,1.14,8.07,2.95c4.14,1.6,4.91,2.03,5.64,2.95C243.92,244.56,243.01,246.34,244.91,248.15
		z"/>
</g>
<text transform="matrix(1 0 0 1 679.3267 175.5344)"><tspan x="0" y="0" class="st2 st3 st4">зелёные</tspan><tspan x="0" y="160" class="st1 st3 st4">луга</tspan></text>
</svg>
