<?xml version="1.0" encoding="utf-8"?>
<!-- Generator: Adobe Illustrator 24.0.1, SVG Export Plug-In . SVG Version: 6.00 Build 0)  -->
<svg version="1.1" id="Layer_1" xmlns="http://www.w3.org/2000/svg" xmlns:xlink="http://www.w3.org/1999/xlink" x="0px" y="0px"
	 viewBox="0 0 14 16" style="enable-background:new 0 0 14 16;" xml:space="preserve">
<style type="text/css">
	.st0{fill:#A69895;}
</style>
<path class="st0" d="M13.5,1c0.1,0,0.3,0.1,0.3,0.2C13.9,1.2,14,1.4,14,1.5v1c0,0.1-0.1,0.3-0.2,0.4C13.8,3,13.6,3,13.5,3h-13
	C0.4,3,0.2,3,0.1,2.9C0,2.8,0,2.6,0,2.5v-1c0-0.1,0-0.3,0.1-0.3C0.2,1.1,0.4,1,0.5,1h3.8l0.3-0.6C4.7,0.1,4.9,0,5.2,0h3.6
	c0.3,0,0.5,0.1,0.7,0.4L9.8,1H13.5z M1.7,14.6L1,4h12l-0.7,10.6c0,0.4-0.2,0.7-0.5,1c-0.3,0.3-0.6,0.4-1,0.4H3.2
	c-0.4,0-0.7-0.1-1-0.4C1.8,15.3,1.7,15,1.7,14.6z"/>
</svg>
