<svg width="542" height="249" viewBox="0 0 542 249" fill="none" xmlns="http://www.w3.org/2000/svg">
<path d="M1.69949 61.1651C0.760886 47.7425 10.8812 36.1004 24.3038 35.1618L234.883 20.4367C241.246 19.9918 246.566 24.8803 250.252 30.0857C253.8 35.0971 259.152 38.1337 264.918 37.7305C270.685 37.3273 275.561 33.5754 278.378 28.119C281.303 22.4512 285.891 16.8699 292.254 16.4249L502.833 1.69979C516.256 0.761195 527.898 10.8815 528.837 24.3041L540.222 187.118C541.16 200.541 531.04 212.183 517.617 213.121L307.038 227.847C300.675 228.291 295.355 223.403 291.669 218.197C288.121 213.186 282.77 210.149 277.003 210.553C271.236 210.956 266.36 214.708 263.543 220.164C260.618 225.832 256.03 231.413 249.667 231.858L39.0878 246.583C25.6652 247.522 14.0232 237.402 13.0846 223.979L1.69949 61.1651Z" fill="white"/>
<path d="M71.7773 135.165V124.275H95.6473V98.205H106.977V124.275H130.737V135.165H106.977V161.125H95.6473V135.165H71.7773ZM138.32 151.885L145.69 141.215C150.457 146.422 155.994 149.025 162.3 149.025C166.26 149.025 169.67 147.815 172.53 145.395C175.464 142.902 176.93 139.675 176.93 135.715C176.93 131.682 175.464 128.418 172.53 125.925C169.597 123.432 165.857 122.185 161.31 122.185C156.984 122.185 152.95 123.285 149.21 125.485L141.29 122.625L144.92 83.025H186.06V95.235H157.24L156.03 108.105L155.48 111.735H155.7C157.9 110.562 160.687 109.975 164.06 109.975C172.42 109.975 179.094 112.432 184.08 117.345C189.067 122.258 191.56 128.345 191.56 135.605C191.56 143.305 188.884 149.722 183.53 154.855C178.177 159.915 171.467 162.445 163.4 162.445C158.634 162.445 154.05 161.528 149.65 159.695C145.25 157.862 141.474 155.258 138.32 151.885ZM244.065 159.365C240.325 161.418 235.888 162.445 230.755 162.445C225.622 162.445 221.148 161.418 217.335 159.365C213.595 157.312 210.662 154.378 208.535 150.565C206.408 146.752 204.832 142.498 203.805 137.805C202.852 133.112 202.375 127.832 202.375 121.965C202.375 116.098 202.852 110.818 203.805 106.125C204.832 101.432 206.408 97.215 208.535 93.475C210.662 89.735 213.595 86.8383 217.335 84.785C221.075 82.7317 225.548 81.705 230.755 81.705C249.602 81.705 259.025 95.125 259.025 121.965C259.025 127.832 258.512 133.112 257.485 137.805C256.532 142.498 254.992 146.752 252.865 150.565C250.812 154.378 247.878 157.312 244.065 159.365ZM217.005 121.965C217.005 140.298 221.588 149.465 230.755 149.465C239.922 149.465 244.505 140.298 244.505 121.965C244.505 103.852 239.922 94.795 230.755 94.795C221.588 94.795 217.005 103.852 217.005 121.965ZM313.137 159.365C309.397 161.418 304.96 162.445 299.827 162.445C294.694 162.445 290.22 161.418 286.407 159.365C282.667 157.312 279.734 154.378 277.607 150.565C275.48 146.752 273.904 142.498 272.877 137.805C271.924 133.112 271.447 127.832 271.447 121.965C271.447 116.098 271.924 110.818 272.877 106.125C273.904 101.432 275.48 97.215 277.607 93.475C279.734 89.735 282.667 86.8383 286.407 84.785C290.147 82.7317 294.62 81.705 299.827 81.705C318.674 81.705 328.097 95.125 328.097 121.965C328.097 127.832 327.584 133.112 326.557 137.805C325.604 142.498 324.064 146.752 321.937 150.565C319.884 154.378 316.95 157.312 313.137 159.365ZM286.077 121.965C286.077 140.298 290.66 149.465 299.827 149.465C308.994 149.465 313.577 140.298 313.577 121.965C313.577 103.852 308.994 94.795 299.827 94.795C290.66 94.795 286.077 103.852 286.077 121.965ZM371.759 161.125V149.355H362.959V138.685H371.759V130.105H362.959V116.465H371.759V82.585H396.839C406.959 82.585 414.329 84.6383 418.949 88.745C423.643 92.8517 425.989 98.4983 425.989 105.685C425.989 109.938 425.036 113.935 423.129 117.675C421.223 121.415 418.033 124.422 413.559 126.695C409.159 128.968 403.146 130.105 395.519 130.105H388.369V138.685H405.309V149.355H388.369V161.125H371.759ZM388.369 116.465H393.869C398.563 116.465 402.266 115.658 404.979 114.045C407.766 112.432 409.159 109.828 409.159 106.235C409.159 99.5617 404.759 96.225 395.959 96.225H388.369V116.465Z" fill="#7DBF29"/>
</svg>
