<svg width="294" height="135" viewBox="0 0 294 135" fill="none" xmlns="http://www.w3.org/2000/svg">
<path d="M0.740495 30.5486C0.331531 24.7001 4.74112 19.6275 10.5896 19.2185L128.374 10.9822C131.146 10.7884 133.488 12.8646 134.861 15.281C136.739 18.5875 139.951 20.6738 143.443 20.4296C146.936 20.1854 149.826 17.6724 151.226 14.1367C152.249 11.5528 154.279 9.17073 157.051 8.97688L274.836 0.740598C280.684 0.331634 285.757 4.74121 286.166 10.5897L292.69 103.888C293.099 109.736 288.689 114.809 282.841 115.218L165.056 123.454C162.284 123.648 159.942 121.571 158.569 119.155C156.691 115.849 153.48 113.762 149.987 114.006C146.494 114.251 143.604 116.764 142.205 120.299C141.182 122.883 139.151 125.265 136.379 125.459L18.5946 133.695C12.7461 134.104 7.67348 129.695 7.26452 123.846L0.740495 30.5486Z" fill="white"/>
<path d="M24.2369 76.4454V69.3273H39.8394V52.2867H47.2452V69.3273H62.7758V76.4454H47.2452V93.4141H39.8394V76.4454H24.2369ZM67.7324 87.3744L72.5498 80.4C75.6655 83.8033 79.2845 85.505 83.4068 85.505C85.9953 85.505 88.2242 84.7141 90.0936 83.1322C92.011 81.5025 92.9696 79.3934 92.9696 76.805C92.9696 74.1686 92.011 72.0355 90.0936 70.4058C88.1762 68.776 85.7316 67.9611 82.7597 67.9611C79.9316 67.9611 77.2952 68.6801 74.8506 70.1182L69.6737 68.2487L72.0465 42.3644H98.9374V50.3454H80.0994L79.3085 58.7578L78.949 61.1306H79.0928C80.5308 60.3636 82.3523 59.9801 84.5572 59.9801C90.0217 59.9801 94.3837 61.5859 97.6432 64.7975C100.903 68.0091 102.532 71.9876 102.532 76.7331C102.532 81.7661 100.783 85.9603 97.2837 89.3157C93.7845 92.6232 89.3986 94.2769 84.1258 94.2769C81.0101 94.2769 78.0142 93.6777 75.1382 92.4794C72.2622 91.281 69.7936 89.5793 67.7324 87.3744ZM136.852 92.2636C134.407 93.6058 131.507 94.2769 128.152 94.2769C124.796 94.2769 121.872 93.6058 119.38 92.2636C116.935 90.9215 115.018 89.0041 113.628 86.5116C112.238 84.019 111.207 81.2388 110.536 78.1711C109.913 75.1033 109.601 71.6521 109.601 67.8173C109.601 63.9826 109.913 60.5314 110.536 57.4636C111.207 54.3958 112.238 51.6396 113.628 49.195C115.018 46.7504 116.935 44.857 119.38 43.5148C121.824 42.1727 124.748 41.5016 128.152 41.5016C140.471 41.5016 146.63 50.2735 146.63 67.8173C146.63 71.6521 146.295 75.1033 145.624 78.1711C145 81.2388 143.994 84.019 142.604 86.5116C141.262 89.0041 139.344 90.9215 136.852 92.2636ZM119.164 67.8173C119.164 79.8008 122.16 85.7926 128.152 85.7926C134.143 85.7926 137.139 79.8008 137.139 67.8173C137.139 55.9777 134.143 50.0578 128.152 50.0578C122.16 50.0578 119.164 55.9777 119.164 67.8173ZM182 92.2636C179.556 93.6058 176.656 94.2769 173.3 94.2769C169.945 94.2769 167.021 93.6058 164.528 92.2636C162.084 90.9215 160.166 89.0041 158.776 86.5116C157.386 84.019 156.356 81.2388 155.685 78.1711C155.062 75.1033 154.75 71.6521 154.75 67.8173C154.75 63.9826 155.062 60.5314 155.685 57.4636C156.356 54.3958 157.386 51.6396 158.776 49.195C160.166 46.7504 162.084 44.857 164.528 43.5148C166.973 42.1727 169.897 41.5016 173.3 41.5016C185.619 41.5016 191.779 50.2735 191.779 67.8173C191.779 71.6521 191.443 75.1033 190.772 78.1711C190.149 81.2388 189.143 84.019 187.752 86.5116C186.41 89.0041 184.493 90.9215 182 92.2636ZM164.313 67.8173C164.313 79.8008 167.309 85.7926 173.3 85.7926C179.292 85.7926 182.288 79.8008 182.288 67.8173C182.288 55.9777 179.292 50.0578 173.3 50.0578C167.309 50.0578 164.313 55.9777 164.313 67.8173ZM220.318 93.4141V85.7207H214.566V78.7463H220.318V73.138H214.566V64.2223H220.318V42.0768H236.712C243.327 42.0768 248.144 43.419 251.164 46.1033C254.232 48.7876 255.766 52.4785 255.766 57.176C255.766 59.9562 255.143 62.5686 253.896 65.0132C252.65 67.4578 250.565 69.4231 247.641 70.9091C244.765 72.395 240.834 73.138 235.849 73.138H231.176V78.7463H242.248V85.7207H231.176V93.4141H220.318ZM231.176 64.2223H234.771C237.838 64.2223 240.259 63.695 242.033 62.6405C243.854 61.5859 244.765 59.8843 244.765 57.5355C244.765 53.1735 241.889 50.9925 236.137 50.9925H231.176V64.2223Z" fill="#7DBF29"/>
</svg>
