<svg width="427" height="196" viewBox="0 0 427 196" fill="none" xmlns="http://www.w3.org/2000/svg">
<path d="M1.79632 54.7217C0.804238 40.5343 11.5011 28.229 25.6885 27.2369L181.965 16.3089C188.69 15.8387 194.233 21.3302 199.089 26.0063C201.724 28.5435 205.092 29.9674 208.661 29.7178C212.231 29.4682 215.368 27.5894 217.624 24.7102C221.782 19.4038 226.506 13.1943 233.231 12.7241L389.508 1.79614C403.695 0.804063 416.001 11.501 416.993 25.6883L425.045 140.836C426.037 155.024 415.34 167.329 401.153 168.321L244.876 179.249C238.151 179.719 232.608 174.228 227.752 169.552C225.117 167.015 221.75 165.591 218.18 165.84C214.61 166.09 211.473 167.969 209.217 170.848C205.059 176.154 200.335 182.364 193.61 182.834L37.3331 193.762C23.1457 194.754 10.8403 184.057 9.84825 169.87L1.79632 54.7217Z" fill="white"/>
<path d="M46.4595 110.403V101.493H65.9895V80.1626H75.2595V101.493H94.6995V110.403H75.2595V131.643H65.9895V110.403H46.4595ZM100.904 124.083L106.934 115.353C110.834 119.613 115.364 121.743 120.524 121.743C123.764 121.743 126.554 120.753 128.894 118.773C131.294 116.733 132.494 114.093 132.494 110.853C132.494 107.553 131.294 104.883 128.894 102.843C126.494 100.803 123.434 99.7826 119.714 99.7826C116.174 99.7826 112.874 100.683 109.814 102.483L103.334 100.143L106.304 67.7426H139.964V77.7326H116.384L115.394 88.2626L114.944 91.2326H115.124C116.924 90.2726 119.204 89.7926 121.964 89.7926C128.804 89.7926 134.264 91.8026 138.344 95.8226C142.424 99.8426 144.464 104.823 144.464 110.763C144.464 117.063 142.274 122.313 137.894 126.513C133.514 130.653 128.024 132.723 121.424 132.723C117.524 132.723 113.774 131.973 110.174 130.473C106.574 128.973 103.484 126.843 100.904 124.083ZM187.422 130.203C184.362 131.883 180.732 132.723 176.532 132.723C172.332 132.723 168.672 131.883 165.552 130.203C162.492 128.523 160.092 126.123 158.352 123.003C156.612 119.883 155.322 116.403 154.482 112.563C153.702 108.723 153.312 104.403 153.312 99.6026C153.312 94.8026 153.702 90.4826 154.482 86.6426C155.322 82.8026 156.612 79.3526 158.352 76.2926C160.092 73.2326 162.492 70.8626 165.552 69.1826C168.612 67.5026 172.272 66.6626 176.532 66.6626C191.952 66.6626 199.662 77.6426 199.662 99.6026C199.662 104.403 199.242 108.723 198.402 112.563C197.622 116.403 196.362 119.883 194.622 123.003C192.942 126.123 190.542 128.523 187.422 130.203ZM165.282 99.6026C165.282 114.603 169.032 122.103 176.532 122.103C184.032 122.103 187.782 114.603 187.782 99.6026C187.782 84.7826 184.032 77.3726 176.532 77.3726C169.032 77.3726 165.282 84.7826 165.282 99.6026ZM243.936 130.203C240.876 131.883 237.246 132.723 233.046 132.723C228.846 132.723 225.186 131.883 222.066 130.203C219.006 128.523 216.606 126.123 214.866 123.003C213.126 119.883 211.836 116.403 210.996 112.563C210.216 108.723 209.826 104.403 209.826 99.6026C209.826 94.8026 210.216 90.4826 210.996 86.6426C211.836 82.8026 213.126 79.3526 214.866 76.2926C216.606 73.2326 219.006 70.8626 222.066 69.1826C225.126 67.5026 228.786 66.6626 233.046 66.6626C248.466 66.6626 256.176 77.6426 256.176 99.6026C256.176 104.403 255.756 108.723 254.916 112.563C254.136 116.403 252.876 119.883 251.136 123.003C249.456 126.123 247.056 128.523 243.936 130.203ZM221.796 99.6026C221.796 114.603 225.546 122.103 233.046 122.103C240.546 122.103 244.296 114.603 244.296 99.6026C244.296 84.7826 240.546 77.3726 233.046 77.3726C225.546 77.3726 221.796 84.7826 221.796 99.6026ZM291.899 131.643V122.013H284.699V113.283H291.899V106.263H284.699V95.1026H291.899V67.3826H312.419C320.699 67.3826 326.729 69.0626 330.509 72.4226C334.349 75.7826 336.269 80.4026 336.269 86.2826C336.269 89.7626 335.489 93.0326 333.929 96.0926C332.369 99.1526 329.759 101.613 326.099 103.473C322.499 105.333 317.579 106.263 311.339 106.263H305.489V113.283H319.349V122.013H305.489V131.643H291.899ZM305.489 95.1026H309.989C313.829 95.1026 316.859 94.4426 319.079 93.1226C321.359 91.8026 322.499 89.6726 322.499 86.7326C322.499 81.2726 318.899 78.5426 311.699 78.5426H305.489V95.1026Z" fill="#7DBF29"/>
</svg>
