<svg width="78" height="80" viewBox="0 0 78 80" fill="none" xmlns="http://www.w3.org/2000/svg">
<path fill-rule="evenodd" clip-rule="evenodd" d="M6.43256 11.975C9.75274 12.2221 13.644 13.1003 14.4033 15.7842C14.8324 17.5037 14.9333 19.749 15.0932 21.5274C15.903 30.5772 17.4616 47.8206 23.6991 51.4237C30.3163 55.2655 40.9889 62.1698 48.4653 62.1698C57.6749 62.1698 65.4122 55.3433 67.5891 46.5544C68.4074 43.23 69.153 40.1433 71.5898 37.5961C75.0971 34.0888 74.9047 18.4092 72.6004 14.4254C70.4329 10.5205 68.3432 12.505 66.5553 15.2857C62.6273 21.9439 54.2222 29.2142 46.0832 29.2142C36.5991 29.2142 24.815 25.4145 22.0627 15.1027C20.1602 8.0059 18.569 8.6001 18.569 8.6001C17.3522 9.20377 15.9619 8.24779 16.0629 6.92161L16.2732 4.1094L11.6048 5.46818L9.18482 9.5014C9.08492 9.67072 8.96082 9.81165 8.8241 9.93049L6.43256 11.975ZM41.8901 31.6331C29.6895 28.03 21.6052 50.4414 35.3823 54.5104L49.1783 58.5899C53.1842 59.7741 63.212 54.2822 56.0017 50.4141C59.3534 48.9186 59.2524 46.0191 56.5223 43.8789C56.0658 43.5224 55.5305 43.1837 54.9447 42.8777C56.7599 41.9764 58.2144 40.6229 58.8276 38.2545C59.0421 37.4173 58.4931 36.5444 57.6013 36.2836L41.8901 31.6331ZM40.9752 34.7019L54.7481 38.7761C53.3903 40.4125 50.3636 41.0393 48.154 41.6336C46.0695 42.192 47.0024 45.1777 49.1289 44.7529C50.7012 44.4373 53.0149 45.2282 54.3737 46.2936C57.108 48.4432 49.3666 48.3654 49.3434 48.4474C47.3684 48.5705 47.2811 51.246 49.252 51.6256C61.054 53.9025 50.1617 55.5442 50.0975 55.5211L36.2973 51.4426C26.9646 48.6851 33.2148 32.4103 40.9752 34.7019ZM13.319 7.74088C14.4075 7.74088 15.2857 8.61798 15.2857 9.70648C15.2857 10.795 14.4075 11.6731 13.319 11.6731C12.2305 11.6731 11.3523 10.795 11.3523 9.70648C11.3523 8.61798 12.2305 7.74088 13.319 7.74088ZM54.726 79.2765C56.3855 80.8362 58.7676 78.3121 57.1038 76.7441C56.8241 76.4833 55.4569 74.7501 54.6976 73.7762V64.7717V64.7265C62.6315 62.3255 68.9374 55.5263 70.963 47.3863C71.4751 45.3197 72.3859 41.4832 74.0497 40.056C78.7139 35.3918 78.7139 18.0611 75.6093 12.6796C71.96 6.84379 66.5964 7.86813 63.5601 13.5388C60.281 19.0717 52.9097 25.73 46.0832 25.73C38.3134 25.73 27.7366 22.8631 25.4281 14.2066C23.8085 8.15629 21.4591 6.10761 19.6565 5.50394L19.9404 1.86931C20.0319 0.60729 18.793 -0.311883 17.6225 0.0993262L9.98095 2.31733C9.5424 2.44564 9.19429 2.72854 8.97449 3.09453L6.35474 7.47059L0.611483 12.3725C-0.724158 13.5157 0.300183 15.6927 2.02915 15.4087C2.04703 15.4087 10.4111 14.4401 11.0558 16.7307C11.1925 18.3534 11.5217 20.5304 11.6363 21.8293C12.505 31.5006 14.1698 49.9377 21.9523 54.4326C24.7277 56.0469 28.0026 58.0504 31.4543 59.9161V65.8055L29.7989 64.7033C27.8785 63.4413 25.9813 66.3545 27.8785 67.6028L29.7495 68.8512L24.6867 71.3984C22.6517 72.4227 24.2071 75.5273 26.2505 74.4987L32.7216 71.2427C33.5219 72.2576 34.7198 73.7489 34.9669 73.9813C36.6265 75.541 39.0085 73.0169 37.3448 71.4478C37.065 71.188 35.6978 69.4549 34.9396 68.481V61.7081C39.5533 63.9493 44.2901 65.6551 48.4653 65.6551C49.3939 65.6551 50.3131 65.5952 51.2133 65.4763V71.1007L49.558 69.9986C47.6376 68.7365 45.7404 71.6497 47.6376 72.8981L49.5075 74.1464L44.4457 76.6936C42.4107 77.7179 43.9662 80.8225 46.0096 79.794L52.4806 76.538C53.281 77.5528 54.4788 79.0441 54.726 79.2765Z" fill="#7DBF29"/>
</svg>
