<svg width="63" height="80" viewBox="0 0 63 80" fill="none" xmlns="http://www.w3.org/2000/svg">
<path fill-rule="evenodd" clip-rule="evenodd" d="M29.8834 3.82361C26.8258 3.87085 23.9648 4.0441 22.3271 4.40804C22.3032 4.41335 21.9588 4.53501 21.4157 5.39455C20.9105 6.19401 20.4162 7.34599 19.9579 8.76934C19.046 11.6012 18.3898 15.1436 17.9859 18.168C17.6286 20.8438 15.5686 22.7943 13.3768 23.6231C11.5906 24.2984 9.34988 25.5152 7.32916 27.5359C7.0343 27.8308 6.96205 28.0158 6.94483 28.0763C6.93355 28.116 6.92805 28.1519 6.95789 28.2372C7.0521 28.5064 7.42853 29.0173 8.37516 29.671C9.75692 30.6252 11.7329 31.4653 13.5425 32.068C14.0303 30.8436 14.5716 29.7788 15.2435 28.8794C16.2651 27.5119 17.5242 26.6092 19.1381 26.0096C20.6775 25.4376 22.5274 25.1475 24.7286 24.9281C26.2173 24.7797 27.9629 24.6562 29.9785 24.5137C30.9485 24.4451 31.981 24.372 33.0775 24.2897C43.1027 23.5366 48.308 28.109 50.2582 31.9803C50.3387 31.9362 50.4228 31.8889 50.5105 31.8381C51.5695 31.2254 53.0904 30.1546 55.0725 28.3708C55.5998 27.8962 55.563 27.663 55.5566 27.6225C55.5564 27.6209 55.5562 27.6196 55.5561 27.6186C55.536 27.452 55.3843 27.0504 54.7569 26.4377C53.5122 25.2222 51.2666 24.0151 49.0339 23.0981C47.1801 22.3367 45.7219 20.7018 45.3359 18.6281C44.8557 16.0481 44.0865 12.2398 43.1925 8.66379C42.2317 4.82052 39.1334 3.93948 37.8455 3.93947L37.8022 3.93947L37.759 3.93751C35.9067 3.85332 32.8881 3.77719 29.8834 3.82361ZM47.2457 34.6584C46.5741 32.4115 43.1272 27.3551 33.3629 28.0885C32.213 28.1748 31.1537 28.2497 30.1731 28.3191C28.1968 28.4588 26.5403 28.5759 25.1064 28.7188C22.9572 28.933 21.5189 29.1889 20.4648 29.5806C19.4852 29.9446 18.8455 30.423 18.2954 31.1593C17.6967 31.9609 17.1513 33.1384 16.526 35.0142L16.4944 35.109L16.453 35.2C15.7378 36.7734 15.7098 38.8548 16.1468 41.082C16.5767 43.2734 17.4093 45.3615 18.1184 46.7601C18.1963 46.9138 18.3443 47.1039 18.6216 47.3507C19.2884 47.9442 19.9943 48.685 20.5295 49.4992C20.8741 50.0235 21.2353 50.7103 21.3825 51.4903C23.2689 53.0771 26.2563 54.8351 29.6163 55.4317C33.2152 56.0707 37.2903 55.3998 41.1239 51.5662L41.2454 51.4448L41.3866 51.347C43.4979 49.8853 45.0131 46.9593 45.9812 43.4965C46.894 40.2313 47.2226 36.8423 47.2457 34.6584ZM19.8564 55.1394C19.7037 55.2454 19.5426 55.3432 19.3743 55.4326C18.7345 55.7724 17.9674 56.0091 17.0859 56.1629C17.0379 58.179 17.0292 60.6215 17.1229 62.7212C17.1822 64.0494 17.2796 65.168 17.4159 65.9381C17.8931 65.9511 18.4963 65.9684 19.2001 65.9885C22.2233 66.075 27.104 66.2147 31.8403 66.2978C35.4972 66.362 39.0994 66.3935 41.811 66.346C43.1101 66.3232 44.1717 66.2827 44.9262 66.2228C44.9395 66.0909 44.9529 65.948 44.9663 65.7945C45.0478 64.8615 45.1218 63.6313 45.1865 62.2782C45.287 60.1782 45.3632 57.8269 45.412 55.9233C44.4534 55.6555 43.5948 55.3742 42.9016 55.124C38.3419 59.1739 33.3519 59.9641 28.9503 59.1825C25.3267 58.5391 22.135 56.8444 19.8564 55.1394ZM46.0264 52.1368C46.5713 52.2965 47.1634 52.4551 47.784 52.5998C48.6366 52.7986 49.5292 52.9679 50.4159 53.0787C52.0815 53.2869 53.8312 54.1831 55.3406 55.1799C57.1726 56.3896 58.9531 57.9519 60.2854 59.3614C60.9513 60.0657 61.5387 60.7672 61.9739 61.4003C62.1904 61.7152 62.3935 62.0481 62.5494 62.3816C62.686 62.6739 62.8768 63.1522 62.8768 63.7054V74.2863C62.8768 77.4426 60.318 80 57.1625 80H6.06073C2.98419 80 0.459891 77.5642 0.350085 74.4897L0.00372032 64.7915C-0.0311366 63.8155 0.175457 62.7558 0.77114 61.8106C2.12731 59.6586 4.6355 56.6977 8.11854 54.7011C10.1214 53.5529 12.4739 52.709 15.121 52.5533C16.5269 52.4706 17.2573 52.2435 17.5873 52.0682C17.5911 52.0662 17.5948 52.0642 17.5984 52.0623C17.5605 51.9623 17.4876 51.807 17.346 51.5915C17.0528 51.1455 16.6022 50.6532 16.0888 50.1963C15.6192 49.7783 15.0949 49.221 14.7207 48.4829C13.8898 46.8441 12.9199 44.4221 12.4085 41.8154C12.032 39.8962 11.8762 37.7353 12.316 35.6748C10.2923 34.9994 7.97138 34.0218 6.21042 32.8057C5.0671 32.0162 3.86322 30.9274 3.36213 29.4954C3.09433 28.73 3.03744 27.8898 3.28044 27.0348C3.51751 26.2007 4.00522 25.4724 4.63542 24.8422C7.10583 22.3718 9.83574 20.8892 12.0294 20.0597C13.2608 19.5942 14.0828 18.6156 14.2099 17.6638C14.6274 14.5374 15.3203 10.7425 16.3317 7.60168C16.8351 6.03866 17.4459 4.5454 18.1952 3.35961C18.9065 2.2339 19.9659 1.0303 21.5007 0.68923C23.5632 0.230896 26.7836 0.0615259 29.8246 0.0145447C32.8974 -0.0329297 35.9734 0.0437454 37.8927 0.13014C40.3899 0.150149 45.3918 1.7538 46.8883 7.73984C47.8078 11.418 48.593 15.3084 49.0811 17.931C49.2115 18.6317 49.7244 19.2634 50.4812 19.5742C52.817 20.5335 55.6291 21.9648 57.4184 23.7121C58.308 24.5807 59.1673 25.7415 59.3383 27.1638C59.5262 28.7262 58.8358 30.109 57.6209 31.2024C55.4916 33.1188 53.7576 34.3606 52.4183 35.1355C51.9048 35.4326 51.4387 35.6672 51.0214 35.8459C50.9099 38.241 50.5188 41.4147 49.65 44.5222C48.9141 47.1545 47.7802 49.9409 46.0264 52.1368ZM49.2007 56.7549C49.1514 58.5308 49.0812 60.5898 48.9917 62.4603C48.9261 63.8309 48.8494 65.119 48.7614 66.1261C48.7176 66.627 48.669 67.0827 48.614 67.4543C48.5866 67.6392 48.5543 67.8265 48.5147 67.9999C48.4833 68.1378 48.4182 68.4039 48.2858 68.6687C48.0857 69.0689 47.8001 69.3043 47.6355 69.4203C47.4591 69.5446 47.2922 69.6222 47.1785 69.669C46.9527 69.7618 46.7283 69.8165 46.5612 69.8512C46.2134 69.9234 45.7933 69.9726 45.3566 70.0098C44.4661 70.0857 43.2623 70.1306 41.8778 70.1549C39.0969 70.2037 35.44 70.1711 31.7735 70.1067C26.8707 70.0207 22.0026 69.88 19.0464 69.7946C17.5322 69.7508 16.5196 69.7216 16.2607 69.7216C15.5519 69.7216 15.0255 69.3855 14.7086 69.0739C14.4135 68.7838 14.2348 68.4588 14.1268 68.2255C13.9091 67.755 13.7756 67.2035 13.6828 66.7022C13.4906 65.6644 13.3803 64.3055 13.3172 62.891C13.228 60.8925 13.2272 58.6287 13.2645 56.6766C12.4639 56.8772 11.6985 57.1597 10.9706 57.5049V76.1905H52.3862V57.8297C51.3966 57.2605 50.5561 56.9354 49.9434 56.8588C49.6946 56.8277 49.4468 56.7929 49.2007 56.7549ZM56.1958 60.6835V76.1905H57.1625C58.2148 76.1905 59.0672 75.3379 59.0672 74.2863V63.9329C59.0223 63.8481 58.9482 63.7235 58.8346 63.5583C58.5461 63.1387 58.0982 62.5931 57.517 61.9783C57.1181 61.5563 56.6722 61.1183 56.1958 60.6835ZM59.1173 64.0406C59.1169 64.0404 59.114 64.0335 59.1097 64.0205C59.1156 64.0342 59.1177 64.0408 59.1173 64.0406ZM7.16106 76.1905V60.0997C5.76811 61.3648 4.69148 62.735 3.99407 63.8416C3.87808 64.0257 3.79803 64.2975 3.81082 64.6555L4.15718 74.3537C4.19378 75.3786 5.03522 76.1905 6.06073 76.1905H7.16106Z" fill="#7DBF29"/>
</svg>
