<svg width="60" height="80" viewBox="0 0 60 80" fill="none" xmlns="http://www.w3.org/2000/svg">
<path fill-rule="evenodd" clip-rule="evenodd" d="M37.1267 41.6686L37.6828 42.7481C40.5624 48.3379 46.7419 60.3574 48.3764 63.6264C48.8922 64.6579 49.1516 65.6863 49.0761 66.6867C48.9985 67.7137 48.5786 68.5594 47.9958 69.2032C46.9094 70.4031 45.3367 70.839 44.3395 70.9499L44.2519 70.9596L16.1664 71.4702H16.1491C15.3042 71.4702 14.042 71.2664 12.9231 70.5759C11.7027 69.8228 10.6833 68.4873 10.6833 66.5131C10.6833 65.8749 10.888 65.1405 11.091 64.5212C11.3159 63.8349 11.6306 63.028 12.0023 62.1494C12.7475 60.3882 13.7684 58.2314 14.888 55.9752C17.13 51.4571 19.8149 46.4455 21.6042 43.2078L22.1231 42.2687L37.1267 41.6686ZM24.4218 45.9894C22.6759 49.1754 20.3043 53.6305 18.3005 57.6685C17.1944 59.8976 16.2122 61.9759 15.5107 63.6338C15.1591 64.4648 14.8895 65.1633 14.711 65.7078C14.5481 66.2048 14.5059 66.4443 14.4957 66.5016C14.4934 66.5148 14.4928 66.5183 14.4928 66.5131C14.4928 66.8004 14.5583 66.9529 14.6095 67.038C14.6665 67.1327 14.7617 67.2341 14.9238 67.3341C15.2837 67.5562 15.7928 67.6579 16.135 67.6606L43.9933 67.1541C44.1982 67.1248 44.439 67.0647 44.6645 66.9704C44.9218 66.8628 45.0848 66.7424 45.1717 66.6465C45.2375 66.5737 45.269 66.5102 45.2773 66.3999C45.2877 66.2631 45.2673 65.9265 44.9691 65.33C43.4454 62.2827 37.909 51.5089 34.8521 45.5722L24.4218 45.9894Z" fill="#7DBF29"/>
<path fill-rule="evenodd" clip-rule="evenodd" d="M17.8185 0.834385C18.7446 0.157107 19.7978 0 20.6095 0H38.8205C39.9604 0 41.2982 0.328422 42.3331 1.31735C43.4935 2.42623 44.2379 3.75949 44.0617 5.26799C43.8969 6.67953 42.9788 7.67555 42.2367 8.29622C41.4653 8.94135 40.5562 9.44928 39.8964 9.80862C39.7995 9.86141 39.7096 9.91008 39.6256 9.95557C39.3992 10.0781 39.2155 10.1776 39.0522 10.2722C39.0006 10.5356 38.9521 10.9184 38.9144 11.4256C38.8334 12.5152 38.8164 13.9733 38.8478 15.6038C38.9103 18.855 39.1612 22.6192 39.411 25.1167C39.4503 25.5104 39.6442 26.2806 40.0594 27.471C40.4593 28.6178 41.0178 30.0258 41.7014 31.6366C43.0677 34.856 44.8973 38.8001 46.8658 42.9276C48.4025 46.1496 50.0283 49.4921 51.5754 52.6728C53.9673 57.5903 56.1711 62.1212 57.5668 65.2227C59.8637 70.3269 60.1847 73.5025 58.7623 75.6908C58.1151 76.6864 57.2169 77.2582 56.6867 77.5958L56.6393 77.626C56.1141 77.9609 56.0065 78.0637 55.9976 78.0674C55.7167 78.615 55.2706 78.8916 55.068 79.004C54.8211 79.1409 54.5697 79.2299 54.3677 79.2905C53.9579 79.4135 53.4705 79.5012 52.9668 79.5696C51.9424 79.7089 50.5618 79.8055 48.9447 79.8721C45.6953 80.0059 41.2968 80.0251 36.4501 79.974C26.7468 79.8716 15.1341 79.4861 7.06579 79.1491C5.94129 79.1021 4.7322 78.7234 3.77266 77.8234C2.98517 77.0848 2.07097 76.068 1.34153 74.8749C0.620115 73.6951 0 72.212 0 70.5829C0 70.1378 0.110877 69.6618 0.21046 69.2932C0.32294 68.8769 0.480341 68.3917 0.6692 67.8587C1.04788 66.7899 1.58706 65.4337 2.2416 63.8745C3.55285 60.751 5.3648 56.724 7.37898 52.3749C11.4095 43.6719 16.2797 33.615 19.6478 26.7787C19.7752 26.52 19.8404 26.2408 19.8404 25.9433V11.3814C19.8404 10.7216 19.4413 9.97417 18.6167 9.39139C16.7193 8.05047 15.5474 6.42844 15.6191 4.55882C15.6875 2.77454 16.8716 1.52687 17.8185 0.834385ZM20.6095 3.80952C20.2384 3.80952 20.0959 3.88843 20.0673 3.90937C19.5215 4.3085 19.4292 4.61758 19.4258 4.70477C19.4254 4.71195 19.3936 5.27559 20.8153 6.28037C22.3474 7.36317 23.6499 9.15525 23.6499 11.3814V25.9433C23.6499 26.8155 23.4546 27.6718 23.0651 28.4624C19.7046 35.2831 14.8489 45.3103 10.8358 53.9758C8.82813 58.3109 7.03876 62.2891 5.75416 65.3491C5.11078 66.8817 4.6034 68.1617 4.26 69.131C4.08782 69.6169 3.9653 70.0012 3.88812 70.2868C3.82777 70.5102 3.81301 70.6102 3.80984 70.6231C3.82018 71.2889 4.08687 72.0621 4.59168 72.8877C5.09863 73.7169 5.76991 74.4737 6.37884 75.0448C6.54011 75.1961 6.81391 75.3257 7.22476 75.3429C15.2725 75.679 26.8419 76.0629 36.4902 76.1646C41.3192 76.2156 45.639 76.1954 48.788 76.0658C50.3702 76.0007 51.609 75.9096 52.4537 75.7948C52.6908 75.7626 52.8761 75.7311 53.0162 75.7029C53.5124 75.0901 54.1349 74.7001 54.4893 74.478C54.5263 74.4549 54.5604 74.4335 54.5911 74.4139C55.1653 74.0478 55.4084 73.8606 55.5682 73.6147C55.7992 73.2593 56.3745 71.8564 54.0928 66.786C52.7159 63.7262 50.5614 59.2974 48.1957 54.4343C46.6438 51.2442 45.0011 47.8673 43.4273 44.5675C41.4532 40.4283 39.5945 36.4234 38.1946 33.1248C37.4951 31.4765 36.901 29.9832 36.4623 28.7255C36.0389 27.5113 35.7082 26.3738 35.6203 25.4957C35.3614 22.9059 35.1036 19.0393 35.0389 15.677C35.0067 14.0007 35.0215 12.4065 35.1154 11.1432C35.1619 10.5166 35.2316 9.91861 35.34 9.41146C35.3942 9.15818 35.4671 8.88432 35.571 8.62134C35.6645 8.38487 35.8392 8.00964 36.1688 7.68007C36.4833 7.36556 36.8865 7.12455 37.1347 6.98045C37.3529 6.85382 37.6108 6.71422 37.8554 6.58187C37.9301 6.54142 38.0036 6.50164 38.0743 6.46312C38.7402 6.10046 39.3433 5.74982 39.7927 5.37397C40.1685 5.05965 40.2562 4.87662 40.2742 4.83183C40.2536 4.74813 40.1511 4.50144 39.7012 4.07153C39.5719 3.94799 39.2909 3.80952 38.8205 3.80952H20.6095ZM40.2783 4.86443C40.2774 4.86436 40.276 4.85694 40.2766 4.84237C40.2795 4.85721 40.2792 4.8645 40.2783 4.86443Z" fill="#7DBF29"/>
</svg>
