<svg width="117" height="101" viewBox="0 0 117 101" fill="none" xmlns="http://www.w3.org/2000/svg">
<path d="M20.247 95.876C8.5311 89.9457 19.0754 82.9372 27.8623 81.3198C27.9302 81.3094 27.9975 81.3012 28.0641 81.2951C28.4956 80.6745 29.2094 80.2416 30.2054 80.2416C35.2608 80.2416 40.3807 80.1822 45.5223 80.1225C55.8711 80.0025 66.3078 79.8814 76.4831 80.2416C76.843 80.2416 77.2662 80.2374 77.741 80.2327C82.6756 80.1843 93.1938 80.081 96.4 84.0154C102.844 92.1022 88.7847 98.0325 82.341 99.1108C76.0249 100.273 69.1035 100.043 62.4471 99.8217C59.843 99.7351 57.2796 99.6499 54.8087 99.6499C53.3527 99.6499 51.7841 99.6729 50.1375 99.6971C40.5219 99.8384 28.2493 100.019 20.247 95.876Z" fill="#A69895"/>
<path d="M55.1859 19.5809C47.1169 14.1796 35.6859 15.5299 28.2893 22.2815C20.8928 29.0331 18.2031 39.1605 18.2031 48.6127C18.2031 61.4407 24.2548 74.9439 34.3411 83.0458C37.0307 85.0713 39.7204 87.0968 43.0824 88.4471C46.4445 89.7974 49.8066 90.4726 53.1686 90.4726C63.2548 91.1478 73.3411 88.4471 82.0824 83.0458C85.4445 81.0204 88.1342 78.9949 90.1514 75.6191C91.4962 74.2688 92.1686 72.2433 92.841 70.2178C98.2204 58.0649 98.8928 43.8866 96.2031 31.0586C94.8583 25.6573 92.1686 19.5809 87.4617 17.5554C84.0997 16.2051 80.0652 16.2051 76.7031 16.2051C73.341 16.2051 69.979 16.8802 67.2893 17.5554C63.9273 17.5554 60.5652 18.2306 58.548 20.9312" fill="#7DBF29"/>
<path d="M57.2019 16.2057C34.3398 4.72799 14.8398 26.3331 14.8398 48.6133C14.8398 75.6197 36.3571 97.2248 63.9261 93.1739C91.495 89.1229 103.598 66.8426 101.581 40.5114C100.909 31.0592 98.2192 18.9063 89.4778 14.1802C80.7364 9.4541 65.2709 12.8299 57.8743 18.2312C53.8398 20.2567 57.2019 26.3331 60.564 23.6324C67.9605 18.2312 83.426 15.5305 90.1502 24.3076C94.1847 29.7089 94.8571 39.1611 94.8571 45.2375C94.8571 60.0911 90.1502 74.9446 76.0295 82.3713C55.1847 92.4987 31.6502 85.0719 23.5812 62.1165C17.5295 43.8872 28.2881 9.4541 53.8398 22.2821C57.2019 24.3076 60.564 18.2312 57.2019 16.2057Z" fill="#5B4B41"/>
<path d="M48.4648 47.2627C48.4648 46.5876 47.7924 45.9124 47.7924 45.2373C48.4648 44.5621 49.1372 43.887 49.8096 43.887C50.482 43.887 51.1544 44.5621 51.1544 44.5621C49.1372 40.5112 43.0855 43.887 45.7751 47.9379C47.7924 50.6385 51.1544 51.9889 53.8441 48.6131C55.8613 45.2373 53.8441 41.8615 50.482 40.5112C46.4475 39.836 44.4303 45.9124 48.4648 47.2627Z" fill="#5B4B41"/>
<path d="M67.2834 46.5882C65.9385 46.5882 65.2661 46.5882 63.9213 46.5882C62.5765 50.6391 68.6282 52.6646 70.6454 48.6136C71.9903 45.913 71.3178 42.5372 68.6282 41.1869C65.9385 39.8366 63.2489 40.5117 61.904 43.2124C59.2144 47.2633 65.2661 50.6391 67.2834 46.5882Z" fill="#5B4B41"/>
<path d="M93.5153 49.288C100.912 45.237 108.308 41.8612 115.033 37.8103C118.395 35.7848 115.033 29.7084 111.671 31.7338C104.946 36.4599 96.8774 39.8357 90.1533 43.2115C86.1188 45.9122 89.4809 51.3135 93.5153 49.288Z" fill="#5B4B41"/>
<path d="M26.2719 42.5356C19.5478 37.1343 12.1512 31.733 4.75468 27.0069C1.39261 24.9814 -1.96945 30.3827 1.39261 33.0834C8.11675 37.1343 15.5133 42.5356 21.565 47.9369C24.9271 49.9623 29.634 45.2362 26.2719 42.5356Z" fill="#5B4B41"/>
<path d="M44.4255 62.7917C49.8048 72.2439 62.5807 73.5942 69.9773 64.8172C72.6669 61.4414 67.96 56.7152 65.2704 60.091C61.2359 65.4923 53.8393 65.4923 50.4773 59.4159C48.46 56.0401 42.4083 59.4159 44.4255 62.7917Z" fill="#5B4B41"/>
<path d="M61.9077 18.9059C62.5801 13.5046 65.2698 9.45364 69.3043 6.75301C72.6664 4.05237 69.3043 -2.02406 65.9422 0.676573C59.8905 5.40269 55.856 10.804 55.1836 18.9059C55.1836 22.9568 61.9077 22.9568 61.9077 18.9059Z" fill="#5B4B41"/>
</svg>
