<svg width="213" height="207" viewBox="0 0 213 207" fill="none" xmlns="http://www.w3.org/2000/svg">
<path d="M94.413 190.553C96.3601 186.923 109.035 185.514 109.035 185.514C109.035 185.514 123.363 179.742 130.729 179.326C136.99 178.972 153.156 179.807 169.363 181.479C172.272 181.78 159.57 189.264 162.425 189.617C167.53 190.247 189.655 188.448 195.437 186.3C212.909 189.374 219.563 191.793 201.178 196.289C178.615 203.039 138.515 201.446 108.828 199.636C103.507 199.311 90.4356 197.97 94.413 190.553Z" fill="#EBE8E3"/>
<path d="M67.0742 60.4481C67.0746 38.936 77.5664 38.1465 85.5933 23.1028C85.6451 21.2835 85.5933 14.1548 85.5933 12.1425C80.6407 12.1425 78.2982 6.17518 82.0277 0.855506C82.4198 0.296232 83.0803 0 83.7634 0H104.575C104.575 0 103.799 14.1448 104.575 23.1028C105.651 35.5185 112.175 41.3057 112.175 53.8293C112.175 70.3198 112.045 90.1992 111.876 109.174L88.9501 178.089H77.482C78.8312 143.821 81.8987 74.1146 80.3731 72.97C79.1123 72.024 71.3863 72.4073 67.1174 72.97C67.0907 67.707 67.0742 63.4009 67.0742 60.4481Z" fill="white"/>
<path d="M68.5237 178.089H127.209V186.184H66.4961C67.8228 183.454 68.2307 180.98 68.5237 178.089Z" fill="#EBE8E3"/>
<path fill-rule="evenodd" clip-rule="evenodd" d="M113.813 2.31285C114.232 2.31285 114.533 2.51682 114.656 2.76199C115.585 4.60768 115.928 6.64461 115.55 8.11756C115.367 8.8299 115.027 9.37644 114.536 9.75177C114.044 10.1274 113.3 10.4078 112.175 10.4078H111.018V11.5642C111.018 12.069 111.014 13.0261 111.009 14.2015C110.994 17.6111 110.971 22.8576 111.019 24.2262L111.031 24.5532L111.212 24.8256C113.756 28.652 116.336 31.5671 118.753 34.1092C119.444 34.8361 120.114 35.5259 120.764 36.1942C122.41 37.8864 123.921 39.441 125.289 41.1125C128.998 45.6441 131.558 50.9384 131.558 61.4108V82.6844H133.871V61.4108C133.871 50.44 131.148 44.6193 127.079 39.6477C125.644 37.8943 124.029 36.2331 122.355 34.5122C121.719 33.8581 121.075 33.1954 120.429 32.5158C118.119 30.0854 115.704 27.357 113.322 23.8199C113.287 22.1318 113.307 17.4878 113.321 14.3136C113.324 13.6872 113.327 13.118 113.329 12.6401C114.345 12.4916 115.221 12.1386 115.94 11.59C116.917 10.8432 117.504 9.81014 117.79 8.69258C118.352 6.50575 117.809 3.88168 116.723 1.72251C116.143 0.57129 114.957 0 113.813 0H104.08V2.31285H113.813Z" fill="white"/>
<path d="M56.0967 77.4801H23.7171C23.7171 97.4862 21.8597 153.603 29.4993 169.835C32.8412 173.177 54.0909 172.43 61.4134 169.835L56.0967 77.4801Z" fill="white"/>
<path fill-rule="evenodd" clip-rule="evenodd" d="M21.9824 76.9022C21.9824 76.2635 22.5002 75.7457 23.1388 75.7457H56.097V78.0586H23.1388C22.5002 78.0586 21.9824 77.5408 21.9824 76.9022Z" fill="white"/>
<path d="M75.1691 178.089V80.9496C75.1691 79.0336 73.6175 77.4804 71.7015 77.4804L55.8654 77.4803C55.8654 94.5655 55.12 110.336 55.8654 122.423C56.43 131.577 56.7197 135.358 56.8526 143.681C56.8888 145.949 56.8526 147.307 56.8526 149.488C44.0995 143.18 27.322 148.908 25.5499 152.973C23.7779 157.038 44.4096 168.166 57.4531 174.371C58.0506 174.656 58.6416 177.79 59.2249 178.049C63.3592 178.049 67.0776 178.179 69.9652 178.089H75.1691Z" fill="#F3F0EB"/>
<path d="M94.8283 178.089V87.2674C94.8283 86.5912 94.25 86.0612 93.5744 86.0901C87.7128 86.3406 83.9083 84.8782 77.4819 86.0115V178.089H94.8283Z" fill="#F3F0EB"/>
<path fill-rule="evenodd" clip-rule="evenodd" d="M22.8969 75.8442C22.2582 75.8519 21.7468 76.3758 21.7545 77.0145C21.8004 80.831 21.9081 84.6013 22.0155 88.3613C22.1564 93.2923 22.2967 98.2058 22.2967 103.183C22.2967 107.297 22.3646 111.411 22.4323 115.515L22.4324 115.522C22.5003 119.631 22.5679 123.731 22.5679 127.829C22.5679 134.968 22.84 142.187 23.111 149.235C23.142 150.041 23.1907 150.81 23.2382 151.561C23.3111 152.713 23.3814 153.823 23.3814 154.961C23.3814 160.532 26.2053 165.771 30.4654 169.017C30.9734 169.404 31.6991 169.306 32.0861 168.798C32.4732 168.29 32.3751 167.564 31.8671 167.177C28.141 164.338 25.6942 159.761 25.6942 154.961C25.6942 153.775 25.6153 152.509 25.5392 151.285C25.4933 150.547 25.4483 149.825 25.4222 149.146C25.1509 142.093 24.8807 134.917 24.8807 127.829C24.8807 123.709 24.8128 119.591 24.745 115.486L24.745 115.484C24.6772 111.375 24.6095 107.278 24.6095 103.183C24.6095 98.212 24.4673 93.2062 24.3256 88.2213C24.2186 84.4565 24.1119 80.7036 24.0671 76.9866C24.0594 76.348 23.5355 75.8365 22.8969 75.8442Z" fill="white"/>
<path fill-rule="evenodd" clip-rule="evenodd" d="M75.761 75.8608C76.3996 75.8685 76.9111 76.3924 76.9034 77.0311C76.8331 82.861 76.8565 88.857 76.8798 94.8109C76.8913 97.7644 76.9028 100.708 76.9028 103.615L76.9034 127.9C76.9034 130.424 77.0132 136.564 77.1412 143.721C77.3692 156.471 77.6549 172.45 77.4808 176.977C77.4562 177.615 76.919 178.113 76.2808 178.088C75.6426 178.064 75.1451 177.526 75.1696 176.888C75.3418 172.411 75.0601 156.703 74.8326 144.017C74.7028 136.775 74.5906 130.519 74.5906 127.9L74.59 103.615C74.59 100.727 74.5785 97.7942 74.567 94.8455C74.5437 88.8803 74.5202 82.851 74.5907 77.0032C74.5984 76.3646 75.1223 75.8531 75.761 75.8608Z" fill="white"/>
<path fill-rule="evenodd" clip-rule="evenodd" d="M19.2563 97.4549C19.2563 96.8162 19.7741 96.2985 20.4128 96.2985H28.0722C28.7109 96.2985 29.2286 96.8162 29.2286 97.4549C29.2286 98.0936 28.7109 98.6113 28.0722 98.6113H20.4128C19.7741 98.6113 19.2563 98.0936 19.2563 97.4549Z" fill="#F3F0EB"/>
<path fill-rule="evenodd" clip-rule="evenodd" d="M39.9817 97.4549C39.9817 96.8162 40.4994 96.2985 41.1381 96.2985H64.1164C64.7551 96.2985 65.2729 96.8162 65.2729 97.4549C65.2729 98.0936 64.7551 98.6113 64.1164 98.6113H41.1381C40.4994 98.6113 39.9817 98.0936 39.9817 97.4549Z" fill="#F3F0EB"/>
<path fill-rule="evenodd" clip-rule="evenodd" d="M119.102 47.1953C119.222 47.8225 118.811 48.4286 118.184 48.5489C117.776 48.6272 117.043 48.6862 116.127 48.7368C115.181 48.789 113.962 48.8359 112.53 48.8774C109.664 48.9604 105.925 49.0227 101.779 49.0624C101.14 49.0686 100.617 48.5558 100.611 47.9172C100.605 47.2785 101.118 46.7558 101.756 46.7497C105.895 46.71 109.618 46.6479 112.463 46.5655C113.886 46.5243 115.083 46.4781 115.999 46.4274C116.945 46.3752 117.52 46.3213 117.748 46.2775C118.375 46.1572 118.981 46.5681 119.102 47.1953ZM61.8863 47.2859C61.9566 46.6511 62.5283 46.1935 63.1631 46.2638C66.2715 46.6083 77.132 46.7813 88.4704 46.7996C89.1091 46.8007 89.626 47.3193 89.625 47.9579C89.6239 48.5966 89.1054 49.1135 88.4667 49.1125C77.1941 49.0943 66.1744 48.9246 62.9083 48.5626C62.2735 48.4923 61.8159 47.9206 61.8863 47.2859Z" fill="#F3F0EB"/>
<path fill-rule="evenodd" clip-rule="evenodd" d="M58.4099 74.011C58.4099 73.3724 58.9277 72.8546 59.5663 72.8546H79.2256C79.8642 72.8546 80.382 73.3724 80.382 74.011C80.382 74.6497 79.8642 75.1675 79.2256 75.1675H59.5663C58.9277 75.1675 58.4099 74.6497 58.4099 74.011Z" fill="#F3F0EB"/>
<path fill-rule="evenodd" clip-rule="evenodd" d="M51.4714 76.9022C51.4714 76.2635 51.9892 75.7457 52.6279 75.7457H75.7564C76.395 75.7457 76.9128 76.2635 76.9128 76.9022C76.9128 77.5408 76.395 78.0586 75.7564 78.0586H52.6279C51.9892 78.0586 51.4714 77.5408 51.4714 76.9022Z" fill="white"/>
<path fill-rule="evenodd" clip-rule="evenodd" d="M79.2257 72.8546C79.8643 72.8546 80.3821 73.3724 80.3821 74.011L80.3821 92.3637C80.3821 93.0023 79.8643 93.5201 79.2257 93.5201C78.587 93.5201 78.0692 93.0023 78.0692 92.3637L78.0692 74.011C78.0692 73.3724 78.587 72.8546 79.2257 72.8546Z" fill="#F3F0EB"/>
<path fill-rule="evenodd" clip-rule="evenodd" d="M147.477 72.0497C147.602 71.4235 148.211 71.0173 148.838 71.1426C150.724 71.5199 152.758 71.8484 154.877 72.1907C155.983 72.3695 157.113 72.552 158.257 72.7472C161.559 73.3104 164.936 73.9726 167.99 74.9371C168.966 75.2454 169.944 75.8894 170.904 76.7266C171.874 77.573 172.887 78.6717 173.93 79.97C176.016 82.5663 178.289 86.0448 180.647 90.1124C185.367 98.2532 190.497 108.869 195.235 119.791C199.974 130.716 204.334 141.974 207.512 151.407C209.1 156.124 210.397 160.396 211.298 163.949C212.192 167.473 212.721 170.383 212.721 172.331C212.721 177.291 210.195 180.959 206.417 183.615C202.679 186.244 197.662 187.931 192.445 189.04C183.413 190.96 173.427 191.21 167.661 191.354C166.808 191.375 166.047 191.394 165.396 191.416C157.214 193.151 148.762 192.796 140.574 192.451C138.597 192.367 136.636 192.285 134.698 192.232C134.06 192.215 133.556 191.684 133.573 191.045C133.59 190.407 134.122 189.903 134.76 189.92C136.778 189.975 138.793 190.059 140.803 190.143C149 190.486 157.116 190.825 165.012 189.133C168.55 188.375 171.656 186.989 175.028 185.209C178.468 183.394 179.735 180.061 179.764 176.167C179.792 172.25 178.546 167.978 177.188 164.762C168.126 143.298 158.207 117.323 149.657 94.9339C146.951 87.8463 144.381 81.1181 142.02 75.0062C141.79 74.4104 142.086 73.7409 142.682 73.5107C143.278 73.2805 143.947 73.5769 144.177 74.1726C146.546 80.3026 149.12 87.0436 151.83 94.14C160.377 116.522 170.274 142.439 179.319 163.862C180.741 167.23 182.108 171.831 182.076 176.183C182.045 180.559 180.58 184.894 176.108 187.255C175.012 187.833 173.929 188.379 172.837 188.881C178.401 188.658 185.44 188.165 191.964 186.778C197.059 185.695 201.722 184.089 205.087 181.723C208.41 179.386 210.408 176.36 210.408 172.331C210.408 170.693 209.946 168.025 209.056 164.518C208.174 161.04 206.897 156.828 205.32 152.146C202.166 142.782 197.831 131.585 193.113 120.711C188.394 109.833 183.305 99.3064 178.646 91.2725C176.316 87.2528 174.11 83.8861 172.127 81.4186C171.136 80.1848 170.217 79.1969 169.383 78.4694C168.539 77.7327 167.841 77.3154 167.293 77.1426C164.397 76.2278 161.149 75.5866 157.868 75.0271C156.772 74.84 155.665 74.6612 154.569 74.484C152.421 74.1368 150.311 73.7959 148.384 73.4105C147.758 73.2852 147.352 72.676 147.477 72.0497Z" fill="white"/>
<path d="M108.564 187.168C106.169 186.062 102.251 183.798 101.613 180.928C99.4633 174.042 102.617 163.916 105.245 157.852C117.173 130.325 127.311 101.729 142.52 75.7458C142.897 76.69 144.061 79.6328 144.255 80.3715C155.964 109.543 166.331 136.636 178.254 164.873C181.034 171.457 183.479 182.618 175.568 186.793C172.159 188.592 169.027 189.992 165.339 190.782C155.329 192.927 143.972 193.397 133.847 193.123C124.658 192.875 117.046 191.083 108.564 187.168Z" fill="white"/>
<path d="M135.661 120.119C135.475 116.731 138.986 113.762 142.287 114.516C145.948 115.352 147.517 121.288 144.748 123.831C141.923 126.426 135.871 123.954 135.661 120.119Z" fill="#F3F0EB"/>
<path d="M127.061 147.339C127.061 140.401 130.696 136.893 137.326 136.893C144.556 138.196 149.624 144.734 145.681 151.636C141.401 159.126 127.061 154.967 127.061 147.339Z" fill="#F3F0EB"/>
<path d="M153.319 177.895C150.364 174.175 151.917 167.977 155.847 165.996C161.505 163.143 170.984 170.256 165.732 177.894C163.089 181.739 156.222 181.547 153.319 177.895Z" fill="#F3F0EB"/>
<path d="M128.25 166.743C133.948 172.777 127.697 181.482 120.352 177.809C117.502 176.385 116.645 172.348 117.257 169.595C118.43 164.317 124.448 162.718 128.25 166.743Z" fill="#F3F0EB"/>
<path d="M35.2429 185.966C49.2266 182.108 63.3327 172.667 61.5444 163.486C59.9305 154.998 43.6226 154.08 35.997 154.08C-3.80324 154.165 -13.7932 199.497 35.2429 185.966Z" fill="white"/>
<path d="M91.9367 201.218C91.9367 204.411 83.5072 207 59.5569 207C35.6065 207 16.1909 204.411 16.1909 201.218C16.1909 200.345 17.6414 199.517 20.2384 198.775C41.7455 204.433 56.4824 199.223 59.5569 195.436C83.5072 195.436 91.9367 198.024 91.9367 201.218Z" fill="#EBE8E3"/>
<path fill-rule="evenodd" clip-rule="evenodd" d="M31.7971 152.149C38.2421 151.754 42.2557 151.892 48.577 153.776C53.6845 155.298 57.0553 156.346 61.2231 159.908C67.9823 165.686 69.5443 173.105 68.0778 181.277C67.9649 181.905 67.3639 182.324 66.7353 182.211C66.1066 182.098 65.6885 181.497 65.8013 180.868C67.1611 173.291 65.706 166.783 59.7203 161.666C55.9491 158.443 52.9895 157.504 47.9165 155.992C41.9363 154.21 38.213 154.073 31.9386 154.457C24.3902 154.92 17.2115 158.356 13.5709 160.742C13.5615 160.748 13.552 160.754 13.5424 160.76C10.2027 162.812 7.20039 165.256 4.91447 168.877C4.03227 170.274 3.62951 171.484 3.19214 172.798C3.07849 173.14 2.9625 173.488 2.83515 173.849C2.29461 175.379 2.30658 177.035 2.32012 178.909C2.32228 179.209 2.32448 179.513 2.32448 179.824C2.32448 181.881 2.3762 183.379 2.71157 184.786C3.03993 186.164 3.65634 187.513 4.8748 189.204C7.24248 192.489 11.1044 194.778 15.5168 196.363C19.9149 197.943 24.7397 198.78 28.8841 199.241C29.2725 199.284 29.6273 199.326 29.9617 199.365C31.2137 199.511 32.1814 199.624 33.5714 199.673C33.6918 199.677 33.81 199.682 33.9264 199.686C36.6813 199.784 38.3838 199.844 41.1665 199.675C44.7625 199.455 46.6812 199.336 49.976 198.288C51.3392 197.854 52.3094 197.301 53.3636 196.699C53.7758 196.464 54.2007 196.221 54.667 195.975C55.2321 195.678 55.9315 195.895 56.2291 196.46C56.5268 197.025 56.3099 197.724 55.7448 198.022C55.4013 198.203 55.047 198.405 54.6751 198.617C53.5628 199.253 52.2925 199.978 50.6772 200.492C47.1025 201.629 44.9421 201.761 41.3404 201.981L41.3074 201.983C38.4119 202.16 36.6123 202.096 33.8632 201.998C33.7406 201.993 33.6161 201.989 33.4896 201.985C31.9986 201.932 30.9261 201.806 29.6578 201.658C29.3311 201.62 28.9915 201.58 28.6284 201.54C24.3949 201.069 19.3715 200.205 14.735 198.54C10.1128 196.88 5.75383 194.38 2.99844 190.556C1.64177 188.674 0.873885 187.051 0.461748 185.322C0.0566213 183.622 0.0116287 181.878 0.0116287 179.824C0.0116287 179.551 0.00885518 179.269 0.00601712 178.981C-0.0121511 177.137 -0.0329625 175.025 0.654308 173.079C0.75843 172.784 0.85959 172.478 0.964063 172.163C1.40831 170.822 1.91244 169.3 2.95877 167.642C5.49461 163.626 8.80522 160.958 12.3173 158.798C16.1751 156.273 23.7316 152.643 31.7971 152.149ZM64.5851 187.948C65.1288 188.283 65.2979 188.995 64.9627 189.539C64.2547 190.688 63.4507 191.761 62.5598 192.755C62.1337 193.231 61.4026 193.271 60.9269 192.845C60.4511 192.419 60.411 191.688 60.8371 191.212C61.6374 190.319 62.3588 189.356 62.9938 188.325C63.329 187.782 64.0414 187.613 64.5851 187.948Z" fill="white"/>
<path fill-rule="evenodd" clip-rule="evenodd" d="M143.412 73.0128C143.964 73.3352 144.149 74.0435 143.827 74.5949C133.959 91.4697 125.058 111.321 117.583 129.928C116.072 134.207 113.916 139.027 111.682 144.024C110.283 147.152 108.853 150.349 107.531 153.526C104.063 161.86 101.281 170.162 101.254 177.404C101.389 178.109 101.569 178.79 101.796 179.446C102.327 180.982 103.122 182.393 104.229 183.661C106.208 185.65 111.313 188.601 120.148 190.474C128.975 192.345 141.432 193.118 157.973 190.821C157.998 190.817 158.024 190.815 158.05 190.813C160.999 190.602 166.112 189.805 171.055 188.104C171.659 187.896 172.317 188.217 172.524 188.821C172.732 189.425 172.411 190.083 171.807 190.291C166.667 192.06 161.375 192.89 158.253 193.117C141.508 195.439 128.789 194.67 119.668 192.736C110.582 190.81 104.97 187.706 102.559 185.262C102.544 185.246 102.528 185.229 102.513 185.213C101.187 183.702 100.238 182.018 99.6098 180.202C99.3314 179.397 99.1169 178.569 98.9602 177.721C98.9474 177.652 98.9409 177.582 98.9409 177.511C98.9409 169.745 101.903 161.031 105.396 152.637C106.775 149.322 108.23 146.071 109.637 142.928C111.839 138.008 113.922 133.354 115.41 129.135C115.416 129.119 115.422 129.104 115.428 129.088C122.923 110.429 131.876 90.4499 141.83 73.4274C142.153 72.876 142.861 72.6904 143.412 73.0128Z" fill="white"/>
<path fill-rule="evenodd" clip-rule="evenodd" d="M99.0868 177.774C98.9679 176.966 98.8857 176.157 98.8857 175.777H101.199C101.199 175.975 101.258 176.64 101.375 177.437C101.492 178.233 101.646 179.007 101.797 179.446C102.329 180.982 103.123 182.393 104.231 183.661C106.21 185.65 111.315 188.601 120.149 190.474C128.976 192.345 141.434 193.118 157.975 190.821C158 190.818 158.026 190.815 158.051 190.813C161.001 190.602 166.114 189.805 171.056 188.104C171.083 188.095 171.109 188.086 171.137 188.077C172.069 187.756 173.662 187.209 174.932 186.033C176.164 184.892 177.165 183.09 176.652 180.014C176.547 179.384 176.973 178.788 177.603 178.683C178.233 178.578 178.829 179.004 178.934 179.634C179.577 183.497 178.293 186.074 176.503 187.73C174.866 189.247 172.868 189.929 171.934 190.248C171.89 190.263 171.848 190.278 171.809 190.291C166.669 192.06 161.377 192.89 158.255 193.117C141.51 195.439 128.791 194.67 119.67 192.736C110.583 190.81 104.972 187.706 102.561 185.262C102.545 185.246 102.53 185.229 102.515 185.213C101.189 183.702 100.24 182.018 99.6116 180.202C99.3836 179.543 99.2059 178.583 99.0868 177.774Z" fill="white"/>
</svg>
