<svg width="180" height="175" viewBox="0 0 180 175" fill="none" xmlns="http://www.w3.org/2000/svg">
<path d="M61.0597 52.9879C61.0184 62.4282 60.7349 67.7633 60.7349 67.7633C60.7349 67.7633 56.024 56.8663 51.6895 53.7C47.3551 50.5336 43.7597 49.2537 38.8928 49.7356C30.5595 50.5608 28.2203 61.5384 25.6733 56.7119C23.6987 52.9702 26.1048 48.2829 27.2862 46.365C27.4397 46.1157 27.1549 45.7486 26.875 45.8347C24.3296 46.6175 17.5531 47.9738 14.4192 41.5407C10.9407 34.4002 15.8864 29.526 16.9999 28.5529C17.1185 28.4493 17.1418 28.2759 17.054 28.1452C16.1993 26.8734 12.4085 20.535 17.6945 15.1295C22.7781 9.931 29.1 13.462 30.7627 14.5467C30.9503 14.6691 31.2208 14.5511 31.2732 14.3333C31.5888 13.0233 34.0269 9.4239 38.9998 8.89941C44.1916 8.35183 47.5295 10.577 47.9999 11.8995C52.8386 20.9608 61.104 42.8692 61.0597 52.9879Z" fill="white"/>
<path d="M62.846 68.98C62.846 68.98 67.9451 59.9462 68.4475 49.9999C68.9499 40.0535 65.6143 35.4709 65.6143 35.4709C65.6143 35.4709 67.9501 30.129 66.0886 27.2086C64.7587 25.1223 60.937 23.4045 59.9529 22.988C59.817 22.9304 59.7491 22.7925 59.7864 22.6488C60.1171 21.3762 61.411 15.4409 57.4989 13.0468C53.8732 10.828 50.0602 12.5726 48.838 13.2503C48.6381 13.3611 48.3814 13.278 48.3156 13.0832C47.8529 11.7127 45.916 7.39182 40.0775 8.21951C34.4852 9.01229 32.8629 12.7251 32.4464 14.1203" stroke="white" stroke-width="2"/>
<path d="M60.0018 65.5315C60.0345 66.0828 60.508 66.5032 61.0593 66.4704C61.6106 66.4377 62.031 65.9642 61.9982 65.4129L60.0018 65.5315ZM26.5763 28.5664C26.0761 28.8004 25.8602 29.3956 26.0942 29.8959C26.3282 30.3961 26.9234 30.612 27.4237 30.378L26.5763 28.5664ZM61.9982 65.4129C61.4938 56.9214 59.1752 44.8267 53.7703 36.2754C51.0594 31.9864 47.5212 28.5096 42.9688 26.8939C38.3948 25.2705 32.9563 25.5822 26.5763 28.5664L27.4237 30.378C33.4437 27.5622 38.3302 27.3698 42.2999 28.7787C46.2913 30.1953 49.5156 33.2872 52.0797 37.344C57.2248 45.4843 59.5062 57.1897 60.0018 65.5315L61.9982 65.4129Z" fill="#EBE8E3"/>
<path fill-rule="evenodd" clip-rule="evenodd" d="M32.9915 26.962C32.4792 26.7557 31.8718 27.0655 31.6347 27.6541L28.8378 34.5968C28.6007 35.1853 28.8238 35.8298 29.3361 36.0361C29.8483 36.2425 30.4558 35.9327 30.6929 35.3441L33.4898 28.4014C33.7269 27.8128 33.5038 27.1684 32.9915 26.962Z" fill="#EBE8E3"/>
<path fill-rule="evenodd" clip-rule="evenodd" d="M42.8648 20.8056C42.3575 21.0239 42.1497 21.6734 42.4005 22.2562L45.5775 29.6375C45.8284 30.2204 46.443 30.5159 46.9503 30.2975C47.4576 30.0792 47.6655 29.4297 47.4146 28.8468L44.2376 21.4655C43.9867 20.8827 43.3721 20.5872 42.8648 20.8056Z" fill="#EBE8E3"/>
<path fill-rule="evenodd" clip-rule="evenodd" d="M45.9737 38.4273C45.8027 38.9525 46.1532 39.5374 46.7565 39.7339L53.4556 41.9154C54.0589 42.1118 54.6867 41.8454 54.8577 41.3203C55.0287 40.7951 54.6782 40.2101 54.0748 40.0137L47.3758 37.8322C46.7724 37.6357 46.1447 37.9022 45.9737 38.4273Z" fill="#EBE8E3"/>
<path d="M78.648 59.0676C78.6894 68.5078 79.2929 77.0953 79.2929 77.0953C79.2929 77.0953 84.0039 66.1983 88.3384 63.0319C92.6728 59.8656 96.2682 58.5857 101.135 59.0676C109.468 59.8927 111.808 70.8704 114.355 66.0438C116.329 62.3021 113.923 57.6149 112.742 55.6969C112.588 55.4476 112.873 55.0806 113.153 55.1667C115.698 55.9495 122.475 57.3058 125.609 50.8727C129.087 43.7321 124.141 38.858 123.028 37.8849C122.909 37.7813 122.886 37.6078 122.974 37.4772C123.829 36.2054 127.619 29.867 122.333 24.4615C117.25 19.263 110.928 22.794 109.265 23.8787C109.078 24.0011 108.807 23.883 108.755 23.6653C108.439 22.3553 107.139 18.8903 102.167 18.3658C96.9748 17.8182 95.0638 22.0077 94.5934 23.3303C94.5265 23.5183 94.2933 23.6079 94.1189 23.5107C93.0528 22.9163 89.7116 21.4134 86.3752 23.6728C82.7754 26.1106 83.6898 31.703 83.9336 32.9C83.9611 33.0351 83.8946 33.1691 83.7706 33.2294C83.2253 33.4946 81.7231 34.2594 80.3418 35.276C79.4489 35.9331 78.6065 36.6954 78.1056 37.496C76.3196 40.3502 78.1908 45.3355 78.1908 45.3355C78.1908 45.3355 78.6067 49.6274 78.648 59.0676Z" fill="#EBE8E3" stroke="white" stroke-width="2"/>
<path d="M88.3383 63.0317L101.819 58.9938L115.835 66.3904L114.048 55.5665C113.884 55.3048 114.181 54.9236 114.477 55.0158C117.172 55.8544 124.339 57.3267 127.595 50.6307C131.211 43.1983 125.948 38.0653 124.765 37.0396C124.639 36.9304 124.613 36.7489 124.704 36.6131C125.596 35.2912 129.548 28.6996 123.922 23.0086C118.511 17.5356 111.864 21.1735 110.118 22.2933L88.3383 63.0317Z" fill="#EBE8E3"/>
<path d="M104.014 106.158L124.77 47.6964C124.996 47.0609 125.223 46.4323 125.45 45.7972C126.531 42.768 129.829 33.2627 130.153 29.1076C130.592 23.4686 128.885 19.9703 128.885 19.9703L130.153 16.6963C131.422 16.9382 132.411 16.5996 132.756 15.6281C132.954 15.0019 134.183 12.5626 133.812 12.1878C133.281 11.6514 123.889 8.71422 120.385 7.47021" stroke="white" stroke-width="2" stroke-linecap="round"/>
<path d="M109.938 20.5999C113.194 15.903 116.715 15.6027 116.715 15.6027L118.178 12.0527C118.117 11.3428 115.821 11.3128 115.937 10.0999C116.112 8.28041 117.619 5.99155 117.937 5.59986C118.256 5.20816 124.904 7.81387 128.438 9.09989L101.077 84.1042L88.6934 80.224C93.489 67.0671 96.6708 53.7672 101.438 40.5999C102.593 37.4091 107.538 24.0608 109.938 20.5999Z" fill="white"/>
<path d="M156.437 5.09993C161.437 6.59985 167.262 8.96584 168.937 9.59988L167.687 13.3475C167.208 14.615 165.16 14.5087 164.937 15.0998L162.937 19.5999C162.937 19.5999 167.372 26.2283 167.437 32.0999C167.522 39.8191 163.529 48.5128 160.833 55.6518L149.772 86.6238L121.111 76.6757L132.171 45.7036C134.867 38.5647 138.27 28.8358 143.437 23.1C147.367 18.737 153.937 16.6 153.937 16.6L155.437 12.1C155.592 11.6883 154.641 10.1884 155.056 9.08828L156.437 5.09993Z" fill="white"/>
<path d="M116.073 76.5432L127.134 45.5711C129.83 38.4322 133.35 27.0652 138.516 21.3293C142.446 16.9664 149.516 15.3293 149.516 15.3293L150.93 11.3594C151.085 10.9477 149.604 10.0559 150.019 8.95579L151.111 4.73614C153.215 5.26411 155.469 5.89153 157.513 6.49229" stroke="white" stroke-width="2" stroke-linecap="round"/>
<path d="M139.272 27.5098C138.74 27.3598 138.188 27.6691 138.038 28.2006C137.888 28.7321 138.197 29.2846 138.728 29.4346L139.272 27.5098ZM150.638 33.4043C151.153 33.6043 151.732 33.349 151.932 32.8342C152.132 32.3193 151.877 31.7399 151.362 31.54L150.638 33.4043ZM138.728 29.4346C143.496 30.7801 146.141 31.6579 150.638 33.4043L151.362 31.54C146.803 29.7694 144.098 28.8717 139.272 27.5098L138.728 29.4346Z" fill="#EBE8E3"/>
<path d="M105.698 26.4921C105.157 26.3825 104.629 26.7324 104.52 27.2737C104.41 27.815 104.76 28.3427 105.302 28.4523L105.698 26.4921ZM116.548 32.3641C117.04 32.6138 117.642 32.4169 117.892 31.9243C118.142 31.4317 117.945 30.83 117.452 30.5802L116.548 32.3641ZM105.302 28.4523C109.848 29.3728 112.274 30.1975 116.548 32.3641L117.452 30.5802C113.015 28.3311 110.419 27.4478 105.698 26.4921L105.302 28.4523Z" fill="#EBE8E3"/>
<path d="M72.1901 14.322C71.6583 9.23459 68.877 7.2617 65.3595 7.65245C58.756 8.38601 57.9026 12.1968 58.1863 16.6956C58.937 28.5999 60.1321 37.2014 60.3903 46.5085C60.6558 56.0796 60.2327 69.1464 59.8406 78.2618C59.591 84.0633 58.6098 88.9032 64.4144 88.7422C69.5545 88.5996 73.7271 84.5505 73.9578 79.4136C74.3677 70.2856 74.8649 56.142 74.5824 45.957C74.3052 35.9658 73.0866 22.8974 72.1901 14.322Z" fill="white"/>
<path d="M78.6473 59.0678C78.606 49.6276 78.1901 45.3357 78.1901 45.3357C78.1901 45.3357 76.3189 40.3504 78.1049 37.4961C78.6058 36.6956 79.4482 35.9333 80.3411 35.2762" stroke="#EBE8E3" stroke-width="2"/>
<path d="M79.477 80.1357C80.2128 70.9986 81.1471 56.843 80.8646 46.6579C80.5874 36.6668 78.9482 23.61 77.7281 15.0436C77.0042 9.96149 72.8831 8.02578 67.6318 8.46462C65.5475 8.6388 63.8446 8.94708 62.4585 9.36747" stroke="white" stroke-width="2"/>
<path d="M72.9678 15.9717C73.5198 15.9895 73.9817 15.5564 73.9995 15.0044C74.0173 14.4524 73.5842 13.9905 73.0322 13.9727L72.9678 15.9717ZM60.7917 14.9941C60.2515 15.1092 59.9069 15.6403 60.0219 16.1805C60.137 16.7207 60.6681 17.0653 61.2083 16.9503L60.7917 14.9941ZM73.0322 13.9727C68.2618 13.8189 65.5584 13.9789 60.7917 14.9941L61.2083 16.9503C65.792 15.974 68.3311 15.8222 72.9678 15.9717L73.0322 13.9727Z" fill="#EBE8E3"/>
<path d="M62 2.40607L68.8854 1.47217C70.0466 7.45731 62 8.43346 62 2.40607Z" stroke="white" stroke-width="2"/>
<path d="M131.095 75.2489C131.095 90.5599 118.682 102.972 103.371 102.972C88.0605 102.972 75.6484 90.5599 75.6484 75.2489C75.6484 67.4797 77.6885 60.565 82.1091 55.6039C86.5116 50.6631 93.3952 47.5259 103.371 47.5259C113.348 47.5259 120.231 50.6631 124.634 55.6039C129.054 60.565 131.095 67.4797 131.095 75.2489Z" fill="white" stroke="#EBE8E3" stroke-width="2"/>
<path d="M161.724 149.203C188.94 150.381 116.107 174.575 90.6041 174.733C13.1599 175.211 -50.8576 155.159 57.8268 145.752L90.3305 142.758C90.5125 142.741 90.6987 142.741 90.8807 142.758C118.486 145.278 134.6 148.029 161.724 149.203Z" fill="#E2DFDB"/>
<path d="M38.9888 60.8881H102.989V168.888L41.9888 153.888L38.9888 60.8881Z" fill="#EBE8E3"/>
<path d="M166.989 60.8881H100.989C100.989 60.8881 99.9888 78.3881 99.9888 88.3881C99.9888 112.435 100.989 123.888 100.989 147.888C100.989 155.815 101.305 162.006 101.761 168.143C101.805 168.729 102.321 169.153 102.899 169.05C116.339 166.654 152.021 157.776 163.718 154.839C165.946 154.279 167.48 152.274 167.468 149.976L166.989 60.8881Z" fill="white"/>
<path d="M109.718 97.4997L170.989 77.5547L104.489 62.8881C104.489 62.8881 103.99 72.3881 103.989 79.0214C103.989 80.2008 104.024 81.4857 104.077 82.7346C104.261 87.0997 105.071 91.4077 106.229 95.6206C106.643 97.1277 108.232 97.9835 109.718 97.4997Z" fill="#E2DFDB"/>
<path d="M46.4889 61.8881C48.6616 61.2933 102.033 60.3558 100.989 62.3882C99.945 64.4206 94.6343 93.5437 89.989 94.8882C85.3437 96.2327 42.9057 86.4835 41.989 83.0817C41.0723 79.6798 44.3162 62.4829 46.4889 61.8881Z" fill="#E2DFDB"/>
<path d="M118.517 81.8114C112.297 73.7719 108.926 68.1922 103.01 62.3284C102.389 61.7123 102.771 60.6299 103.644 60.5671L163.344 56.2686C163.659 56.246 163.967 56.3748 164.172 56.6142C169.992 63.4072 172.673 68.6352 178.468 75.2113C179.019 75.8362 178.63 76.8363 177.8 76.9086C155.712 78.8317 142.319 80.697 119.378 82.1979C119.047 82.2195 118.72 82.0735 118.517 81.8114Z" fill="#EBE8E3" stroke="white" stroke-width="2"/>
<path d="M83.1277 81.4264L100.442 62.7455C101.009 62.1328 100.626 61.1372 99.793 61.0761C80.1893 59.6396 41.8181 58.4165 38.3438 60.7328C34.9796 62.9756 28.1514 73.2526 24.551 79.0777C24.1969 79.6505 24.4939 80.3916 25.1556 80.5164C36.104 82.5809 67.2604 82.2188 82.4364 81.7456C82.7036 81.7373 82.946 81.6224 83.1277 81.4264Z" fill="#EBE8E3" stroke="white" stroke-width="2"/>
<path d="M40.8438 84.7327C40.8438 84.1804 40.3961 83.7327 39.8438 83.7327C39.2915 83.7327 38.8438 84.1804 38.8438 84.7327L40.8438 84.7327ZM38.8438 91.7327C38.8437 92.2849 39.2915 92.7327 39.8437 92.7327C40.396 92.7327 40.8437 92.285 40.8438 91.7327L38.8438 91.7327ZM40.8415 95.8005C40.8789 95.2495 40.4626 94.7724 39.9116 94.735C39.3606 94.6975 38.8835 95.1138 38.8461 95.6649L40.8415 95.8005ZM102.172 169.218C102.716 169.313 103.234 168.948 103.329 168.404C103.424 167.86 103.06 167.342 102.515 167.248L102.172 169.218ZM38.8438 84.7327L38.8438 91.7327L40.8438 91.7327L40.8438 84.7327L38.8438 84.7327ZM38.8461 95.6649C38.2617 104.263 37.6354 117.462 37.6563 129.122C37.6667 134.949 37.8388 140.414 38.2626 144.735C38.4744 146.894 38.7512 148.792 39.1095 150.317C39.4578 151.799 39.9151 153.08 40.5755 153.873L42.112 152.592C41.7724 152.185 41.3964 151.306 41.0565 149.859C40.7267 148.455 40.4606 146.655 40.2531 144.54C39.8384 140.312 39.6667 134.92 39.6563 129.118C39.6355 117.52 40.2591 104.369 40.8415 95.8005L38.8461 95.6649ZM40.5755 153.873C41.2379 154.668 42.4782 155.38 43.962 156.039C45.4937 156.72 47.4519 157.414 49.7131 158.112C54.2389 159.508 60.0668 160.943 66.3157 162.322C78.8185 165.081 93.0875 167.634 102.172 169.218L102.515 167.248C93.4334 165.664 79.2024 163.118 66.7468 160.369C60.5165 158.994 54.7507 157.572 50.3025 156.201C48.0768 155.514 46.203 154.847 44.7743 154.212C43.2979 153.555 42.4497 152.998 42.112 152.592L40.5755 153.873Z" fill="white"/>
<path d="M167.344 153.733L166.443 153.298L167.344 153.733ZM102.171 167.248C101.627 167.343 101.263 167.862 101.359 168.405C101.454 168.949 101.973 169.313 102.517 169.218L102.171 167.248ZM166.344 78.2461C166.503 90.1391 166.931 108.073 167.106 123.556C167.193 131.287 167.216 138.377 167.111 143.752C167.059 146.442 166.975 148.689 166.851 150.368C166.79 151.208 166.719 151.892 166.641 152.41C166.557 152.965 166.478 153.226 166.443 153.298L168.245 154.167C168.424 153.795 168.535 153.263 168.618 152.709C168.708 152.119 168.782 151.379 168.846 150.514C168.973 148.783 169.058 146.494 169.111 143.791C169.217 138.384 169.193 131.268 169.105 123.533C168.931 108.084 168.502 90.0445 168.344 78.2193L166.344 78.2461ZM166.443 153.298C166.478 153.225 166.449 153.325 166.065 153.555C165.729 153.756 165.239 153.988 164.588 154.245C163.292 154.758 161.474 155.327 159.234 155.937C154.762 157.154 148.712 158.505 142.028 159.871C128.663 162.601 112.836 165.376 102.171 167.248L102.517 169.218C113.176 167.347 129.032 164.567 142.428 161.83C149.124 160.462 155.224 159.101 159.76 157.867C162.024 157.25 163.925 156.659 165.324 156.105C166.021 155.829 166.623 155.552 167.092 155.271C167.515 155.018 168.005 154.664 168.245 154.167L166.443 153.298Z" fill="white"/>
</svg>
