<svg width="498" height="412" fill="none" xmlns="http://www.w3.org/2000/svg"><g clip-path="url(#clip0)"><path d="M198.092 145.259c-.073 16.615-.572 26.004-.572 26.004s-8.287-19.178-15.911-24.751c-7.625-5.573-13.95-7.825-22.511-6.977-14.659 1.452-18.774 20.773-23.254 12.278-3.474-6.585.759-14.835 2.837-18.211.27-.438-.231-1.084-.723-.933-4.478 1.378-16.398 3.765-21.911-7.557-6.119-12.568 2.581-21.146 4.54-22.859a.546.546 0 00.095-.717c-1.504-2.239-8.172-13.394 1.126-22.908 8.943-9.15 20.064-2.935 22.988-1.026.33.216.806.008.899-.375.555-2.306 4.844-8.64 13.591-9.564 9.133-.964 15.005 2.953 15.832 5.28 8.512 15.948 23.051 54.507 22.974 72.316z" fill="#fff"/><path d="M201.234 173.405s8.97-15.9 9.853-33.405c.884-17.506-4.984-25.571-4.984-25.571s4.109-9.402.835-14.542c-2.34-3.672-9.062-6.695-10.793-7.428a.497.497 0 01-.293-.597c.581-2.24 2.858-12.686-4.024-16.9-6.378-3.905-13.086-.834-15.235.358-.352.196-.804.05-.919-.294-.814-2.412-4.222-10.016-14.492-8.56-9.837 1.396-12.691 7.93-13.424 10.386" stroke="#fff" stroke-width="2"/><path d="M196.231 167.335a1.758 1.758 0 103.511-.208l-3.511.208zm-58.799-65.058a1.76 1.76 0 001.491 3.188l-1.491-3.188zm62.31 64.85c-.887-14.945-4.965-36.232-14.473-51.282-4.769-7.549-10.993-13.668-19.001-16.512-8.046-2.857-17.613-2.308-28.836 2.944l1.491 3.188c10.59-4.956 19.185-5.294 26.168-2.814 7.022 2.493 12.693 7.934 17.204 15.074 9.051 14.327 13.064 34.929 13.936 49.61l3.511-.208z" fill="#EBE8E3"/><path fill-rule="evenodd" clip-rule="evenodd" d="M148.717 99.453c-.901-.363-1.97.182-2.387 1.218l-4.92 12.219c-.417 1.036-.024 2.17.877 2.534.901.363 1.97-.182 2.387-1.218l4.92-12.22c.417-1.035.024-2.17-.877-2.533zm17.368-10.835c-.892.384-1.258 1.527-.817 2.553l5.589 12.991c.441 1.026 1.522 1.546 2.415 1.162.892-.385 1.258-1.528.817-2.554L168.5 89.78c-.441-1.026-1.522-1.546-2.415-1.162zm5.469 31.014c-.301.924.316 1.954 1.377 2.3l11.784 3.839c1.062.346 2.166-.123 2.467-1.047.3-.925-.316-1.954-1.378-2.3l-11.784-3.839c-1.061-.346-2.165.123-2.466 1.047z" fill="#EBE8E3"/><path d="M229.031 155.959c.073 16.615 1.134 31.729 1.134 31.729s8.287-19.179 15.912-24.752 13.949-7.825 22.51-6.977c14.659 1.452 18.775 20.773 23.256 12.278 3.472-6.585-.76-14.835-2.838-18.21-.271-.439.231-1.085.723-.934 4.477 1.378 16.398 3.765 21.911-7.557 6.118-12.568-2.582-21.146-4.54-22.859a.544.544 0 01-.095-.717c1.504-2.239 8.171-13.394-1.127-22.908-8.942-9.15-20.063-2.935-22.988-1.026-.329.216-.806.008-.897-.375-.556-2.306-2.843-8.404-11.589-9.327-9.134-.964-12.495 6.41-13.323 8.737a.595.595 0 01-.834.318c-1.876-1.046-7.753-3.691-13.622.285-6.333 4.29-4.724 14.133-4.295 16.24a.526.526 0 01-.287.58c-.959.466-3.602 1.813-6.032 3.602-1.57 1.156-3.052 2.498-3.933 3.907-3.142 5.023.15 13.797.15 13.797s.731 7.554.804 24.169z" fill="#EBE8E3" stroke="#fff" stroke-width="2"/><path d="M246.077 162.936l23.714-7.107 24.655 13.018-3.143-19.05c-.289-.461.233-1.131.754-.969 4.741 1.476 17.348 4.067 23.076-7.718 6.361-13.081-2.897-22.115-4.978-23.92a.57.57 0 01-.108-.751c1.569-2.326 8.521-13.928-1.375-23.944-9.519-9.632-21.211-3.23-24.283-1.259l-38.312 71.7z" fill="#EBE8E3"/><path d="M273.652 238.838l36.511-102.892c.398-1.119.797-2.225 1.197-3.343 1.901-5.331 7.703-22.061 8.273-29.374.772-9.924-2.231-16.081-2.231-16.081l2.231-5.763c2.232.426 3.972-.17 4.578-1.88.349-1.102 2.511-5.395 1.858-6.054-.934-.944-17.455-6.114-23.619-8.303" stroke="#fff" stroke-width="2" stroke-linecap="round"/><path d="M284.073 88.256c5.727-8.267 11.921-8.795 11.921-8.795l2.574-6.248c-.108-1.25-4.147-1.302-3.943-3.437.308-3.203 2.959-7.23 3.519-7.92.561-.69 12.255 3.896 18.472 6.16l-48.131 132.007-21.783-6.829c8.435-23.156 14.033-46.564 22.418-69.738 2.032-5.616 10.731-29.109 14.953-35.2zm81.795-27.28c8.796 2.64 19.043 6.804 21.989 7.92l-2.199 6.596c-.842 2.23-4.445 2.043-4.837 3.084l-3.519 7.92s7.802 11.666 7.916 22c.15 13.586-6.874 28.887-11.617 41.451l-19.457 54.511-50.417-17.509 19.455-54.511c4.743-12.564 10.729-29.687 19.818-39.782 6.914-7.679 18.471-11.44 18.471-11.44l2.638-7.92c.273-.725-1.4-3.364-.67-5.3l2.429-7.02z" fill="#fff"/><path d="M294.865 186.716l19.457-54.511c4.742-12.564 10.934-32.57 20.022-42.665 6.913-7.68 19.35-10.56 19.35-10.56l2.487-6.987c.273-.725-2.332-2.295-1.602-4.23l1.921-7.427c3.701.929 7.666 2.033 11.261 3.09" stroke="#fff" stroke-width="2" stroke-linecap="round"/><path d="M335.674 100.417a1.76 1.76 0 00-.957 3.388l.957-3.388zm19.993 10.375a1.76 1.76 0 001.274-3.282l-1.274 3.282zm-20.95-6.987c8.387 2.368 13.04 3.913 20.95 6.987l1.274-3.282c-8.02-3.116-12.778-4.696-21.267-7.093l-.957 3.388zm-58.103-5.179a1.757 1.757 0 00-2.072 1.376 1.758 1.758 0 001.376 2.074l.696-3.45zm19.086 10.335a1.759 1.759 0 101.59-3.14l-1.59 3.14zm-19.782-6.885c7.996 1.62 12.264 3.072 19.782 6.885l1.59-3.14c-7.805-3.958-12.371-5.513-20.676-7.195l-.696 3.45z" fill="#EBE8E3"/><path d="M217.671 77.207c-.936-8.954-5.828-12.426-12.016-11.739-11.616 1.291-13.117 7.998-12.618 15.916 1.321 20.952 3.423 36.09 3.877 52.471.467 16.845-.277 39.843-.967 55.886-.439 10.21-2.165 18.729 8.046 18.445 9.042-.251 16.382-7.377 16.787-16.418.721-16.065 1.596-40.958 1.099-58.884-.487-17.584-2.631-40.585-4.208-55.677z" fill="#fff"/><path d="M229.03 155.959c-.073-16.614-.805-24.168-.805-24.168s-3.291-8.774-.15-13.798c.882-1.409 2.363-2.75 3.934-3.907" stroke="#EBE8E3" stroke-width="2"/><path d="M230.489 193.039c1.294-16.081 2.938-40.995 2.441-58.921-.488-17.584-3.371-40.564-5.517-55.641-1.274-8.945-8.523-12.352-17.761-11.58-3.666.307-6.662.85-9.1 1.59" stroke="#fff" stroke-width="2"/><path d="M219.039 80.11a1.76 1.76 0 00.113-3.518l-.113 3.518zm-21.419-1.72a1.76 1.76 0 00.733 3.442l-.733-3.442zm21.532-1.798c-8.391-.27-13.147.01-21.532 1.798l.733 3.442c8.063-1.718 12.53-1.985 20.686-1.722l.113-3.518z" fill="#EBE8E3"/><path d="M199.746 56.235l12.112-1.644c2.042 10.534-12.112 12.252-12.112 1.644z" stroke="#fff" stroke-width="2"/><path d="M321.29 184.438c0 26.947-21.836 48.793-48.769 48.793s-48.767-21.846-48.767-48.793c0-13.674 3.589-25.844 11.365-34.575 7.745-8.696 19.853-14.217 37.402-14.217 17.55 0 29.658 5.521 37.403 14.217 7.775 8.731 11.366 20.901 11.366 34.575z" fill="#fff" stroke="#EBE8E3" stroke-width="2"/><path d="M375.169 314.597c47.875 2.074-80.245 44.655-125.106 44.933-136.231.841-248.844-34.45-57.658-51.006l57.176-5.27c.321-.03.648-.03.968 0 48.56 4.435 76.906 9.277 124.62 11.343z" fill="#E2DFDB"/><path d="M159.267 159.163h112.582v190.08l-107.305-26.4-5.277-163.68z" fill="#EBE8E3"/><path d="M384.43 159.163H268.331s-1.76 30.8-1.76 48.4c0 42.323 1.76 62.48 1.76 104.72 0 13.951.555 24.848 1.358 35.649.077 1.031.985 1.777 2.001 1.596 23.643-4.217 86.41-19.842 106.986-25.011 3.92-.986 6.618-4.515 6.597-8.559l-.843-156.795z" fill="#fff"/><path d="M283.686 223.599l107.781-35.103-116.98-25.813s-.877 16.72-.879 28.395c0 2.075.061 4.337.155 6.535.323 7.682 1.748 15.265 3.785 22.679a4.817 4.817 0 006.138 3.307zM172.46 160.923c3.822-1.047 97.707-2.697 95.871.88-1.837 3.577-11.179 54.834-19.35 57.2-8.172 2.367-82.824-14.792-84.436-20.779-1.613-5.988 4.093-36.254 7.915-37.301z" fill="#E2DFDB"/><path d="M299.164 195.988c-10.942-14.149-16.872-23.97-27.278-34.29-1.093-1.084-.421-2.989 1.115-3.1l105.017-7.565a1.755 1.755 0 011.457.608c10.238 11.956 14.954 21.157 25.148 32.731.969 1.1.285 2.86-1.175 2.987-38.855 3.385-62.414 6.668-102.77 9.309a1.78 1.78 0 01-1.514-.68zm-62.253-.678l30.457-32.878c.998-1.078.324-2.831-1.141-2.938-34.485-2.528-101.983-4.681-108.095-.604-5.918 3.947-17.929 22.035-24.262 32.287-.623 1.008-.101 2.312 1.063 2.532 19.259 3.633 74.066 2.996 100.762 2.163.47-.014.896-.217 1.216-.562z" fill="#EBE8E3" stroke="#fff" stroke-width="2"/><path d="M162.53 201.13a1.76 1.76 0 10-3.518 0h3.518zm-3.518 12.32a1.76 1.76 0 103.518 0h-3.518zm3.514 7.159a1.76 1.76 0 10-3.51-.239l3.51.239zm107.886 129.215a1.76 1.76 0 00.603-3.468l-.603 3.468zm-111.4-148.694v12.32h3.518v-12.32h-3.518zm.004 19.24c-1.028 15.133-2.13 38.363-2.093 58.885.018 10.255.321 19.874 1.066 27.479.373 3.799.86 7.14 1.49 9.824.613 2.608 1.417 4.863 2.579 6.258l2.703-2.254c-.597-.716-1.259-2.263-1.857-4.81-.58-2.471-1.048-5.639-1.413-9.362-.73-7.441-1.032-16.931-1.05-27.142-.036-20.413 1.06-43.559 2.085-58.639l-3.51-.239zm3.042 102.446c1.165 1.4 3.347 2.653 5.957 3.813 2.695 1.198 6.139 2.42 10.117 3.648 7.961 2.457 18.213 4.983 29.205 7.41 21.994 4.856 47.094 9.349 63.075 12.137l.603-3.468c-15.975-2.787-41.009-7.268-62.919-12.107-10.96-2.42-21.103-4.922-28.927-7.335-3.916-1.209-7.212-2.383-9.725-3.501-2.597-1.156-4.089-2.137-4.683-2.851l-2.703 2.254z" fill="#fff"/><path d="M385.055 322.57l-1.585-.766 1.585.766zM270.41 346.356a1.76 1.76 0 00.608 3.468l-.608-3.468zm112.886-156.643c.279 20.932 1.032 52.495 1.34 79.746.153 13.606.194 26.085.009 35.545-.092 4.734-.239 8.689-.457 11.644-.108 1.478-.233 2.682-.37 3.594-.148.976-.287 1.436-.348 1.562l3.17 1.53c.315-.655.51-1.591.656-2.566.158-1.039.288-2.341.401-3.863.223-3.047.373-7.076.466-11.833.187-9.516.144-22.04-.01-35.654-.307-27.19-1.061-58.94-1.339-79.752l-3.518.047zm.174 132.091c.061-.128.01.048-.665.453-.591.354-1.453.762-2.598 1.214-2.28.903-5.478 1.905-9.418 2.978-7.867 2.142-18.509 4.52-30.267 6.924-23.51 4.805-51.351 9.689-70.112 12.983l.608 3.468c18.751-3.293 46.643-8.186 70.207-13.003 11.779-2.408 22.51-4.803 30.489-6.975 3.982-1.086 7.327-2.126 9.787-3.101 1.227-.486 2.286-.973 3.111-1.468.744-.445 1.606-1.068 2.028-1.943l-3.17-1.53z" fill="#fff"/></g><defs><clipPath id="clip0"><path fill="#fff" transform="translate(90.682 52)" d="M0 0h316.636v308H0z"/></clipPath></defs></svg>