<svg width="17" height="12" fill="none" xmlns="http://www.w3.org/2000/svg"><g clip-path="url(#clip0)"><path d="M12.334 4.02l-3.55-.5L7.197.417c-.284-.553-1.108-.56-1.394 0L4.216 3.52l-3.55.5c-.637.088-.892.845-.43 1.279l2.568 2.414-.607 3.41c-.11.616.563 1.077 1.127.79l3.176-1.61 3.176 1.61c.564.285 1.237-.174 1.127-.79l-.607-3.41 2.568-2.414c.462-.434.207-1.19-.43-1.28zm-3.39 3.299l.576 3.243-3.02-1.53-3.02 1.53.576-3.243L1.61 5.022l3.378-.473L6.5 1.596 8.011 4.55l3.378.473L8.945 7.32z" fill="#F9CE1E"/></g><defs><clipPath id="clip0"><path fill="#fff" d="M0 0h13v12H0z"/></clipPath></defs></svg>