<svg width="86" height="70" viewBox="0 0 86 70" fill="none" xmlns="http://www.w3.org/2000/svg">
<path d="M20.4395 42.1208C19.9414 42.7713 19.4004 43.1513 19.4185 43.5017C19.6671 48.2799 21.029 52.4705 25.0644 55.5944C28.9749 58.6221 33.075 61.1964 37.8389 62.5669C42.9219 64.0289 47.9839 64.1803 52.8907 61.8155C54.9679 60.8145 57.0222 59.7659 58.7079 58.9278C60.5108 56.5239 62.0328 54.4953 63.3461 52.7448C66.4453 51.8657 68.8786 51.8124 70.692 54.3534C67.8472 60.5574 62.948 64.6936 56.946 67.2165C49.6554 70.2814 41.68 71.0842 34.3531 68.2585C25.9282 65.0089 18.4023 59.9183 14.546 51.0238C13.7613 49.2133 12.9308 47.4218 12.0165 45.3894C9.74783 46.6361 7.75636 47.7304 6.03061 48.679C3.24769 48.5847 1.04859 48.099 0 45.5351C0.182861 45.0713 0.24572 44.5094 0.556203 44.1846C4.63153 39.9302 8.6859 35.652 12.8727 31.5081C14.5537 29.8443 16.7004 28.9357 19.6347 29.2548C24.951 32.7091 27.3596 38.8674 31.0626 43.697C30.9445 46.2894 29.2321 46.8885 27.5168 47.4628C24.0367 47.2609 22.8681 43.7713 20.4395 42.1208Z" fill="#FF7A2C"/>
<path d="M66.9733 29.1557C68.9781 26.3661 68.5295 23.8213 67.3533 20.5812C64.9971 14.0906 60.3198 10.2695 54.2892 8.5495C45.5919 6.06944 36.9908 6.49612 29.8487 13.2439C28.3639 14.6468 27.0524 16.2754 25.4134 17.4583C23.4667 18.8631 21.3009 19.0431 19.2266 17.5335C26.0905 0.504561 46.9243 -3.69172 60.0608 3.08843C66.3571 6.33802 70.3772 11.3038 73.5201 17.3078C74.7068 19.5745 75.8411 21.8679 76.985 24.1222C79.5726 23.3822 81.7241 21.5031 84.4394 22.666C86.3604 24.0822 85.7366 25.8337 85.0051 27.4975C84.7118 28.1642 84.1127 28.7938 83.4965 29.2042C80.4212 31.2529 78.7555 34.4729 76.6945 37.5492C74.4611 38.0892 72.2477 38.6235 69.922 39.1864C63.4085 35.3653 57.8026 30.7576 54.575 23.2412C55.6312 22.5641 56.4388 21.6269 57.2407 21.6326C58.4293 21.6403 59.8817 22.0155 60.7389 22.7774C62.0532 23.9451 62.8456 25.6823 64.0752 26.9718C64.898 27.8337 66.0952 28.3375 67.1247 29.0014L67.4486 29.2338L66.9733 29.1557Z" fill="#FF7A2C"/>
</svg>
